<svg width="165" height="152" viewBox="0 0 165 152" fill="none" xmlns="http://www.w3.org/2000/svg">
<path d="M5.11328 17H2.99414V8.76953H0.280273V7.00586H7.82715V8.76953H5.11328V17ZM16.2559 17H14.1709V12.5361C14.1709 11.4333 13.7607 10.8818 12.9404 10.8818C12.3571 10.8818 11.9355 11.0801 11.6758 11.4766C11.416 11.873 11.2861 12.5156 11.2861 13.4043V17H9.20117V6.36328H11.2861V8.53027C11.2861 8.69889 11.2702 9.09538 11.2383 9.71973L11.1904 10.335H11.2998C11.7646 9.58757 12.5029 9.21387 13.5146 9.21387C14.4124 9.21387 15.0938 9.4554 15.5586 9.93848C16.0234 10.4215 16.2559 11.1143 16.2559 12.0166V17ZM18.3135 7.38184C18.3135 6.7028 18.6917 6.36328 19.4482 6.36328C20.2048 6.36328 20.583 6.7028 20.583 7.38184C20.583 7.7054 20.4873 7.95833 20.2959 8.14062C20.109 8.31836 19.8265 8.40723 19.4482 8.40723C18.6917 8.40723 18.3135 8.06543 18.3135 7.38184ZM20.4873 17H18.4023V9.35742H20.4873V17ZM26.9473 9.21387C27.2298 9.21387 27.4645 9.23438 27.6514 9.27539L27.4941 11.2305C27.3255 11.1849 27.1204 11.1621 26.8789 11.1621C26.2135 11.1621 25.694 11.333 25.3203 11.6748C24.9512 12.0166 24.7666 12.4951 24.7666 13.1104V17H22.6816V9.35742H24.2607L24.5684 10.6426H24.6709C24.9079 10.2142 25.2269 9.87012 25.6279 9.61035C26.0335 9.34603 26.4733 9.21387 26.9473 9.21387ZM31.459 17.1367C30.5612 17.1367 29.8548 16.7881 29.3398 16.0908C28.8294 15.3936 28.5742 14.4274 28.5742 13.1924C28.5742 11.9391 28.834 10.9639 29.3535 10.2666C29.8776 9.56478 30.5977 9.21387 31.5137 9.21387C32.4753 9.21387 33.209 9.58757 33.7148 10.335H33.7832C33.6784 9.7653 33.626 9.25716 33.626 8.81055V6.36328H35.7178V17H34.1182L33.7148 16.0088H33.626C33.152 16.7607 32.4297 17.1367 31.459 17.1367ZM32.1904 15.4756C32.7236 15.4756 33.1133 15.3206 33.3594 15.0107C33.61 14.7008 33.7467 14.1745 33.7695 13.4316V13.2061C33.7695 12.3857 33.6419 11.7979 33.3867 11.4424C33.1361 11.0869 32.7259 10.9092 32.1562 10.9092C31.6914 10.9092 31.3291 11.1074 31.0693 11.5039C30.8141 11.8958 30.6865 12.4678 30.6865 13.2197C30.6865 13.9717 30.8164 14.5368 31.0762 14.915C31.3359 15.2887 31.7074 15.4756 32.1904 15.4756ZM45.9443 8.62598C45.1468 8.62598 44.5293 8.92676 44.0918 9.52832C43.6543 10.1253 43.4355 10.9593 43.4355 12.0303C43.4355 14.2588 44.2718 15.373 45.9443 15.373C46.6462 15.373 47.4961 15.1976 48.4941 14.8467V16.624C47.6738 16.9658 46.7578 17.1367 45.7461 17.1367C44.2923 17.1367 43.1803 16.6969 42.4102 15.8174C41.64 14.9333 41.2549 13.6663 41.2549 12.0166C41.2549 10.9775 41.444 10.0684 41.8223 9.28906C42.2005 8.50521 42.7428 7.90592 43.4492 7.49121C44.1602 7.07194 44.9919 6.8623 45.9443 6.8623C46.915 6.8623 47.8903 7.09701 48.8701 7.56641L48.1865 9.28906C47.8128 9.11133 47.4368 8.95638 47.0586 8.82422C46.6803 8.69206 46.3089 8.62598 45.9443 8.62598ZM52.124 13.165C52.124 13.9215 52.2471 14.4935 52.4932 14.8809C52.7438 15.2682 53.1494 15.4619 53.71 15.4619C54.266 15.4619 54.6647 15.2705 54.9062 14.8877C55.1523 14.5003 55.2754 13.9261 55.2754 13.165C55.2754 12.4085 55.1523 11.8411 54.9062 11.4629C54.6602 11.0846 54.2568 10.8955 53.6963 10.8955C53.1403 10.8955 52.7393 11.0846 52.4932 11.4629C52.2471 11.8366 52.124 12.404 52.124 13.165ZM57.4082 13.165C57.4082 14.4092 57.0801 15.3822 56.4238 16.084C55.7676 16.7858 54.8538 17.1367 53.6826 17.1367C52.9489 17.1367 52.3018 16.9772 51.7412 16.6582C51.1807 16.3346 50.75 15.8721 50.4492 15.2705C50.1484 14.6689 49.998 13.9671 49.998 13.165C49.998 11.9163 50.3239 10.9456 50.9756 10.2529C51.6273 9.56022 52.5433 9.21387 53.7236 9.21387C54.4574 9.21387 55.1045 9.37337 55.665 9.69238C56.2256 10.0114 56.6562 10.4694 56.957 11.0664C57.2578 11.6634 57.4082 12.363 57.4082 13.165ZM61.2158 17H59.1309V6.36328H61.2158V17ZM68.8242 17L68.5439 16.0225H68.4346C68.2113 16.3779 67.8945 16.6536 67.4844 16.8496C67.0742 17.041 66.6071 17.1367 66.083 17.1367C65.1852 17.1367 64.5085 16.8975 64.0527 16.4189C63.597 15.9359 63.3691 15.2432 63.3691 14.3408V9.35742H65.4541V13.8213C65.4541 14.3727 65.5521 14.7874 65.748 15.0654C65.944 15.3389 66.2562 15.4756 66.6846 15.4756C67.2679 15.4756 67.6895 15.2819 67.9492 14.8945C68.209 14.5026 68.3389 13.8555 68.3389 12.9531V9.35742H70.4238V17H68.8242ZM79.4541 17H77.3691V12.5361C77.3691 11.9847 77.2757 11.5723 77.0889 11.2988C76.9066 11.0208 76.6172 10.8818 76.2207 10.8818C75.6875 10.8818 75.3001 11.0778 75.0586 11.4697C74.8171 11.8617 74.6963 12.5065 74.6963 13.4043V17H72.6113V9.35742H74.2041L74.4844 10.335H74.6006C74.8057 9.98405 75.1019 9.71061 75.4893 9.51465C75.8766 9.31413 76.321 9.21387 76.8223 9.21387C77.9661 9.21387 78.7409 9.58757 79.1465 10.335H79.3311C79.5361 9.97949 79.8369 9.70378 80.2334 9.50781C80.6344 9.31185 81.0856 9.21387 81.5869 9.21387C82.4528 9.21387 83.1068 9.43717 83.5488 9.88379C83.9954 10.3258 84.2188 11.0368 84.2188 12.0166V17H82.127V12.5361C82.127 11.9847 82.0335 11.5723 81.8467 11.2988C81.6644 11.0208 81.375 10.8818 80.9785 10.8818C80.4681 10.8818 80.0853 11.0641 79.8301 11.4287C79.5794 11.7933 79.4541 12.3721 79.4541 13.165V17ZM93.4199 17H91.335V12.5361C91.335 11.9847 91.237 11.5723 91.041 11.2988C90.8451 11.0208 90.5329 10.8818 90.1045 10.8818C89.5212 10.8818 89.0996 11.0778 88.8398 11.4697C88.5801 11.8571 88.4502 12.502 88.4502 13.4043V17H86.3652V9.35742H87.958L88.2383 10.335H88.3545C88.5869 9.96582 88.9059 9.68783 89.3115 9.50098C89.7217 9.30957 90.1865 9.21387 90.7061 9.21387C91.5947 9.21387 92.2692 9.4554 92.7295 9.93848C93.1898 10.417 93.4199 11.1097 93.4199 12.0166V17Z" fill="#212121"/>
<path d="M1.37402 49V39.0059H2.53613V47.9473H6.94531V49H1.37402ZM9.61133 49H8.47656V41.5078H9.61133V49ZM8.38086 39.4775C8.38086 39.2178 8.44466 39.0286 8.57227 38.9102C8.69987 38.7871 8.85938 38.7256 9.05078 38.7256C9.23307 38.7256 9.3903 38.7871 9.52246 38.9102C9.65462 39.0332 9.7207 39.2223 9.7207 39.4775C9.7207 39.7327 9.65462 39.9242 9.52246 40.0518C9.3903 40.1748 9.23307 40.2363 9.05078 40.2363C8.85938 40.2363 8.69987 40.1748 8.57227 40.0518C8.44466 39.9242 8.38086 39.7327 8.38086 39.4775ZM17.1445 49V44.1533C17.1445 43.5426 17.0055 43.0869 16.7275 42.7861C16.4495 42.4854 16.0143 42.335 15.4219 42.335C14.638 42.335 14.0638 42.5469 13.6992 42.9707C13.3346 43.3945 13.1523 44.0941 13.1523 45.0693V49H12.0176V41.5078H12.9404L13.125 42.5332H13.1797C13.4121 42.1641 13.738 41.8792 14.1572 41.6787C14.5765 41.4736 15.0436 41.3711 15.5586 41.3711C16.4609 41.3711 17.14 41.5898 17.5957 42.0273C18.0514 42.4603 18.2793 43.1553 18.2793 44.1123V49H17.1445ZM21.7383 45.165C21.9342 44.887 22.2327 44.5225 22.6338 44.0713L25.0537 41.5078H26.4004L23.3652 44.7002L26.6123 49H25.2383L22.5928 45.459L21.7383 46.1973V49H20.6172V38.3633H21.7383V44.0029C21.7383 44.2536 21.7201 44.641 21.6836 45.165H21.7383ZM40.4551 43.9893C40.4551 45.5889 40.0495 46.8467 39.2383 47.7627C38.4316 48.6787 37.3083 49.1367 35.8682 49.1367C34.3962 49.1367 33.2591 48.6878 32.457 47.79C31.6595 46.8877 31.2607 45.6162 31.2607 43.9756C31.2607 42.3486 31.6618 41.0885 32.4639 40.1953C33.266 39.2975 34.4053 38.8486 35.8818 38.8486C37.3174 38.8486 38.4385 39.3044 39.2451 40.2158C40.0518 41.1273 40.4551 42.3851 40.4551 43.9893ZM32.4912 43.9893C32.4912 45.3428 32.7783 46.3704 33.3525 47.0723C33.9313 47.7695 34.7699 48.1182 35.8682 48.1182C36.9756 48.1182 37.8118 47.7695 38.377 47.0723C38.9421 46.375 39.2246 45.3473 39.2246 43.9893C39.2246 42.6449 38.9421 41.6263 38.377 40.9336C37.8164 40.2363 36.9847 39.8877 35.8818 39.8877C34.7744 39.8877 33.9313 40.2386 33.3525 40.9404C32.7783 41.6377 32.4912 42.654 32.4912 43.9893ZM47.6465 49V44.1533C47.6465 43.5426 47.5075 43.0869 47.2295 42.7861C46.9515 42.4854 46.5163 42.335 45.9238 42.335C45.14 42.335 44.5658 42.5469 44.2012 42.9707C43.8366 43.3945 43.6543 44.0941 43.6543 45.0693V49H42.5195V41.5078H43.4424L43.627 42.5332H43.6816C43.9141 42.1641 44.2399 41.8792 44.6592 41.6787C45.0785 41.4736 45.5456 41.3711 46.0605 41.3711C46.9629 41.3711 47.6419 41.5898 48.0977 42.0273C48.5534 42.4603 48.7812 43.1553 48.7812 44.1123V49H47.6465ZM54.2842 49.1367C53.1768 49.1367 52.3018 48.7995 51.6592 48.125C51.0212 47.4505 50.7021 46.514 50.7021 45.3154C50.7021 44.1077 50.9984 43.1484 51.5908 42.4375C52.1878 41.7266 52.9876 41.3711 53.9902 41.3711C54.929 41.3711 55.6719 41.681 56.2188 42.3008C56.7656 42.916 57.0391 43.7295 57.0391 44.7412V45.459H51.8779C51.9007 46.3385 52.1217 47.0062 52.541 47.4619C52.9648 47.9176 53.5596 48.1455 54.3252 48.1455C55.1318 48.1455 55.9294 47.9769 56.7178 47.6396V48.6514C56.3167 48.8245 55.9362 48.9476 55.5762 49.0205C55.2207 49.098 54.79 49.1367 54.2842 49.1367ZM53.9766 42.3213C53.375 42.3213 52.8942 42.5173 52.5342 42.9092C52.1787 43.3011 51.9691 43.8434 51.9053 44.5361H55.8223C55.8223 43.8206 55.6628 43.2738 55.3438 42.8955C55.0247 42.5127 54.569 42.3213 53.9766 42.3213Z" fill="#807E7E"/>
<path d="M1.37402 81V71.0059H2.53613V79.9473H6.94531V81H1.37402ZM9.61133 81H8.47656V73.5078H9.61133V81ZM8.38086 71.4775C8.38086 71.2178 8.44466 71.0286 8.57227 70.9102C8.69987 70.7871 8.85938 70.7256 9.05078 70.7256C9.23307 70.7256 9.3903 70.7871 9.52246 70.9102C9.65462 71.0332 9.7207 71.2223 9.7207 71.4775C9.7207 71.7327 9.65462 71.9242 9.52246 72.0518C9.3903 72.1748 9.23307 72.2363 9.05078 72.2363C8.85938 72.2363 8.69987 72.1748 8.57227 72.0518C8.44466 71.9242 8.38086 71.7327 8.38086 71.4775ZM17.1445 81V76.1533C17.1445 75.5426 17.0055 75.0869 16.7275 74.7861C16.4495 74.4854 16.0143 74.335 15.4219 74.335C14.638 74.335 14.0638 74.5469 13.6992 74.9707C13.3346 75.3945 13.1523 76.0941 13.1523 77.0693V81H12.0176V73.5078H12.9404L13.125 74.5332H13.1797C13.4121 74.1641 13.738 73.8792 14.1572 73.6787C14.5765 73.4736 15.0436 73.3711 15.5586 73.3711C16.4609 73.3711 17.14 73.5898 17.5957 74.0273C18.0514 74.4603 18.2793 75.1553 18.2793 76.1123V81H17.1445ZM21.7383 77.165C21.9342 76.887 22.2327 76.5225 22.6338 76.0713L25.0537 73.5078H26.4004L23.3652 76.7002L26.6123 81H25.2383L22.5928 77.459L21.7383 78.1973V81H20.6172V70.3633H21.7383V76.0029C21.7383 76.2536 21.7201 76.641 21.6836 77.165H21.7383ZM34.8564 81H33.6943V72.0381H30.5293V71.0059H38.0215V72.0381H34.8564V81ZM45.4795 81L44.1055 76.6045C44.0189 76.3356 43.8571 75.7249 43.6201 74.7725H43.5654C43.3831 75.57 43.2236 76.1852 43.0869 76.6182L41.6719 81H40.3594L38.3154 73.5078H39.5049C39.988 75.39 40.3548 76.8232 40.6055 77.8076C40.8607 78.792 41.0065 79.4551 41.043 79.7969H41.0977C41.1478 79.5371 41.2275 79.2021 41.3369 78.792C41.4508 78.3773 41.5488 78.0492 41.6309 77.8076L43.0049 73.5078H44.2354L45.5752 77.8076C45.8304 78.5915 46.0036 79.25 46.0947 79.7832H46.1494C46.1676 79.6191 46.2155 79.3662 46.293 79.0244C46.375 78.6826 46.8512 76.8438 47.7217 73.5078H48.8975L46.8262 81H45.4795ZM56.7246 77.2471C56.7246 78.4684 56.417 79.4232 55.8018 80.1113C55.1865 80.7949 54.3366 81.1367 53.252 81.1367C52.582 81.1367 51.9873 80.9795 51.4678 80.665C50.9482 80.3506 50.5472 79.8994 50.2646 79.3115C49.9821 78.7236 49.8408 78.0355 49.8408 77.2471C49.8408 76.0257 50.1462 75.0755 50.7568 74.3965C51.3675 73.7129 52.2152 73.3711 53.2998 73.3711C54.348 73.3711 55.1797 73.7197 55.7949 74.417C56.4147 75.1143 56.7246 76.0576 56.7246 77.2471ZM51.0166 77.2471C51.0166 78.2041 51.208 78.9333 51.5908 79.4346C51.9736 79.9359 52.5365 80.1865 53.2793 80.1865C54.0221 80.1865 54.585 79.9382 54.9678 79.4414C55.3551 78.9401 55.5488 78.2087 55.5488 77.2471C55.5488 76.2946 55.3551 75.5723 54.9678 75.0801C54.585 74.5833 54.0176 74.335 53.2656 74.335C52.5228 74.335 51.9622 74.5788 51.584 75.0664C51.2057 75.554 51.0166 76.2809 51.0166 77.2471Z" fill="#807E7E"/>
<path d="M1.37402 113V103.006H2.53613V111.947H6.94531V113H1.37402ZM9.61133 113H8.47656V105.508H9.61133V113ZM8.38086 103.478C8.38086 103.218 8.44466 103.029 8.57227 102.91C8.69987 102.787 8.85938 102.726 9.05078 102.726C9.23307 102.726 9.3903 102.787 9.52246 102.91C9.65462 103.033 9.7207 103.222 9.7207 103.478C9.7207 103.733 9.65462 103.924 9.52246 104.052C9.3903 104.175 9.23307 104.236 9.05078 104.236C8.85938 104.236 8.69987 104.175 8.57227 104.052C8.44466 103.924 8.38086 103.733 8.38086 103.478ZM17.1445 113V108.153C17.1445 107.543 17.0055 107.087 16.7275 106.786C16.4495 106.485 16.0143 106.335 15.4219 106.335C14.638 106.335 14.0638 106.547 13.6992 106.971C13.3346 107.395 13.1523 108.094 13.1523 109.069V113H12.0176V105.508H12.9404L13.125 106.533H13.1797C13.4121 106.164 13.738 105.879 14.1572 105.679C14.5765 105.474 15.0436 105.371 15.5586 105.371C16.4609 105.371 17.14 105.59 17.5957 106.027C18.0514 106.46 18.2793 107.155 18.2793 108.112V113H17.1445ZM21.7383 109.165C21.9342 108.887 22.2327 108.522 22.6338 108.071L25.0537 105.508H26.4004L23.3652 108.7L26.6123 113H25.2383L22.5928 109.459L21.7383 110.197V113H20.6172V102.363H21.7383V108.003C21.7383 108.254 21.7201 108.641 21.6836 109.165H21.7383ZM34.8564 113H33.6943V104.038H30.5293V103.006H38.0215V104.038H34.8564V113ZM44.4883 113V108.153C44.4883 107.543 44.3493 107.087 44.0713 106.786C43.7933 106.485 43.3581 106.335 42.7656 106.335C41.9772 106.335 41.4007 106.549 41.0361 106.978C40.6761 107.406 40.4961 108.108 40.4961 109.083V113H39.3613V102.363H40.4961V105.583C40.4961 105.97 40.4779 106.292 40.4414 106.547H40.5098C40.7331 106.187 41.0498 105.904 41.46 105.699C41.8747 105.49 42.3464 105.385 42.875 105.385C43.791 105.385 44.4769 105.604 44.9326 106.041C45.3929 106.474 45.623 107.164 45.623 108.112V113H44.4883ZM51.3789 105.371C51.7116 105.371 52.0101 105.398 52.2744 105.453L52.1172 106.506C51.8073 106.438 51.5339 106.403 51.2969 106.403C50.6908 106.403 50.1712 106.649 49.7383 107.142C49.3099 107.634 49.0957 108.247 49.0957 108.98V113H47.9609V105.508H48.8975L49.0273 106.896H49.082C49.36 106.408 49.695 106.032 50.0869 105.768C50.4788 105.503 50.9095 105.371 51.3789 105.371ZM56.8408 113.137C55.7334 113.137 54.8584 112.799 54.2158 112.125C53.5778 111.451 53.2588 110.514 53.2588 109.315C53.2588 108.108 53.555 107.148 54.1475 106.438C54.7445 105.727 55.5443 105.371 56.5469 105.371C57.4857 105.371 58.2285 105.681 58.7754 106.301C59.3223 106.916 59.5957 107.729 59.5957 108.741V109.459H54.4346C54.4574 110.339 54.6784 111.006 55.0977 111.462C55.5215 111.918 56.1162 112.146 56.8818 112.146C57.6885 112.146 58.486 111.977 59.2744 111.64V112.651C58.8734 112.825 58.4928 112.948 58.1328 113.021C57.7773 113.098 57.3467 113.137 56.8408 113.137ZM56.5332 106.321C55.9316 106.321 55.4508 106.517 55.0908 106.909C54.7354 107.301 54.5257 107.843 54.4619 108.536H58.3789C58.3789 107.821 58.2194 107.274 57.9004 106.896C57.5814 106.513 57.1257 106.321 56.5332 106.321ZM64.7021 113.137C63.5947 113.137 62.7197 112.799 62.0771 112.125C61.4391 111.451 61.1201 110.514 61.1201 109.315C61.1201 108.108 61.4163 107.148 62.0088 106.438C62.6058 105.727 63.4056 105.371 64.4082 105.371C65.347 105.371 66.0898 105.681 66.6367 106.301C67.1836 106.916 67.457 107.729 67.457 108.741V109.459H62.2959C62.3187 110.339 62.5397 111.006 62.959 111.462C63.3828 111.918 63.9775 112.146 64.7432 112.146C65.5498 112.146 66.3473 111.977 67.1357 111.64V112.651C66.7347 112.825 66.3542 112.948 65.9941 113.021C65.6387 113.098 65.208 113.137 64.7021 113.137ZM64.3945 106.321C63.793 106.321 63.3122 106.517 62.9521 106.909C62.5967 107.301 62.387 107.843 62.3232 108.536H66.2402C66.2402 107.821 66.0807 107.274 65.7617 106.896C65.4427 106.513 64.987 106.321 64.3945 106.321Z" fill="#807E7E"/>
<path d="M1.37402 145V135.006H2.53613V143.947H6.94531V145H1.37402ZM9.61133 145H8.47656V137.508H9.61133V145ZM8.38086 135.478C8.38086 135.218 8.44466 135.029 8.57227 134.91C8.69987 134.787 8.85938 134.726 9.05078 134.726C9.23307 134.726 9.3903 134.787 9.52246 134.91C9.65462 135.033 9.7207 135.222 9.7207 135.478C9.7207 135.733 9.65462 135.924 9.52246 136.052C9.3903 136.175 9.23307 136.236 9.05078 136.236C8.85938 136.236 8.69987 136.175 8.57227 136.052C8.44466 135.924 8.38086 135.733 8.38086 135.478ZM17.1445 145V140.153C17.1445 139.543 17.0055 139.087 16.7275 138.786C16.4495 138.485 16.0143 138.335 15.4219 138.335C14.638 138.335 14.0638 138.547 13.6992 138.971C13.3346 139.395 13.1523 140.094 13.1523 141.069V145H12.0176V137.508H12.9404L13.125 138.533H13.1797C13.4121 138.164 13.738 137.879 14.1572 137.679C14.5765 137.474 15.0436 137.371 15.5586 137.371C16.4609 137.371 17.14 137.59 17.5957 138.027C18.0514 138.46 18.2793 139.155 18.2793 140.112V145H17.1445ZM21.7383 141.165C21.9342 140.887 22.2327 140.522 22.6338 140.071L25.0537 137.508H26.4004L23.3652 140.7L26.6123 145H25.2383L22.5928 141.459L21.7383 142.197V145H20.6172V134.363H21.7383V140.003C21.7383 140.254 21.7201 140.641 21.6836 141.165H21.7383ZM32.9424 145H31.7803V135.006H37.3516V136.038H32.9424V139.695H37.085V140.728H32.9424V145ZM45.3086 141.247C45.3086 142.468 45.001 143.423 44.3857 144.111C43.7705 144.795 42.9206 145.137 41.8359 145.137C41.166 145.137 40.5713 144.979 40.0518 144.665C39.5322 144.351 39.1312 143.899 38.8486 143.312C38.5661 142.724 38.4248 142.035 38.4248 141.247C38.4248 140.026 38.7301 139.076 39.3408 138.396C39.9515 137.713 40.7992 137.371 41.8838 137.371C42.932 137.371 43.7637 137.72 44.3789 138.417C44.9987 139.114 45.3086 140.058 45.3086 141.247ZM39.6006 141.247C39.6006 142.204 39.792 142.933 40.1748 143.435C40.5576 143.936 41.1204 144.187 41.8633 144.187C42.6061 144.187 43.1689 143.938 43.5518 143.441C43.9391 142.94 44.1328 142.209 44.1328 141.247C44.1328 140.295 43.9391 139.572 43.5518 139.08C43.1689 138.583 42.6016 138.335 41.8496 138.335C41.1068 138.335 40.5462 138.579 40.168 139.066C39.7897 139.554 39.6006 140.281 39.6006 141.247ZM48.3711 137.508V142.368C48.3711 142.979 48.5101 143.435 48.7881 143.735C49.0661 144.036 49.5013 144.187 50.0938 144.187C50.8776 144.187 51.4495 143.972 51.8096 143.544C52.1742 143.116 52.3564 142.416 52.3564 141.445V137.508H53.4912V145H52.5547L52.3906 143.995H52.3291C52.0967 144.364 51.7731 144.647 51.3584 144.843C50.9482 145.039 50.4788 145.137 49.9502 145.137C49.0387 145.137 48.3551 144.92 47.8994 144.487C47.4482 144.054 47.2227 143.362 47.2227 142.409V137.508H48.3711ZM59.3223 137.371C59.6549 137.371 59.9535 137.398 60.2178 137.453L60.0605 138.506C59.7507 138.438 59.4772 138.403 59.2402 138.403C58.6341 138.403 58.1146 138.649 57.6816 139.142C57.2533 139.634 57.0391 140.247 57.0391 140.98V145H55.9043V137.508H56.8408L56.9707 138.896H57.0254C57.3034 138.408 57.6383 138.032 58.0303 137.768C58.4222 137.503 58.8529 137.371 59.3223 137.371Z" fill="#807E7E"/>
</svg>
