<svg width="165" height="152" viewBox="0 0 165 152" fill="none" xmlns="http://www.w3.org/2000/svg">
<path d="M7.15723 14.2246C7.15723 15.127 6.83138 15.8379 6.17969 16.3574C5.53255 16.877 4.63021 17.1367 3.47266 17.1367C2.40625 17.1367 1.46289 16.9362 0.642578 16.5352V14.5664C1.31706 14.8672 1.88672 15.0791 2.35156 15.2021C2.82096 15.3252 3.24935 15.3867 3.63672 15.3867C4.10156 15.3867 4.45703 15.2979 4.70312 15.1201C4.95378 14.9424 5.0791 14.6781 5.0791 14.3271C5.0791 14.1312 5.02441 13.958 4.91504 13.8076C4.80566 13.6527 4.64388 13.5046 4.42969 13.3633C4.22005 13.222 3.78939 12.9964 3.1377 12.6865C2.52702 12.3994 2.06901 12.1237 1.76367 11.8594C1.45833 11.5951 1.21452 11.2874 1.03223 10.9365C0.849935 10.5856 0.758789 10.1755 0.758789 9.70605C0.758789 8.82194 1.05729 8.12695 1.6543 7.62109C2.25586 7.11523 3.08529 6.8623 4.14258 6.8623C4.66211 6.8623 5.15658 6.92383 5.62598 7.04688C6.09993 7.16992 6.5944 7.3431 7.10938 7.56641L6.42578 9.21387C5.89258 8.99512 5.45052 8.84245 5.09961 8.75586C4.75326 8.66927 4.41146 8.62598 4.07422 8.62598C3.67318 8.62598 3.36556 8.7194 3.15137 8.90625C2.93717 9.0931 2.83008 9.33691 2.83008 9.6377C2.83008 9.82454 2.87337 9.98861 2.95996 10.1299C3.04655 10.2666 3.18327 10.401 3.37012 10.5332C3.56152 10.6608 4.01042 10.8932 4.7168 11.2305C5.65104 11.6771 6.29134 12.126 6.6377 12.5771C6.98405 13.0238 7.15723 13.5729 7.15723 14.2246ZM11.9697 10.6973C11.5277 10.6973 11.1813 10.8385 10.9307 11.1211C10.68 11.3991 10.5365 11.7956 10.5 12.3105H13.4258C13.4167 11.7956 13.2822 11.3991 13.0225 11.1211C12.7627 10.8385 12.4118 10.6973 11.9697 10.6973ZM12.2637 17.1367C11.0332 17.1367 10.0716 16.7972 9.37891 16.1182C8.6862 15.4391 8.33984 14.4775 8.33984 13.2334C8.33984 11.9528 8.65885 10.9639 9.29688 10.2666C9.93945 9.56478 10.8258 9.21387 11.9561 9.21387C13.0361 9.21387 13.877 9.52148 14.4785 10.1367C15.0801 10.752 15.3809 11.6019 15.3809 12.6865V13.6982H10.4521C10.4749 14.2907 10.6504 14.7533 10.9785 15.0859C11.3066 15.4186 11.7669 15.585 12.3594 15.585C12.8197 15.585 13.2549 15.5371 13.665 15.4414C14.0752 15.3457 14.5036 15.193 14.9502 14.9834V16.5967C14.5856 16.779 14.196 16.9134 13.7812 17C13.3665 17.0911 12.8607 17.1367 12.2637 17.1367ZM20.1797 17.1367C17.8008 17.1367 16.6113 15.8311 16.6113 13.2197C16.6113 11.9209 16.9349 10.9297 17.582 10.2461C18.2292 9.55794 19.1566 9.21387 20.3643 9.21387C21.2484 9.21387 22.0413 9.38704 22.7432 9.7334L22.1279 11.3467C21.7998 11.2145 21.4945 11.1074 21.2119 11.0254C20.9294 10.9388 20.6468 10.8955 20.3643 10.8955C19.2796 10.8955 18.7373 11.6657 18.7373 13.2061C18.7373 14.7008 19.2796 15.4482 20.3643 15.4482C20.7653 15.4482 21.1367 15.3958 21.4785 15.291C21.8203 15.1816 22.1621 15.013 22.5039 14.7852V16.5693C22.1667 16.7835 21.8249 16.9316 21.4785 17.0137C21.1367 17.0957 20.7038 17.1367 20.1797 17.1367ZM25.9424 13.165C25.9424 13.9215 26.0654 14.4935 26.3115 14.8809C26.5622 15.2682 26.9678 15.4619 27.5283 15.4619C28.0843 15.4619 28.4831 15.2705 28.7246 14.8877C28.9707 14.5003 29.0938 13.9261 29.0938 13.165C29.0938 12.4085 28.9707 11.8411 28.7246 11.4629C28.4785 11.0846 28.0752 10.8955 27.5146 10.8955C26.9587 10.8955 26.5576 11.0846 26.3115 11.4629C26.0654 11.8366 25.9424 12.404 25.9424 13.165ZM31.2266 13.165C31.2266 14.4092 30.8984 15.3822 30.2422 16.084C29.5859 16.7858 28.6722 17.1367 27.501 17.1367C26.7673 17.1367 26.1201 16.9772 25.5596 16.6582C24.999 16.3346 24.5684 15.8721 24.2676 15.2705C23.9668 14.6689 23.8164 13.9671 23.8164 13.165C23.8164 11.9163 24.1423 10.9456 24.7939 10.2529C25.4456 9.56022 26.3617 9.21387 27.542 9.21387C28.2757 9.21387 28.9229 9.37337 29.4834 9.69238C30.0439 10.0114 30.4746 10.4694 30.7754 11.0664C31.0762 11.6634 31.2266 12.363 31.2266 13.165ZM40.0039 17H37.9189V12.5361C37.9189 11.9847 37.821 11.5723 37.625 11.2988C37.429 11.0208 37.1169 10.8818 36.6885 10.8818C36.1051 10.8818 35.6836 11.0778 35.4238 11.4697C35.1641 11.8571 35.0342 12.502 35.0342 13.4043V17H32.9492V9.35742H34.542L34.8223 10.335H34.9385C35.1709 9.96582 35.4899 9.68783 35.8955 9.50098C36.3057 9.30957 36.7705 9.21387 37.29 9.21387C38.1787 9.21387 38.8532 9.4554 39.3135 9.93848C39.7738 10.417 40.0039 11.1097 40.0039 12.0166V17ZM44.5703 17.1367C43.6725 17.1367 42.9661 16.7881 42.4512 16.0908C41.9408 15.3936 41.6855 14.4274 41.6855 13.1924C41.6855 11.9391 41.9453 10.9639 42.4648 10.2666C42.9889 9.56478 43.709 9.21387 44.625 9.21387C45.5866 9.21387 46.3203 9.58757 46.8262 10.335H46.8945C46.7897 9.7653 46.7373 9.25716 46.7373 8.81055V6.36328H48.8291V17H47.2295L46.8262 16.0088H46.7373C46.2633 16.7607 45.541 17.1367 44.5703 17.1367ZM45.3018 15.4756C45.835 15.4756 46.2246 15.3206 46.4707 15.0107C46.7214 14.7008 46.8581 14.1745 46.8809 13.4316V13.2061C46.8809 12.3857 46.7533 11.7979 46.498 11.4424C46.2474 11.0869 45.8372 10.9092 45.2676 10.9092C44.8027 10.9092 44.4404 11.1074 44.1807 11.5039C43.9255 11.8958 43.7979 12.4678 43.7979 13.2197C43.7979 13.9717 43.9277 14.5368 44.1875 14.915C44.4473 15.2887 44.8187 15.4756 45.3018 15.4756ZM59.0557 8.62598C58.2581 8.62598 57.6406 8.92676 57.2031 9.52832C56.7656 10.1253 56.5469 10.9593 56.5469 12.0303C56.5469 14.2588 57.3831 15.373 59.0557 15.373C59.7575 15.373 60.6074 15.1976 61.6055 14.8467V16.624C60.7852 16.9658 59.8691 17.1367 58.8574 17.1367C57.4036 17.1367 56.2917 16.6969 55.5215 15.8174C54.7513 14.9333 54.3662 13.6663 54.3662 12.0166C54.3662 10.9775 54.5553 10.0684 54.9336 9.28906C55.3118 8.50521 55.8542 7.90592 56.5605 7.49121C57.2715 7.07194 58.1032 6.8623 59.0557 6.8623C60.0264 6.8623 61.0016 7.09701 61.9814 7.56641L61.2979 9.28906C60.9242 9.11133 60.5482 8.95638 60.1699 8.82422C59.7917 8.69206 59.4202 8.62598 59.0557 8.62598ZM65.2354 13.165C65.2354 13.9215 65.3584 14.4935 65.6045 14.8809C65.8551 15.2682 66.2607 15.4619 66.8213 15.4619C67.3773 15.4619 67.776 15.2705 68.0176 14.8877C68.2637 14.5003 68.3867 13.9261 68.3867 13.165C68.3867 12.4085 68.2637 11.8411 68.0176 11.4629C67.7715 11.0846 67.3682 10.8955 66.8076 10.8955C66.2516 10.8955 65.8506 11.0846 65.6045 11.4629C65.3584 11.8366 65.2354 12.404 65.2354 13.165ZM70.5195 13.165C70.5195 14.4092 70.1914 15.3822 69.5352 16.084C68.8789 16.7858 67.9652 17.1367 66.7939 17.1367C66.0602 17.1367 65.4131 16.9772 64.8525 16.6582C64.292 16.3346 63.8613 15.8721 63.5605 15.2705C63.2598 14.6689 63.1094 13.9671 63.1094 13.165C63.1094 11.9163 63.4352 10.9456 64.0869 10.2529C64.7386 9.56022 65.6546 9.21387 66.835 9.21387C67.5687 9.21387 68.2158 9.37337 68.7764 9.69238C69.3369 10.0114 69.7676 10.4694 70.0684 11.0664C70.3691 11.6634 70.5195 12.363 70.5195 13.165ZM74.3271 17H72.2422V6.36328H74.3271V17ZM81.9355 17L81.6553 16.0225H81.5459C81.3226 16.3779 81.0059 16.6536 80.5957 16.8496C80.1855 17.041 79.7184 17.1367 79.1943 17.1367C78.2965 17.1367 77.6198 16.8975 77.1641 16.4189C76.7083 15.9359 76.4805 15.2432 76.4805 14.3408V9.35742H78.5654V13.8213C78.5654 14.3727 78.6634 14.7874 78.8594 15.0654C79.0553 15.3389 79.3675 15.4756 79.7959 15.4756C80.3792 15.4756 80.8008 15.2819 81.0605 14.8945C81.3203 14.5026 81.4502 13.8555 81.4502 12.9531V9.35742H83.5352V17H81.9355ZM92.5654 17H90.4805V12.5361C90.4805 11.9847 90.387 11.5723 90.2002 11.2988C90.0179 11.0208 89.7285 10.8818 89.332 10.8818C88.7988 10.8818 88.4115 11.0778 88.1699 11.4697C87.9284 11.8617 87.8076 12.5065 87.8076 13.4043V17H85.7227V9.35742H87.3154L87.5957 10.335H87.7119C87.917 9.98405 88.2132 9.71061 88.6006 9.51465C88.988 9.31413 89.4323 9.21387 89.9336 9.21387C91.0775 9.21387 91.8522 9.58757 92.2578 10.335H92.4424C92.6475 9.97949 92.9482 9.70378 93.3447 9.50781C93.7458 9.31185 94.1969 9.21387 94.6982 9.21387C95.5641 9.21387 96.2181 9.43717 96.6602 9.88379C97.1068 10.3258 97.3301 11.0368 97.3301 12.0166V17H95.2383V12.5361C95.2383 11.9847 95.1449 11.5723 94.958 11.2988C94.7757 11.0208 94.4863 10.8818 94.0898 10.8818C93.5794 10.8818 93.1966 11.0641 92.9414 11.4287C92.6908 11.7933 92.5654 12.3721 92.5654 13.165V17ZM106.531 17H104.446V12.5361C104.446 11.9847 104.348 11.5723 104.152 11.2988C103.956 11.0208 103.644 10.8818 103.216 10.8818C102.632 10.8818 102.211 11.0778 101.951 11.4697C101.691 11.8571 101.562 12.502 101.562 13.4043V17H99.4766V9.35742H101.069L101.35 10.335H101.466C101.698 9.96582 102.017 9.68783 102.423 9.50098C102.833 9.30957 103.298 9.21387 103.817 9.21387C104.706 9.21387 105.381 9.4554 105.841 9.93848C106.301 10.417 106.531 11.1097 106.531 12.0166V17Z" fill="#212121"/>
<path d="M1.37402 49V39.0059H2.53613V47.9473H6.94531V49H1.37402ZM9.61133 49H8.47656V41.5078H9.61133V49ZM8.38086 39.4775C8.38086 39.2178 8.44466 39.0286 8.57227 38.9102C8.69987 38.7871 8.85938 38.7256 9.05078 38.7256C9.23307 38.7256 9.3903 38.7871 9.52246 38.9102C9.65462 39.0332 9.7207 39.2223 9.7207 39.4775C9.7207 39.7327 9.65462 39.9242 9.52246 40.0518C9.3903 40.1748 9.23307 40.2363 9.05078 40.2363C8.85938 40.2363 8.69987 40.1748 8.57227 40.0518C8.44466 39.9242 8.38086 39.7327 8.38086 39.4775ZM17.1445 49V44.1533C17.1445 43.5426 17.0055 43.0869 16.7275 42.7861C16.4495 42.4854 16.0143 42.335 15.4219 42.335C14.638 42.335 14.0638 42.5469 13.6992 42.9707C13.3346 43.3945 13.1523 44.0941 13.1523 45.0693V49H12.0176V41.5078H12.9404L13.125 42.5332H13.1797C13.4121 42.1641 13.738 41.8792 14.1572 41.6787C14.5765 41.4736 15.0436 41.3711 15.5586 41.3711C16.4609 41.3711 17.14 41.5898 17.5957 42.0273C18.0514 42.4603 18.2793 43.1553 18.2793 44.1123V49H17.1445ZM21.7383 45.165C21.9342 44.887 22.2327 44.5225 22.6338 44.0713L25.0537 41.5078H26.4004L23.3652 44.7002L26.6123 49H25.2383L22.5928 45.459L21.7383 46.1973V49H20.6172V38.3633H21.7383V44.0029C21.7383 44.2536 21.7201 44.641 21.6836 45.165H21.7383ZM40.4551 43.9893C40.4551 45.5889 40.0495 46.8467 39.2383 47.7627C38.4316 48.6787 37.3083 49.1367 35.8682 49.1367C34.3962 49.1367 33.2591 48.6878 32.457 47.79C31.6595 46.8877 31.2607 45.6162 31.2607 43.9756C31.2607 42.3486 31.6618 41.0885 32.4639 40.1953C33.266 39.2975 34.4053 38.8486 35.8818 38.8486C37.3174 38.8486 38.4385 39.3044 39.2451 40.2158C40.0518 41.1273 40.4551 42.3851 40.4551 43.9893ZM32.4912 43.9893C32.4912 45.3428 32.7783 46.3704 33.3525 47.0723C33.9313 47.7695 34.7699 48.1182 35.8682 48.1182C36.9756 48.1182 37.8118 47.7695 38.377 47.0723C38.9421 46.375 39.2246 45.3473 39.2246 43.9893C39.2246 42.6449 38.9421 41.6263 38.377 40.9336C37.8164 40.2363 36.9847 39.8877 35.8818 39.8877C34.7744 39.8877 33.9313 40.2386 33.3525 40.9404C32.7783 41.6377 32.4912 42.654 32.4912 43.9893ZM47.6465 49V44.1533C47.6465 43.5426 47.5075 43.0869 47.2295 42.7861C46.9515 42.4854 46.5163 42.335 45.9238 42.335C45.14 42.335 44.5658 42.5469 44.2012 42.9707C43.8366 43.3945 43.6543 44.0941 43.6543 45.0693V49H42.5195V41.5078H43.4424L43.627 42.5332H43.6816C43.9141 42.1641 44.2399 41.8792 44.6592 41.6787C45.0785 41.4736 45.5456 41.3711 46.0605 41.3711C46.9629 41.3711 47.6419 41.5898 48.0977 42.0273C48.5534 42.4603 48.7812 43.1553 48.7812 44.1123V49H47.6465ZM54.2842 49.1367C53.1768 49.1367 52.3018 48.7995 51.6592 48.125C51.0212 47.4505 50.7021 46.514 50.7021 45.3154C50.7021 44.1077 50.9984 43.1484 51.5908 42.4375C52.1878 41.7266 52.9876 41.3711 53.9902 41.3711C54.929 41.3711 55.6719 41.681 56.2188 42.3008C56.7656 42.916 57.0391 43.7295 57.0391 44.7412V45.459H51.8779C51.9007 46.3385 52.1217 47.0062 52.541 47.4619C52.9648 47.9176 53.5596 48.1455 54.3252 48.1455C55.1318 48.1455 55.9294 47.9769 56.7178 47.6396V48.6514C56.3167 48.8245 55.9362 48.9476 55.5762 49.0205C55.2207 49.098 54.79 49.1367 54.2842 49.1367ZM53.9766 42.3213C53.375 42.3213 52.8942 42.5173 52.5342 42.9092C52.1787 43.3011 51.9691 43.8434 51.9053 44.5361H55.8223C55.8223 43.8206 55.6628 43.2738 55.3438 42.8955C55.0247 42.5127 54.569 42.3213 53.9766 42.3213Z" fill="#807E7E"/>
<path d="M1.37402 81V71.0059H2.53613V79.9473H6.94531V81H1.37402ZM9.61133 81H8.47656V73.5078H9.61133V81ZM8.38086 71.4775C8.38086 71.2178 8.44466 71.0286 8.57227 70.9102C8.69987 70.7871 8.85938 70.7256 9.05078 70.7256C9.23307 70.7256 9.3903 70.7871 9.52246 70.9102C9.65462 71.0332 9.7207 71.2223 9.7207 71.4775C9.7207 71.7327 9.65462 71.9242 9.52246 72.0518C9.3903 72.1748 9.23307 72.2363 9.05078 72.2363C8.85938 72.2363 8.69987 72.1748 8.57227 72.0518C8.44466 71.9242 8.38086 71.7327 8.38086 71.4775ZM17.1445 81V76.1533C17.1445 75.5426 17.0055 75.0869 16.7275 74.7861C16.4495 74.4854 16.0143 74.335 15.4219 74.335C14.638 74.335 14.0638 74.5469 13.6992 74.9707C13.3346 75.3945 13.1523 76.0941 13.1523 77.0693V81H12.0176V73.5078H12.9404L13.125 74.5332H13.1797C13.4121 74.1641 13.738 73.8792 14.1572 73.6787C14.5765 73.4736 15.0436 73.3711 15.5586 73.3711C16.4609 73.3711 17.14 73.5898 17.5957 74.0273C18.0514 74.4603 18.2793 75.1553 18.2793 76.1123V81H17.1445ZM21.7383 77.165C21.9342 76.887 22.2327 76.5225 22.6338 76.0713L25.0537 73.5078H26.4004L23.3652 76.7002L26.6123 81H25.2383L22.5928 77.459L21.7383 78.1973V81H20.6172V70.3633H21.7383V76.0029C21.7383 76.2536 21.7201 76.641 21.6836 77.165H21.7383ZM34.8564 81H33.6943V72.0381H30.5293V71.0059H38.0215V72.0381H34.8564V81ZM45.4795 81L44.1055 76.6045C44.0189 76.3356 43.8571 75.7249 43.6201 74.7725H43.5654C43.3831 75.57 43.2236 76.1852 43.0869 76.6182L41.6719 81H40.3594L38.3154 73.5078H39.5049C39.988 75.39 40.3548 76.8232 40.6055 77.8076C40.8607 78.792 41.0065 79.4551 41.043 79.7969H41.0977C41.1478 79.5371 41.2275 79.2021 41.3369 78.792C41.4508 78.3773 41.5488 78.0492 41.6309 77.8076L43.0049 73.5078H44.2354L45.5752 77.8076C45.8304 78.5915 46.0036 79.25 46.0947 79.7832H46.1494C46.1676 79.6191 46.2155 79.3662 46.293 79.0244C46.375 78.6826 46.8512 76.8438 47.7217 73.5078H48.8975L46.8262 81H45.4795ZM56.7246 77.2471C56.7246 78.4684 56.417 79.4232 55.8018 80.1113C55.1865 80.7949 54.3366 81.1367 53.252 81.1367C52.582 81.1367 51.9873 80.9795 51.4678 80.665C50.9482 80.3506 50.5472 79.8994 50.2646 79.3115C49.9821 78.7236 49.8408 78.0355 49.8408 77.2471C49.8408 76.0257 50.1462 75.0755 50.7568 74.3965C51.3675 73.7129 52.2152 73.3711 53.2998 73.3711C54.348 73.3711 55.1797 73.7197 55.7949 74.417C56.4147 75.1143 56.7246 76.0576 56.7246 77.2471ZM51.0166 77.2471C51.0166 78.2041 51.208 78.9333 51.5908 79.4346C51.9736 79.9359 52.5365 80.1865 53.2793 80.1865C54.0221 80.1865 54.585 79.9382 54.9678 79.4414C55.3551 78.9401 55.5488 78.2087 55.5488 77.2471C55.5488 76.2946 55.3551 75.5723 54.9678 75.0801C54.585 74.5833 54.0176 74.335 53.2656 74.335C52.5228 74.335 51.9622 74.5788 51.584 75.0664C51.2057 75.554 51.0166 76.2809 51.0166 77.2471Z" fill="#807E7E"/>
<path d="M1.37402 113V103.006H2.53613V111.947H6.94531V113H1.37402ZM9.61133 113H8.47656V105.508H9.61133V113ZM8.38086 103.478C8.38086 103.218 8.44466 103.029 8.57227 102.91C8.69987 102.787 8.85938 102.726 9.05078 102.726C9.23307 102.726 9.3903 102.787 9.52246 102.91C9.65462 103.033 9.7207 103.222 9.7207 103.478C9.7207 103.733 9.65462 103.924 9.52246 104.052C9.3903 104.175 9.23307 104.236 9.05078 104.236C8.85938 104.236 8.69987 104.175 8.57227 104.052C8.44466 103.924 8.38086 103.733 8.38086 103.478ZM17.1445 113V108.153C17.1445 107.543 17.0055 107.087 16.7275 106.786C16.4495 106.485 16.0143 106.335 15.4219 106.335C14.638 106.335 14.0638 106.547 13.6992 106.971C13.3346 107.395 13.1523 108.094 13.1523 109.069V113H12.0176V105.508H12.9404L13.125 106.533H13.1797C13.4121 106.164 13.738 105.879 14.1572 105.679C14.5765 105.474 15.0436 105.371 15.5586 105.371C16.4609 105.371 17.14 105.59 17.5957 106.027C18.0514 106.46 18.2793 107.155 18.2793 108.112V113H17.1445ZM21.7383 109.165C21.9342 108.887 22.2327 108.522 22.6338 108.071L25.0537 105.508H26.4004L23.3652 108.7L26.6123 113H25.2383L22.5928 109.459L21.7383 110.197V113H20.6172V102.363H21.7383V108.003C21.7383 108.254 21.7201 108.641 21.6836 109.165H21.7383ZM34.8564 113H33.6943V104.038H30.5293V103.006H38.0215V104.038H34.8564V113ZM44.4883 113V108.153C44.4883 107.543 44.3493 107.087 44.0713 106.786C43.7933 106.485 43.3581 106.335 42.7656 106.335C41.9772 106.335 41.4007 106.549 41.0361 106.978C40.6761 107.406 40.4961 108.108 40.4961 109.083V113H39.3613V102.363H40.4961V105.583C40.4961 105.97 40.4779 106.292 40.4414 106.547H40.5098C40.7331 106.187 41.0498 105.904 41.46 105.699C41.8747 105.49 42.3464 105.385 42.875 105.385C43.791 105.385 44.4769 105.604 44.9326 106.041C45.3929 106.474 45.623 107.164 45.623 108.112V113H44.4883ZM51.3789 105.371C51.7116 105.371 52.0101 105.398 52.2744 105.453L52.1172 106.506C51.8073 106.438 51.5339 106.403 51.2969 106.403C50.6908 106.403 50.1712 106.649 49.7383 107.142C49.3099 107.634 49.0957 108.247 49.0957 108.98V113H47.9609V105.508H48.8975L49.0273 106.896H49.082C49.36 106.408 49.695 106.032 50.0869 105.768C50.4788 105.503 50.9095 105.371 51.3789 105.371ZM56.8408 113.137C55.7334 113.137 54.8584 112.799 54.2158 112.125C53.5778 111.451 53.2588 110.514 53.2588 109.315C53.2588 108.108 53.555 107.148 54.1475 106.438C54.7445 105.727 55.5443 105.371 56.5469 105.371C57.4857 105.371 58.2285 105.681 58.7754 106.301C59.3223 106.916 59.5957 107.729 59.5957 108.741V109.459H54.4346C54.4574 110.339 54.6784 111.006 55.0977 111.462C55.5215 111.918 56.1162 112.146 56.8818 112.146C57.6885 112.146 58.486 111.977 59.2744 111.64V112.651C58.8734 112.825 58.4928 112.948 58.1328 113.021C57.7773 113.098 57.3467 113.137 56.8408 113.137ZM56.5332 106.321C55.9316 106.321 55.4508 106.517 55.0908 106.909C54.7354 107.301 54.5257 107.843 54.4619 108.536H58.3789C58.3789 107.821 58.2194 107.274 57.9004 106.896C57.5814 106.513 57.1257 106.321 56.5332 106.321ZM64.7021 113.137C63.5947 113.137 62.7197 112.799 62.0771 112.125C61.4391 111.451 61.1201 110.514 61.1201 109.315C61.1201 108.108 61.4163 107.148 62.0088 106.438C62.6058 105.727 63.4056 105.371 64.4082 105.371C65.347 105.371 66.0898 105.681 66.6367 106.301C67.1836 106.916 67.457 107.729 67.457 108.741V109.459H62.2959C62.3187 110.339 62.5397 111.006 62.959 111.462C63.3828 111.918 63.9775 112.146 64.7432 112.146C65.5498 112.146 66.3473 111.977 67.1357 111.64V112.651C66.7347 112.825 66.3542 112.948 65.9941 113.021C65.6387 113.098 65.208 113.137 64.7021 113.137ZM64.3945 106.321C63.793 106.321 63.3122 106.517 62.9521 106.909C62.5967 107.301 62.387 107.843 62.3232 108.536H66.2402C66.2402 107.821 66.0807 107.274 65.7617 106.896C65.4427 106.513 64.987 106.321 64.3945 106.321Z" fill="#807E7E"/>
<path d="M1.37402 145V135.006H2.53613V143.947H6.94531V145H1.37402ZM9.61133 145H8.47656V137.508H9.61133V145ZM8.38086 135.478C8.38086 135.218 8.44466 135.029 8.57227 134.91C8.69987 134.787 8.85938 134.726 9.05078 134.726C9.23307 134.726 9.3903 134.787 9.52246 134.91C9.65462 135.033 9.7207 135.222 9.7207 135.478C9.7207 135.733 9.65462 135.924 9.52246 136.052C9.3903 136.175 9.23307 136.236 9.05078 136.236C8.85938 136.236 8.69987 136.175 8.57227 136.052C8.44466 135.924 8.38086 135.733 8.38086 135.478ZM17.1445 145V140.153C17.1445 139.543 17.0055 139.087 16.7275 138.786C16.4495 138.485 16.0143 138.335 15.4219 138.335C14.638 138.335 14.0638 138.547 13.6992 138.971C13.3346 139.395 13.1523 140.094 13.1523 141.069V145H12.0176V137.508H12.9404L13.125 138.533H13.1797C13.4121 138.164 13.738 137.879 14.1572 137.679C14.5765 137.474 15.0436 137.371 15.5586 137.371C16.4609 137.371 17.14 137.59 17.5957 138.027C18.0514 138.46 18.2793 139.155 18.2793 140.112V145H17.1445ZM21.7383 141.165C21.9342 140.887 22.2327 140.522 22.6338 140.071L25.0537 137.508H26.4004L23.3652 140.7L26.6123 145H25.2383L22.5928 141.459L21.7383 142.197V145H20.6172V134.363H21.7383V140.003C21.7383 140.254 21.7201 140.641 21.6836 141.165H21.7383ZM32.9424 145H31.7803V135.006H37.3516V136.038H32.9424V139.695H37.085V140.728H32.9424V145ZM45.3086 141.247C45.3086 142.468 45.001 143.423 44.3857 144.111C43.7705 144.795 42.9206 145.137 41.8359 145.137C41.166 145.137 40.5713 144.979 40.0518 144.665C39.5322 144.351 39.1312 143.899 38.8486 143.312C38.5661 142.724 38.4248 142.035 38.4248 141.247C38.4248 140.026 38.7301 139.076 39.3408 138.396C39.9515 137.713 40.7992 137.371 41.8838 137.371C42.932 137.371 43.7637 137.72 44.3789 138.417C44.9987 139.114 45.3086 140.058 45.3086 141.247ZM39.6006 141.247C39.6006 142.204 39.792 142.933 40.1748 143.435C40.5576 143.936 41.1204 144.187 41.8633 144.187C42.6061 144.187 43.1689 143.938 43.5518 143.441C43.9391 142.94 44.1328 142.209 44.1328 141.247C44.1328 140.295 43.9391 139.572 43.5518 139.08C43.1689 138.583 42.6016 138.335 41.8496 138.335C41.1068 138.335 40.5462 138.579 40.168 139.066C39.7897 139.554 39.6006 140.281 39.6006 141.247ZM48.3711 137.508V142.368C48.3711 142.979 48.5101 143.435 48.7881 143.735C49.0661 144.036 49.5013 144.187 50.0938 144.187C50.8776 144.187 51.4495 143.972 51.8096 143.544C52.1742 143.116 52.3564 142.416 52.3564 141.445V137.508H53.4912V145H52.5547L52.3906 143.995H52.3291C52.0967 144.364 51.7731 144.647 51.3584 144.843C50.9482 145.039 50.4788 145.137 49.9502 145.137C49.0387 145.137 48.3551 144.92 47.8994 144.487C47.4482 144.054 47.2227 143.362 47.2227 142.409V137.508H48.3711ZM59.3223 137.371C59.6549 137.371 59.9535 137.398 60.2178 137.453L60.0605 138.506C59.7507 138.438 59.4772 138.403 59.2402 138.403C58.6341 138.403 58.1146 138.649 57.6816 139.142C57.2533 139.634 57.0391 140.247 57.0391 140.98V145H55.9043V137.508H56.8408L56.9707 138.896H57.0254C57.3034 138.408 57.6383 138.032 58.0303 137.768C58.4222 137.503 58.8529 137.371 59.3223 137.371Z" fill="#807E7E"/>
</svg>
