<svg width="1110" height="152" viewBox="0 0 1110 152" fill="none" xmlns="http://www.w3.org/2000/svg">
<path d="M3.34277 17H1.25781V7.00586H6.98633V8.74219H3.34277V11.3193H6.7334V13.0488H3.34277V17ZM8.68848 7.38184C8.68848 6.7028 9.06673 6.36328 9.82324 6.36328C10.5798 6.36328 10.958 6.7028 10.958 7.38184C10.958 7.7054 10.8623 7.95833 10.6709 8.14062C10.484 8.31836 10.2015 8.40723 9.82324 8.40723C9.06673 8.40723 8.68848 8.06543 8.68848 7.38184ZM10.8623 17H8.77734V9.35742H10.8623V17ZM17.3223 9.21387C17.6048 9.21387 17.8395 9.23438 18.0264 9.27539L17.8691 11.2305C17.7005 11.1849 17.4954 11.1621 17.2539 11.1621C16.5885 11.1621 16.069 11.333 15.6953 11.6748C15.3262 12.0166 15.1416 12.4951 15.1416 13.1104V17H13.0566V9.35742H14.6357L14.9434 10.6426H15.0459C15.2829 10.2142 15.6019 9.87012 16.0029 9.61035C16.4085 9.34603 16.8483 9.21387 17.3223 9.21387ZM24.7461 14.7305C24.7461 15.5143 24.4727 16.1113 23.9258 16.5215C23.3835 16.9316 22.57 17.1367 21.4854 17.1367C20.9294 17.1367 20.4554 17.098 20.0635 17.0205C19.6715 16.9476 19.3047 16.8382 18.9629 16.6924V14.9697C19.3503 15.152 19.7855 15.3047 20.2686 15.4277C20.7562 15.5508 21.1846 15.6123 21.5537 15.6123C22.3102 15.6123 22.6885 15.3936 22.6885 14.9561C22.6885 14.792 22.6383 14.6598 22.5381 14.5596C22.4378 14.4548 22.2646 14.3385 22.0186 14.2109C21.7725 14.0788 21.4443 13.9261 21.0342 13.7529C20.4463 13.5068 20.0133 13.279 19.7354 13.0693C19.4619 12.8597 19.2614 12.6204 19.1338 12.3516C19.0107 12.0781 18.9492 11.7432 18.9492 11.3467C18.9492 10.6676 19.2113 10.1436 19.7354 9.77441C20.264 9.40072 21.0114 9.21387 21.9775 9.21387C22.8981 9.21387 23.7936 9.41439 24.6641 9.81543L24.0352 11.3193C23.6523 11.1553 23.2946 11.0208 22.9619 10.916C22.6292 10.8112 22.2897 10.7588 21.9434 10.7588C21.3281 10.7588 21.0205 10.9251 21.0205 11.2578C21.0205 11.4447 21.1185 11.6064 21.3145 11.7432C21.515 11.8799 21.9502 12.0827 22.6201 12.3516C23.2171 12.5931 23.6546 12.8187 23.9326 13.0283C24.2106 13.238 24.4157 13.4795 24.5479 13.7529C24.68 14.0264 24.7461 14.3522 24.7461 14.7305ZM29.5928 15.4756C29.9574 15.4756 30.3949 15.3958 30.9053 15.2363V16.7881C30.3857 17.0205 29.7477 17.1367 28.9912 17.1367C28.1572 17.1367 27.5488 16.9271 27.166 16.5078C26.7878 16.084 26.5986 15.4505 26.5986 14.6074V10.9229H25.6006V10.041L26.749 9.34375L27.3506 7.73047H28.6836V9.35742H30.8232V10.9229H28.6836V14.6074C28.6836 14.9036 28.7656 15.1224 28.9297 15.2637C29.0983 15.4049 29.3193 15.4756 29.5928 15.4756ZM40.5029 8.62598C39.7054 8.62598 39.0879 8.92676 38.6504 9.52832C38.2129 10.1253 37.9941 10.9593 37.9941 12.0303C37.9941 14.2588 38.8304 15.373 40.5029 15.373C41.2048 15.373 42.0547 15.1976 43.0527 14.8467V16.624C42.2324 16.9658 41.3164 17.1367 40.3047 17.1367C38.8509 17.1367 37.7389 16.6969 36.9688 15.8174C36.1986 14.9333 35.8135 13.6663 35.8135 12.0166C35.8135 10.9775 36.0026 10.0684 36.3809 9.28906C36.7591 8.50521 37.3014 7.90592 38.0078 7.49121C38.7188 7.07194 39.5505 6.8623 40.5029 6.8623C41.4736 6.8623 42.4489 7.09701 43.4287 7.56641L42.7451 9.28906C42.3714 9.11133 41.9954 8.95638 41.6172 8.82422C41.2389 8.69206 40.8675 8.62598 40.5029 8.62598ZM46.6826 13.165C46.6826 13.9215 46.8057 14.4935 47.0518 14.8809C47.3024 15.2682 47.708 15.4619 48.2686 15.4619C48.8245 15.4619 49.2233 15.2705 49.4648 14.8877C49.7109 14.5003 49.834 13.9261 49.834 13.165C49.834 12.4085 49.7109 11.8411 49.4648 11.4629C49.2188 11.0846 48.8154 10.8955 48.2549 10.8955C47.6989 10.8955 47.2979 11.0846 47.0518 11.4629C46.8057 11.8366 46.6826 12.404 46.6826 13.165ZM51.9668 13.165C51.9668 14.4092 51.6387 15.3822 50.9824 16.084C50.3262 16.7858 49.4124 17.1367 48.2412 17.1367C47.5075 17.1367 46.8604 16.9772 46.2998 16.6582C45.7393 16.3346 45.3086 15.8721 45.0078 15.2705C44.707 14.6689 44.5566 13.9671 44.5566 13.165C44.5566 11.9163 44.8825 10.9456 45.5342 10.2529C46.1859 9.56022 47.1019 9.21387 48.2822 9.21387C49.016 9.21387 49.6631 9.37337 50.2236 9.69238C50.7842 10.0114 51.2148 10.4694 51.5156 11.0664C51.8164 11.6634 51.9668 12.363 51.9668 13.165ZM55.7744 17H53.6895V6.36328H55.7744V17ZM63.3828 17L63.1025 16.0225H62.9932C62.7699 16.3779 62.4531 16.6536 62.043 16.8496C61.6328 17.041 61.1657 17.1367 60.6416 17.1367C59.7438 17.1367 59.0671 16.8975 58.6113 16.4189C58.1556 15.9359 57.9277 15.2432 57.9277 14.3408V9.35742H60.0127V13.8213C60.0127 14.3727 60.1107 14.7874 60.3066 15.0654C60.5026 15.3389 60.8148 15.4756 61.2432 15.4756C61.8265 15.4756 62.248 15.2819 62.5078 14.8945C62.7676 14.5026 62.8975 13.8555 62.8975 12.9531V9.35742H64.9824V17H63.3828ZM74.0127 17H71.9277V12.5361C71.9277 11.9847 71.8343 11.5723 71.6475 11.2988C71.4652 11.0208 71.1758 10.8818 70.7793 10.8818C70.2461 10.8818 69.8587 11.0778 69.6172 11.4697C69.3757 11.8617 69.2549 12.5065 69.2549 13.4043V17H67.1699V9.35742H68.7627L69.043 10.335H69.1592C69.3643 9.98405 69.6605 9.71061 70.0479 9.51465C70.4352 9.31413 70.8796 9.21387 71.3809 9.21387C72.5247 9.21387 73.2995 9.58757 73.7051 10.335H73.8896C74.0947 9.97949 74.3955 9.70378 74.792 9.50781C75.193 9.31185 75.6442 9.21387 76.1455 9.21387C77.0114 9.21387 77.6654 9.43717 78.1074 9.88379C78.554 10.3258 78.7773 11.0368 78.7773 12.0166V17H76.6855V12.5361C76.6855 11.9847 76.5921 11.5723 76.4053 11.2988C76.223 11.0208 75.9336 10.8818 75.5371 10.8818C75.0267 10.8818 74.6439 11.0641 74.3887 11.4287C74.138 11.7933 74.0127 12.3721 74.0127 13.165V17ZM87.9785 17H85.8936V12.5361C85.8936 11.9847 85.7956 11.5723 85.5996 11.2988C85.4036 11.0208 85.0915 10.8818 84.6631 10.8818C84.0798 10.8818 83.6582 11.0778 83.3984 11.4697C83.1387 11.8571 83.0088 12.502 83.0088 13.4043V17H80.9238V9.35742H82.5166L82.7969 10.335H82.9131C83.1455 9.96582 83.4645 9.68783 83.8701 9.50098C84.2803 9.30957 84.7451 9.21387 85.2646 9.21387C86.1533 9.21387 86.8278 9.4554 87.2881 9.93848C87.7484 10.417 87.9785 11.1097 87.9785 12.0166V17Z" fill="#212121"/>
<path d="M1.37402 49V39.0059H2.53613V47.9473H6.94531V49H1.37402ZM9.61133 49H8.47656V41.5078H9.61133V49ZM8.38086 39.4775C8.38086 39.2178 8.44466 39.0286 8.57227 38.9102C8.69987 38.7871 8.85938 38.7256 9.05078 38.7256C9.23307 38.7256 9.3903 38.7871 9.52246 38.9102C9.65462 39.0332 9.7207 39.2223 9.7207 39.4775C9.7207 39.7327 9.65462 39.9242 9.52246 40.0518C9.3903 40.1748 9.23307 40.2363 9.05078 40.2363C8.85938 40.2363 8.69987 40.1748 8.57227 40.0518C8.44466 39.9242 8.38086 39.7327 8.38086 39.4775ZM17.1445 49V44.1533C17.1445 43.5426 17.0055 43.0869 16.7275 42.7861C16.4495 42.4854 16.0143 42.335 15.4219 42.335C14.638 42.335 14.0638 42.5469 13.6992 42.9707C13.3346 43.3945 13.1523 44.0941 13.1523 45.0693V49H12.0176V41.5078H12.9404L13.125 42.5332H13.1797C13.4121 42.1641 13.738 41.8792 14.1572 41.6787C14.5765 41.4736 15.0436 41.3711 15.5586 41.3711C16.4609 41.3711 17.14 41.5898 17.5957 42.0273C18.0514 42.4603 18.2793 43.1553 18.2793 44.1123V49H17.1445ZM21.7383 45.165C21.9342 44.887 22.2327 44.5225 22.6338 44.0713L25.0537 41.5078H26.4004L23.3652 44.7002L26.6123 49H25.2383L22.5928 45.459L21.7383 46.1973V49H20.6172V38.3633H21.7383V44.0029C21.7383 44.2536 21.7201 44.641 21.6836 45.165H21.7383ZM40.4551 43.9893C40.4551 45.5889 40.0495 46.8467 39.2383 47.7627C38.4316 48.6787 37.3083 49.1367 35.8682 49.1367C34.3962 49.1367 33.2591 48.6878 32.457 47.79C31.6595 46.8877 31.2607 45.6162 31.2607 43.9756C31.2607 42.3486 31.6618 41.0885 32.4639 40.1953C33.266 39.2975 34.4053 38.8486 35.8818 38.8486C37.3174 38.8486 38.4385 39.3044 39.2451 40.2158C40.0518 41.1273 40.4551 42.3851 40.4551 43.9893ZM32.4912 43.9893C32.4912 45.3428 32.7783 46.3704 33.3525 47.0723C33.9313 47.7695 34.7699 48.1182 35.8682 48.1182C36.9756 48.1182 37.8118 47.7695 38.377 47.0723C38.9421 46.375 39.2246 45.3473 39.2246 43.9893C39.2246 42.6449 38.9421 41.6263 38.377 40.9336C37.8164 40.2363 36.9847 39.8877 35.8818 39.8877C34.7744 39.8877 33.9313 40.2386 33.3525 40.9404C32.7783 41.6377 32.4912 42.654 32.4912 43.9893ZM47.6465 49V44.1533C47.6465 43.5426 47.5075 43.0869 47.2295 42.7861C46.9515 42.4854 46.5163 42.335 45.9238 42.335C45.14 42.335 44.5658 42.5469 44.2012 42.9707C43.8366 43.3945 43.6543 44.0941 43.6543 45.0693V49H42.5195V41.5078H43.4424L43.627 42.5332H43.6816C43.9141 42.1641 44.2399 41.8792 44.6592 41.6787C45.0785 41.4736 45.5456 41.3711 46.0605 41.3711C46.9629 41.3711 47.6419 41.5898 48.0977 42.0273C48.5534 42.4603 48.7812 43.1553 48.7812 44.1123V49H47.6465ZM54.2842 49.1367C53.1768 49.1367 52.3018 48.7995 51.6592 48.125C51.0212 47.4505 50.7021 46.514 50.7021 45.3154C50.7021 44.1077 50.9984 43.1484 51.5908 42.4375C52.1878 41.7266 52.9876 41.3711 53.9902 41.3711C54.929 41.3711 55.6719 41.681 56.2188 42.3008C56.7656 42.916 57.0391 43.7295 57.0391 44.7412V45.459H51.8779C51.9007 46.3385 52.1217 47.0062 52.541 47.4619C52.9648 47.9176 53.5596 48.1455 54.3252 48.1455C55.1318 48.1455 55.9294 47.9769 56.7178 47.6396V48.6514C56.3167 48.8245 55.9362 48.9476 55.5762 49.0205C55.2207 49.098 54.79 49.1367 54.2842 49.1367ZM53.9766 42.3213C53.375 42.3213 52.8942 42.5173 52.5342 42.9092C52.1787 43.3011 51.9691 43.8434 51.9053 44.5361H55.8223C55.8223 43.8206 55.6628 43.2738 55.3438 42.8955C55.0247 42.5127 54.569 42.3213 53.9766 42.3213Z" fill="#807E7E"/>
<path d="M1.37402 81V71.0059H2.53613V79.9473H6.94531V81H1.37402ZM9.61133 81H8.47656V73.5078H9.61133V81ZM8.38086 71.4775C8.38086 71.2178 8.44466 71.0286 8.57227 70.9102C8.69987 70.7871 8.85938 70.7256 9.05078 70.7256C9.23307 70.7256 9.3903 70.7871 9.52246 70.9102C9.65462 71.0332 9.7207 71.2223 9.7207 71.4775C9.7207 71.7327 9.65462 71.9242 9.52246 72.0518C9.3903 72.1748 9.23307 72.2363 9.05078 72.2363C8.85938 72.2363 8.69987 72.1748 8.57227 72.0518C8.44466 71.9242 8.38086 71.7327 8.38086 71.4775ZM17.1445 81V76.1533C17.1445 75.5426 17.0055 75.0869 16.7275 74.7861C16.4495 74.4854 16.0143 74.335 15.4219 74.335C14.638 74.335 14.0638 74.5469 13.6992 74.9707C13.3346 75.3945 13.1523 76.0941 13.1523 77.0693V81H12.0176V73.5078H12.9404L13.125 74.5332H13.1797C13.4121 74.1641 13.738 73.8792 14.1572 73.6787C14.5765 73.4736 15.0436 73.3711 15.5586 73.3711C16.4609 73.3711 17.14 73.5898 17.5957 74.0273C18.0514 74.4603 18.2793 75.1553 18.2793 76.1123V81H17.1445ZM21.7383 77.165C21.9342 76.887 22.2327 76.5225 22.6338 76.0713L25.0537 73.5078H26.4004L23.3652 76.7002L26.6123 81H25.2383L22.5928 77.459L21.7383 78.1973V81H20.6172V70.3633H21.7383V76.0029C21.7383 76.2536 21.7201 76.641 21.6836 77.165H21.7383ZM34.8564 81H33.6943V72.0381H30.5293V71.0059H38.0215V72.0381H34.8564V81ZM45.4795 81L44.1055 76.6045C44.0189 76.3356 43.8571 75.7249 43.6201 74.7725H43.5654C43.3831 75.57 43.2236 76.1852 43.0869 76.6182L41.6719 81H40.3594L38.3154 73.5078H39.5049C39.988 75.39 40.3548 76.8232 40.6055 77.8076C40.8607 78.792 41.0065 79.4551 41.043 79.7969H41.0977C41.1478 79.5371 41.2275 79.2021 41.3369 78.792C41.4508 78.3773 41.5488 78.0492 41.6309 77.8076L43.0049 73.5078H44.2354L45.5752 77.8076C45.8304 78.5915 46.0036 79.25 46.0947 79.7832H46.1494C46.1676 79.6191 46.2155 79.3662 46.293 79.0244C46.375 78.6826 46.8512 76.8438 47.7217 73.5078H48.8975L46.8262 81H45.4795ZM56.7246 77.2471C56.7246 78.4684 56.417 79.4232 55.8018 80.1113C55.1865 80.7949 54.3366 81.1367 53.252 81.1367C52.582 81.1367 51.9873 80.9795 51.4678 80.665C50.9482 80.3506 50.5472 79.8994 50.2646 79.3115C49.9821 78.7236 49.8408 78.0355 49.8408 77.2471C49.8408 76.0257 50.1462 75.0755 50.7568 74.3965C51.3675 73.7129 52.2152 73.3711 53.2998 73.3711C54.348 73.3711 55.1797 73.7197 55.7949 74.417C56.4147 75.1143 56.7246 76.0576 56.7246 77.2471ZM51.0166 77.2471C51.0166 78.2041 51.208 78.9333 51.5908 79.4346C51.9736 79.9359 52.5365 80.1865 53.2793 80.1865C54.0221 80.1865 54.585 79.9382 54.9678 79.4414C55.3551 78.9401 55.5488 78.2087 55.5488 77.2471C55.5488 76.2946 55.3551 75.5723 54.9678 75.0801C54.585 74.5833 54.0176 74.335 53.2656 74.335C52.5228 74.335 51.9622 74.5788 51.584 75.0664C51.2057 75.554 51.0166 76.2809 51.0166 77.2471Z" fill="#807E7E"/>
<path d="M1.37402 113V103.006H2.53613V111.947H6.94531V113H1.37402ZM9.61133 113H8.47656V105.508H9.61133V113ZM8.38086 103.478C8.38086 103.218 8.44466 103.029 8.57227 102.91C8.69987 102.787 8.85938 102.726 9.05078 102.726C9.23307 102.726 9.3903 102.787 9.52246 102.91C9.65462 103.033 9.7207 103.222 9.7207 103.478C9.7207 103.733 9.65462 103.924 9.52246 104.052C9.3903 104.175 9.23307 104.236 9.05078 104.236C8.85938 104.236 8.69987 104.175 8.57227 104.052C8.44466 103.924 8.38086 103.733 8.38086 103.478ZM17.1445 113V108.153C17.1445 107.543 17.0055 107.087 16.7275 106.786C16.4495 106.485 16.0143 106.335 15.4219 106.335C14.638 106.335 14.0638 106.547 13.6992 106.971C13.3346 107.395 13.1523 108.094 13.1523 109.069V113H12.0176V105.508H12.9404L13.125 106.533H13.1797C13.4121 106.164 13.738 105.879 14.1572 105.679C14.5765 105.474 15.0436 105.371 15.5586 105.371C16.4609 105.371 17.14 105.59 17.5957 106.027C18.0514 106.46 18.2793 107.155 18.2793 108.112V113H17.1445ZM21.7383 109.165C21.9342 108.887 22.2327 108.522 22.6338 108.071L25.0537 105.508H26.4004L23.3652 108.7L26.6123 113H25.2383L22.5928 109.459L21.7383 110.197V113H20.6172V102.363H21.7383V108.003C21.7383 108.254 21.7201 108.641 21.6836 109.165H21.7383ZM34.8564 113H33.6943V104.038H30.5293V103.006H38.0215V104.038H34.8564V113ZM44.4883 113V108.153C44.4883 107.543 44.3493 107.087 44.0713 106.786C43.7933 106.485 43.3581 106.335 42.7656 106.335C41.9772 106.335 41.4007 106.549 41.0361 106.978C40.6761 107.406 40.4961 108.108 40.4961 109.083V113H39.3613V102.363H40.4961V105.583C40.4961 105.97 40.4779 106.292 40.4414 106.547H40.5098C40.7331 106.187 41.0498 105.904 41.46 105.699C41.8747 105.49 42.3464 105.385 42.875 105.385C43.791 105.385 44.4769 105.604 44.9326 106.041C45.3929 106.474 45.623 107.164 45.623 108.112V113H44.4883ZM51.3789 105.371C51.7116 105.371 52.0101 105.398 52.2744 105.453L52.1172 106.506C51.8073 106.438 51.5339 106.403 51.2969 106.403C50.6908 106.403 50.1712 106.649 49.7383 107.142C49.3099 107.634 49.0957 108.247 49.0957 108.98V113H47.9609V105.508H48.8975L49.0273 106.896H49.082C49.36 106.408 49.695 106.032 50.0869 105.768C50.4788 105.503 50.9095 105.371 51.3789 105.371ZM56.8408 113.137C55.7334 113.137 54.8584 112.799 54.2158 112.125C53.5778 111.451 53.2588 110.514 53.2588 109.315C53.2588 108.108 53.555 107.148 54.1475 106.438C54.7445 105.727 55.5443 105.371 56.5469 105.371C57.4857 105.371 58.2285 105.681 58.7754 106.301C59.3223 106.916 59.5957 107.729 59.5957 108.741V109.459H54.4346C54.4574 110.339 54.6784 111.006 55.0977 111.462C55.5215 111.918 56.1162 112.146 56.8818 112.146C57.6885 112.146 58.486 111.977 59.2744 111.64V112.651C58.8734 112.825 58.4928 112.948 58.1328 113.021C57.7773 113.098 57.3467 113.137 56.8408 113.137ZM56.5332 106.321C55.9316 106.321 55.4508 106.517 55.0908 106.909C54.7354 107.301 54.5257 107.843 54.4619 108.536H58.3789C58.3789 107.821 58.2194 107.274 57.9004 106.896C57.5814 106.513 57.1257 106.321 56.5332 106.321ZM64.7021 113.137C63.5947 113.137 62.7197 112.799 62.0771 112.125C61.4391 111.451 61.1201 110.514 61.1201 109.315C61.1201 108.108 61.4163 107.148 62.0088 106.438C62.6058 105.727 63.4056 105.371 64.4082 105.371C65.347 105.371 66.0898 105.681 66.6367 106.301C67.1836 106.916 67.457 107.729 67.457 108.741V109.459H62.2959C62.3187 110.339 62.5397 111.006 62.959 111.462C63.3828 111.918 63.9775 112.146 64.7432 112.146C65.5498 112.146 66.3473 111.977 67.1357 111.64V112.651C66.7347 112.825 66.3542 112.948 65.9941 113.021C65.6387 113.098 65.208 113.137 64.7021 113.137ZM64.3945 106.321C63.793 106.321 63.3122 106.517 62.9521 106.909C62.5967 107.301 62.387 107.843 62.3232 108.536H66.2402C66.2402 107.821 66.0807 107.274 65.7617 106.896C65.4427 106.513 64.987 106.321 64.3945 106.321Z" fill="#807E7E"/>
<path d="M1.37402 145V135.006H2.53613V143.947H6.94531V145H1.37402ZM9.61133 145H8.47656V137.508H9.61133V145ZM8.38086 135.478C8.38086 135.218 8.44466 135.029 8.57227 134.91C8.69987 134.787 8.85938 134.726 9.05078 134.726C9.23307 134.726 9.3903 134.787 9.52246 134.91C9.65462 135.033 9.7207 135.222 9.7207 135.478C9.7207 135.733 9.65462 135.924 9.52246 136.052C9.3903 136.175 9.23307 136.236 9.05078 136.236C8.85938 136.236 8.69987 136.175 8.57227 136.052C8.44466 135.924 8.38086 135.733 8.38086 135.478ZM17.1445 145V140.153C17.1445 139.543 17.0055 139.087 16.7275 138.786C16.4495 138.485 16.0143 138.335 15.4219 138.335C14.638 138.335 14.0638 138.547 13.6992 138.971C13.3346 139.395 13.1523 140.094 13.1523 141.069V145H12.0176V137.508H12.9404L13.125 138.533H13.1797C13.4121 138.164 13.738 137.879 14.1572 137.679C14.5765 137.474 15.0436 137.371 15.5586 137.371C16.4609 137.371 17.14 137.59 17.5957 138.027C18.0514 138.46 18.2793 139.155 18.2793 140.112V145H17.1445ZM21.7383 141.165C21.9342 140.887 22.2327 140.522 22.6338 140.071L25.0537 137.508H26.4004L23.3652 140.7L26.6123 145H25.2383L22.5928 141.459L21.7383 142.197V145H20.6172V134.363H21.7383V140.003C21.7383 140.254 21.7201 140.641 21.6836 141.165H21.7383ZM32.9424 145H31.7803V135.006H37.3516V136.038H32.9424V139.695H37.085V140.728H32.9424V145ZM45.3086 141.247C45.3086 142.468 45.001 143.423 44.3857 144.111C43.7705 144.795 42.9206 145.137 41.8359 145.137C41.166 145.137 40.5713 144.979 40.0518 144.665C39.5322 144.351 39.1312 143.899 38.8486 143.312C38.5661 142.724 38.4248 142.035 38.4248 141.247C38.4248 140.026 38.7301 139.076 39.3408 138.396C39.9515 137.713 40.7992 137.371 41.8838 137.371C42.932 137.371 43.7637 137.72 44.3789 138.417C44.9987 139.114 45.3086 140.058 45.3086 141.247ZM39.6006 141.247C39.6006 142.204 39.792 142.933 40.1748 143.435C40.5576 143.936 41.1204 144.187 41.8633 144.187C42.6061 144.187 43.1689 143.938 43.5518 143.441C43.9391 142.94 44.1328 142.209 44.1328 141.247C44.1328 140.295 43.9391 139.572 43.5518 139.08C43.1689 138.583 42.6016 138.335 41.8496 138.335C41.1068 138.335 40.5462 138.579 40.168 139.066C39.7897 139.554 39.6006 140.281 39.6006 141.247ZM48.3711 137.508V142.368C48.3711 142.979 48.5101 143.435 48.7881 143.735C49.0661 144.036 49.5013 144.187 50.0938 144.187C50.8776 144.187 51.4495 143.972 51.8096 143.544C52.1742 143.116 52.3564 142.416 52.3564 141.445V137.508H53.4912V145H52.5547L52.3906 143.995H52.3291C52.0967 144.364 51.7731 144.647 51.3584 144.843C50.9482 145.039 50.4788 145.137 49.9502 145.137C49.0387 145.137 48.3551 144.92 47.8994 144.487C47.4482 144.054 47.2227 143.362 47.2227 142.409V137.508H48.3711ZM59.3223 137.371C59.6549 137.371 59.9535 137.398 60.2178 137.453L60.0605 138.506C59.7507 138.438 59.4772 138.403 59.2402 138.403C58.6341 138.403 58.1146 138.649 57.6816 139.142C57.2533 139.634 57.0391 140.247 57.0391 140.98V145H55.9043V137.508H56.8408L56.9707 138.896H57.0254C57.3034 138.408 57.6383 138.032 58.0303 137.768C58.4222 137.503 58.8529 137.371 59.3223 137.371Z" fill="#807E7E"/>
<path d="M196.157 14.2246C196.157 15.127 195.831 15.8379 195.18 16.3574C194.533 16.877 193.63 17.1367 192.473 17.1367C191.406 17.1367 190.463 16.9362 189.643 16.5352V14.5664C190.317 14.8672 190.887 15.0791 191.352 15.2021C191.821 15.3252 192.249 15.3867 192.637 15.3867C193.102 15.3867 193.457 15.2979 193.703 15.1201C193.954 14.9424 194.079 14.6781 194.079 14.3271C194.079 14.1312 194.024 13.958 193.915 13.8076C193.806 13.6527 193.644 13.5046 193.43 13.3633C193.22 13.222 192.789 12.9964 192.138 12.6865C191.527 12.3994 191.069 12.1237 190.764 11.8594C190.458 11.5951 190.215 11.2874 190.032 10.9365C189.85 10.5856 189.759 10.1755 189.759 9.70605C189.759 8.82194 190.057 8.12695 190.654 7.62109C191.256 7.11523 192.085 6.8623 193.143 6.8623C193.662 6.8623 194.157 6.92383 194.626 7.04688C195.1 7.16992 195.594 7.3431 196.109 7.56641L195.426 9.21387C194.893 8.99512 194.451 8.84245 194.1 8.75586C193.753 8.66927 193.411 8.62598 193.074 8.62598C192.673 8.62598 192.366 8.7194 192.151 8.90625C191.937 9.0931 191.83 9.33691 191.83 9.6377C191.83 9.82454 191.873 9.98861 191.96 10.1299C192.047 10.2666 192.183 10.401 192.37 10.5332C192.562 10.6608 193.01 10.8932 193.717 11.2305C194.651 11.6771 195.291 12.126 195.638 12.5771C195.984 13.0238 196.157 13.5729 196.157 14.2246ZM200.97 10.6973C200.528 10.6973 200.181 10.8385 199.931 11.1211C199.68 11.3991 199.536 11.7956 199.5 12.3105H202.426C202.417 11.7956 202.282 11.3991 202.022 11.1211C201.763 10.8385 201.412 10.6973 200.97 10.6973ZM201.264 17.1367C200.033 17.1367 199.072 16.7972 198.379 16.1182C197.686 15.4391 197.34 14.4775 197.34 13.2334C197.34 11.9528 197.659 10.9639 198.297 10.2666C198.939 9.56478 199.826 9.21387 200.956 9.21387C202.036 9.21387 202.877 9.52148 203.479 10.1367C204.08 10.752 204.381 11.6019 204.381 12.6865V13.6982H199.452C199.475 14.2907 199.65 14.7533 199.979 15.0859C200.307 15.4186 200.767 15.585 201.359 15.585C201.82 15.585 202.255 15.5371 202.665 15.4414C203.075 15.3457 203.504 15.193 203.95 14.9834V16.5967C203.586 16.779 203.196 16.9134 202.781 17C202.367 17.0911 201.861 17.1367 201.264 17.1367ZM209.18 17.1367C206.801 17.1367 205.611 15.8311 205.611 13.2197C205.611 11.9209 205.935 10.9297 206.582 10.2461C207.229 9.55794 208.157 9.21387 209.364 9.21387C210.248 9.21387 211.041 9.38704 211.743 9.7334L211.128 11.3467C210.8 11.2145 210.494 11.1074 210.212 11.0254C209.929 10.9388 209.647 10.8955 209.364 10.8955C208.28 10.8955 207.737 11.6657 207.737 13.2061C207.737 14.7008 208.28 15.4482 209.364 15.4482C209.765 15.4482 210.137 15.3958 210.479 15.291C210.82 15.1816 211.162 15.013 211.504 14.7852V16.5693C211.167 16.7835 210.825 16.9316 210.479 17.0137C210.137 17.0957 209.704 17.1367 209.18 17.1367ZM214.942 13.165C214.942 13.9215 215.065 14.4935 215.312 14.8809C215.562 15.2682 215.968 15.4619 216.528 15.4619C217.084 15.4619 217.483 15.2705 217.725 14.8877C217.971 14.5003 218.094 13.9261 218.094 13.165C218.094 12.4085 217.971 11.8411 217.725 11.4629C217.479 11.0846 217.075 10.8955 216.515 10.8955C215.959 10.8955 215.558 11.0846 215.312 11.4629C215.065 11.8366 214.942 12.404 214.942 13.165ZM220.227 13.165C220.227 14.4092 219.898 15.3822 219.242 16.084C218.586 16.7858 217.672 17.1367 216.501 17.1367C215.767 17.1367 215.12 16.9772 214.56 16.6582C213.999 16.3346 213.568 15.8721 213.268 15.2705C212.967 14.6689 212.816 13.9671 212.816 13.165C212.816 11.9163 213.142 10.9456 213.794 10.2529C214.446 9.56022 215.362 9.21387 216.542 9.21387C217.276 9.21387 217.923 9.37337 218.483 9.69238C219.044 10.0114 219.475 10.4694 219.775 11.0664C220.076 11.6634 220.227 12.363 220.227 13.165ZM229.004 17H226.919V12.5361C226.919 11.9847 226.821 11.5723 226.625 11.2988C226.429 11.0208 226.117 10.8818 225.688 10.8818C225.105 10.8818 224.684 11.0778 224.424 11.4697C224.164 11.8571 224.034 12.502 224.034 13.4043V17H221.949V9.35742H223.542L223.822 10.335H223.938C224.171 9.96582 224.49 9.68783 224.896 9.50098C225.306 9.30957 225.771 9.21387 226.29 9.21387C227.179 9.21387 227.853 9.4554 228.313 9.93848C228.774 10.417 229.004 11.1097 229.004 12.0166V17ZM233.57 17.1367C232.673 17.1367 231.966 16.7881 231.451 16.0908C230.941 15.3936 230.686 14.4274 230.686 13.1924C230.686 11.9391 230.945 10.9639 231.465 10.2666C231.989 9.56478 232.709 9.21387 233.625 9.21387C234.587 9.21387 235.32 9.58757 235.826 10.335H235.895C235.79 9.7653 235.737 9.25716 235.737 8.81055V6.36328H237.829V17H236.229L235.826 16.0088H235.737C235.263 16.7607 234.541 17.1367 233.57 17.1367ZM234.302 15.4756C234.835 15.4756 235.225 15.3206 235.471 15.0107C235.721 14.7008 235.858 14.1745 235.881 13.4316V13.2061C235.881 12.3857 235.753 11.7979 235.498 11.4424C235.247 11.0869 234.837 10.9092 234.268 10.9092C233.803 10.9092 233.44 11.1074 233.181 11.5039C232.925 11.8958 232.798 12.4678 232.798 13.2197C232.798 13.9717 232.928 14.5368 233.188 14.915C233.447 15.2887 233.819 15.4756 234.302 15.4756ZM248.056 8.62598C247.258 8.62598 246.641 8.92676 246.203 9.52832C245.766 10.1253 245.547 10.9593 245.547 12.0303C245.547 14.2588 246.383 15.373 248.056 15.373C248.757 15.373 249.607 15.1976 250.605 14.8467V16.624C249.785 16.9658 248.869 17.1367 247.857 17.1367C246.404 17.1367 245.292 16.6969 244.521 15.8174C243.751 14.9333 243.366 13.6663 243.366 12.0166C243.366 10.9775 243.555 10.0684 243.934 9.28906C244.312 8.50521 244.854 7.90592 245.561 7.49121C246.271 7.07194 247.103 6.8623 248.056 6.8623C249.026 6.8623 250.002 7.09701 250.981 7.56641L250.298 9.28906C249.924 9.11133 249.548 8.95638 249.17 8.82422C248.792 8.69206 248.42 8.62598 248.056 8.62598ZM254.235 13.165C254.235 13.9215 254.358 14.4935 254.604 14.8809C254.855 15.2682 255.261 15.4619 255.821 15.4619C256.377 15.4619 256.776 15.2705 257.018 14.8877C257.264 14.5003 257.387 13.9261 257.387 13.165C257.387 12.4085 257.264 11.8411 257.018 11.4629C256.771 11.0846 256.368 10.8955 255.808 10.8955C255.252 10.8955 254.851 11.0846 254.604 11.4629C254.358 11.8366 254.235 12.404 254.235 13.165ZM259.52 13.165C259.52 14.4092 259.191 15.3822 258.535 16.084C257.879 16.7858 256.965 17.1367 255.794 17.1367C255.06 17.1367 254.413 16.9772 253.853 16.6582C253.292 16.3346 252.861 15.8721 252.561 15.2705C252.26 14.6689 252.109 13.9671 252.109 13.165C252.109 11.9163 252.435 10.9456 253.087 10.2529C253.739 9.56022 254.655 9.21387 255.835 9.21387C256.569 9.21387 257.216 9.37337 257.776 9.69238C258.337 10.0114 258.768 10.4694 259.068 11.0664C259.369 11.6634 259.52 12.363 259.52 13.165ZM263.327 17H261.242V6.36328H263.327V17ZM270.936 17L270.655 16.0225H270.546C270.323 16.3779 270.006 16.6536 269.596 16.8496C269.186 17.041 268.718 17.1367 268.194 17.1367C267.297 17.1367 266.62 16.8975 266.164 16.4189C265.708 15.9359 265.48 15.2432 265.48 14.3408V9.35742H267.565V13.8213C267.565 14.3727 267.663 14.7874 267.859 15.0654C268.055 15.3389 268.368 15.4756 268.796 15.4756C269.379 15.4756 269.801 15.2819 270.061 14.8945C270.32 14.5026 270.45 13.8555 270.45 12.9531V9.35742H272.535V17H270.936ZM281.565 17H279.48V12.5361C279.48 11.9847 279.387 11.5723 279.2 11.2988C279.018 11.0208 278.729 10.8818 278.332 10.8818C277.799 10.8818 277.411 11.0778 277.17 11.4697C276.928 11.8617 276.808 12.5065 276.808 13.4043V17H274.723V9.35742H276.315L276.596 10.335H276.712C276.917 9.98405 277.213 9.71061 277.601 9.51465C277.988 9.31413 278.432 9.21387 278.934 9.21387C280.077 9.21387 280.852 9.58757 281.258 10.335H281.442C281.647 9.97949 281.948 9.70378 282.345 9.50781C282.746 9.31185 283.197 9.21387 283.698 9.21387C284.564 9.21387 285.218 9.43717 285.66 9.88379C286.107 10.3258 286.33 11.0368 286.33 12.0166V17H284.238V12.5361C284.238 11.9847 284.145 11.5723 283.958 11.2988C283.776 11.0208 283.486 10.8818 283.09 10.8818C282.579 10.8818 282.197 11.0641 281.941 11.4287C281.691 11.7933 281.565 12.3721 281.565 13.165V17ZM295.531 17H293.446V12.5361C293.446 11.9847 293.348 11.5723 293.152 11.2988C292.956 11.0208 292.644 10.8818 292.216 10.8818C291.632 10.8818 291.211 11.0778 290.951 11.4697C290.691 11.8571 290.562 12.502 290.562 13.4043V17H288.477V9.35742H290.069L290.35 10.335H290.466C290.698 9.96582 291.017 9.68783 291.423 9.50098C291.833 9.30957 292.298 9.21387 292.817 9.21387C293.706 9.21387 294.381 9.4554 294.841 9.93848C295.301 10.417 295.531 11.1097 295.531 12.0166V17Z" fill="#212121"/>
<path d="M190.374 49V39.0059H191.536V47.9473H195.945V49H190.374ZM198.611 49H197.477V41.5078H198.611V49ZM197.381 39.4775C197.381 39.2178 197.445 39.0286 197.572 38.9102C197.7 38.7871 197.859 38.7256 198.051 38.7256C198.233 38.7256 198.39 38.7871 198.522 38.9102C198.655 39.0332 198.721 39.2223 198.721 39.4775C198.721 39.7327 198.655 39.9242 198.522 40.0518C198.39 40.1748 198.233 40.2363 198.051 40.2363C197.859 40.2363 197.7 40.1748 197.572 40.0518C197.445 39.9242 197.381 39.7327 197.381 39.4775ZM206.145 49V44.1533C206.145 43.5426 206.006 43.0869 205.728 42.7861C205.45 42.4854 205.014 42.335 204.422 42.335C203.638 42.335 203.064 42.5469 202.699 42.9707C202.335 43.3945 202.152 44.0941 202.152 45.0693V49H201.018V41.5078H201.94L202.125 42.5332H202.18C202.412 42.1641 202.738 41.8792 203.157 41.6787C203.576 41.4736 204.044 41.3711 204.559 41.3711C205.461 41.3711 206.14 41.5898 206.596 42.0273C207.051 42.4603 207.279 43.1553 207.279 44.1123V49H206.145ZM210.738 45.165C210.934 44.887 211.233 44.5225 211.634 44.0713L214.054 41.5078H215.4L212.365 44.7002L215.612 49H214.238L211.593 45.459L210.738 46.1973V49H209.617V38.3633H210.738V44.0029C210.738 44.2536 210.72 44.641 210.684 45.165H210.738ZM229.455 43.9893C229.455 45.5889 229.049 46.8467 228.238 47.7627C227.432 48.6787 226.308 49.1367 224.868 49.1367C223.396 49.1367 222.259 48.6878 221.457 47.79C220.66 46.8877 220.261 45.6162 220.261 43.9756C220.261 42.3486 220.662 41.0885 221.464 40.1953C222.266 39.2975 223.405 38.8486 224.882 38.8486C226.317 38.8486 227.438 39.3044 228.245 40.2158C229.052 41.1273 229.455 42.3851 229.455 43.9893ZM221.491 43.9893C221.491 45.3428 221.778 46.3704 222.353 47.0723C222.931 47.7695 223.77 48.1182 224.868 48.1182C225.976 48.1182 226.812 47.7695 227.377 47.0723C227.942 46.375 228.225 45.3473 228.225 43.9893C228.225 42.6449 227.942 41.6263 227.377 40.9336C226.816 40.2363 225.985 39.8877 224.882 39.8877C223.774 39.8877 222.931 40.2386 222.353 40.9404C221.778 41.6377 221.491 42.654 221.491 43.9893ZM236.646 49V44.1533C236.646 43.5426 236.507 43.0869 236.229 42.7861C235.951 42.4854 235.516 42.335 234.924 42.335C234.14 42.335 233.566 42.5469 233.201 42.9707C232.837 43.3945 232.654 44.0941 232.654 45.0693V49H231.52V41.5078H232.442L232.627 42.5332H232.682C232.914 42.1641 233.24 41.8792 233.659 41.6787C234.078 41.4736 234.546 41.3711 235.061 41.3711C235.963 41.3711 236.642 41.5898 237.098 42.0273C237.553 42.4603 237.781 43.1553 237.781 44.1123V49H236.646ZM243.284 49.1367C242.177 49.1367 241.302 48.7995 240.659 48.125C240.021 47.4505 239.702 46.514 239.702 45.3154C239.702 44.1077 239.998 43.1484 240.591 42.4375C241.188 41.7266 241.988 41.3711 242.99 41.3711C243.929 41.3711 244.672 41.681 245.219 42.3008C245.766 42.916 246.039 43.7295 246.039 44.7412V45.459H240.878C240.901 46.3385 241.122 47.0062 241.541 47.4619C241.965 47.9176 242.56 48.1455 243.325 48.1455C244.132 48.1455 244.929 47.9769 245.718 47.6396V48.6514C245.317 48.8245 244.936 48.9476 244.576 49.0205C244.221 49.098 243.79 49.1367 243.284 49.1367ZM242.977 42.3213C242.375 42.3213 241.894 42.5173 241.534 42.9092C241.179 43.3011 240.969 43.8434 240.905 44.5361H244.822C244.822 43.8206 244.663 43.2738 244.344 42.8955C244.025 42.5127 243.569 42.3213 242.977 42.3213Z" fill="#807E7E"/>
<path d="M190.374 81V71.0059H191.536V79.9473H195.945V81H190.374ZM198.611 81H197.477V73.5078H198.611V81ZM197.381 71.4775C197.381 71.2178 197.445 71.0286 197.572 70.9102C197.7 70.7871 197.859 70.7256 198.051 70.7256C198.233 70.7256 198.39 70.7871 198.522 70.9102C198.655 71.0332 198.721 71.2223 198.721 71.4775C198.721 71.7327 198.655 71.9242 198.522 72.0518C198.39 72.1748 198.233 72.2363 198.051 72.2363C197.859 72.2363 197.7 72.1748 197.572 72.0518C197.445 71.9242 197.381 71.7327 197.381 71.4775ZM206.145 81V76.1533C206.145 75.5426 206.006 75.0869 205.728 74.7861C205.45 74.4854 205.014 74.335 204.422 74.335C203.638 74.335 203.064 74.5469 202.699 74.9707C202.335 75.3945 202.152 76.0941 202.152 77.0693V81H201.018V73.5078H201.94L202.125 74.5332H202.18C202.412 74.1641 202.738 73.8792 203.157 73.6787C203.576 73.4736 204.044 73.3711 204.559 73.3711C205.461 73.3711 206.14 73.5898 206.596 74.0273C207.051 74.4603 207.279 75.1553 207.279 76.1123V81H206.145ZM210.738 77.165C210.934 76.887 211.233 76.5225 211.634 76.0713L214.054 73.5078H215.4L212.365 76.7002L215.612 81H214.238L211.593 77.459L210.738 78.1973V81H209.617V70.3633H210.738V76.0029C210.738 76.2536 210.72 76.641 210.684 77.165H210.738ZM223.856 81H222.694V72.0381H219.529V71.0059H227.021V72.0381H223.856V81ZM234.479 81L233.105 76.6045C233.019 76.3356 232.857 75.7249 232.62 74.7725H232.565C232.383 75.57 232.224 76.1852 232.087 76.6182L230.672 81H229.359L227.315 73.5078H228.505C228.988 75.39 229.355 76.8232 229.605 77.8076C229.861 78.792 230.007 79.4551 230.043 79.7969H230.098C230.148 79.5371 230.228 79.2021 230.337 78.792C230.451 78.3773 230.549 78.0492 230.631 77.8076L232.005 73.5078H233.235L234.575 77.8076C234.83 78.5915 235.004 79.25 235.095 79.7832H235.149C235.168 79.6191 235.215 79.3662 235.293 79.0244C235.375 78.6826 235.851 76.8438 236.722 73.5078H237.897L235.826 81H234.479ZM245.725 77.2471C245.725 78.4684 245.417 79.4232 244.802 80.1113C244.187 80.7949 243.337 81.1367 242.252 81.1367C241.582 81.1367 240.987 80.9795 240.468 80.665C239.948 80.3506 239.547 79.8994 239.265 79.3115C238.982 78.7236 238.841 78.0355 238.841 77.2471C238.841 76.0257 239.146 75.0755 239.757 74.3965C240.368 73.7129 241.215 73.3711 242.3 73.3711C243.348 73.3711 244.18 73.7197 244.795 74.417C245.415 75.1143 245.725 76.0576 245.725 77.2471ZM240.017 77.2471C240.017 78.2041 240.208 78.9333 240.591 79.4346C240.974 79.9359 241.536 80.1865 242.279 80.1865C243.022 80.1865 243.585 79.9382 243.968 79.4414C244.355 78.9401 244.549 78.2087 244.549 77.2471C244.549 76.2946 244.355 75.5723 243.968 75.0801C243.585 74.5833 243.018 74.335 242.266 74.335C241.523 74.335 240.962 74.5788 240.584 75.0664C240.206 75.554 240.017 76.2809 240.017 77.2471Z" fill="#807E7E"/>
<path d="M190.374 113V103.006H191.536V111.947H195.945V113H190.374ZM198.611 113H197.477V105.508H198.611V113ZM197.381 103.478C197.381 103.218 197.445 103.029 197.572 102.91C197.7 102.787 197.859 102.726 198.051 102.726C198.233 102.726 198.39 102.787 198.522 102.91C198.655 103.033 198.721 103.222 198.721 103.478C198.721 103.733 198.655 103.924 198.522 104.052C198.39 104.175 198.233 104.236 198.051 104.236C197.859 104.236 197.7 104.175 197.572 104.052C197.445 103.924 197.381 103.733 197.381 103.478ZM206.145 113V108.153C206.145 107.543 206.006 107.087 205.728 106.786C205.45 106.485 205.014 106.335 204.422 106.335C203.638 106.335 203.064 106.547 202.699 106.971C202.335 107.395 202.152 108.094 202.152 109.069V113H201.018V105.508H201.94L202.125 106.533H202.18C202.412 106.164 202.738 105.879 203.157 105.679C203.576 105.474 204.044 105.371 204.559 105.371C205.461 105.371 206.14 105.59 206.596 106.027C207.051 106.46 207.279 107.155 207.279 108.112V113H206.145ZM210.738 109.165C210.934 108.887 211.233 108.522 211.634 108.071L214.054 105.508H215.4L212.365 108.7L215.612 113H214.238L211.593 109.459L210.738 110.197V113H209.617V102.363H210.738V108.003C210.738 108.254 210.72 108.641 210.684 109.165H210.738ZM223.856 113H222.694V104.038H219.529V103.006H227.021V104.038H223.856V113ZM233.488 113V108.153C233.488 107.543 233.349 107.087 233.071 106.786C232.793 106.485 232.358 106.335 231.766 106.335C230.977 106.335 230.401 106.549 230.036 106.978C229.676 107.406 229.496 108.108 229.496 109.083V113H228.361V102.363H229.496V105.583C229.496 105.97 229.478 106.292 229.441 106.547H229.51C229.733 106.187 230.05 105.904 230.46 105.699C230.875 105.49 231.346 105.385 231.875 105.385C232.791 105.385 233.477 105.604 233.933 106.041C234.393 106.474 234.623 107.164 234.623 108.112V113H233.488ZM240.379 105.371C240.712 105.371 241.01 105.398 241.274 105.453L241.117 106.506C240.807 106.438 240.534 106.403 240.297 106.403C239.691 106.403 239.171 106.649 238.738 107.142C238.31 107.634 238.096 108.247 238.096 108.98V113H236.961V105.508H237.897L238.027 106.896H238.082C238.36 106.408 238.695 106.032 239.087 105.768C239.479 105.503 239.91 105.371 240.379 105.371ZM245.841 113.137C244.733 113.137 243.858 112.799 243.216 112.125C242.578 111.451 242.259 110.514 242.259 109.315C242.259 108.108 242.555 107.148 243.147 106.438C243.744 105.727 244.544 105.371 245.547 105.371C246.486 105.371 247.229 105.681 247.775 106.301C248.322 106.916 248.596 107.729 248.596 108.741V109.459H243.435C243.457 110.339 243.678 111.006 244.098 111.462C244.521 111.918 245.116 112.146 245.882 112.146C246.688 112.146 247.486 111.977 248.274 111.64V112.651C247.873 112.825 247.493 112.948 247.133 113.021C246.777 113.098 246.347 113.137 245.841 113.137ZM245.533 106.321C244.932 106.321 244.451 106.517 244.091 106.909C243.735 107.301 243.526 107.843 243.462 108.536H247.379C247.379 107.821 247.219 107.274 246.9 106.896C246.581 106.513 246.126 106.321 245.533 106.321ZM253.702 113.137C252.595 113.137 251.72 112.799 251.077 112.125C250.439 111.451 250.12 110.514 250.12 109.315C250.12 108.108 250.416 107.148 251.009 106.438C251.606 105.727 252.406 105.371 253.408 105.371C254.347 105.371 255.09 105.681 255.637 106.301C256.184 106.916 256.457 107.729 256.457 108.741V109.459H251.296C251.319 110.339 251.54 111.006 251.959 111.462C252.383 111.918 252.978 112.146 253.743 112.146C254.55 112.146 255.347 111.977 256.136 111.64V112.651C255.735 112.825 255.354 112.948 254.994 113.021C254.639 113.098 254.208 113.137 253.702 113.137ZM253.395 106.321C252.793 106.321 252.312 106.517 251.952 106.909C251.597 107.301 251.387 107.843 251.323 108.536H255.24C255.24 107.821 255.081 107.274 254.762 106.896C254.443 106.513 253.987 106.321 253.395 106.321Z" fill="#807E7E"/>
<path d="M190.374 145V135.006H191.536V143.947H195.945V145H190.374ZM198.611 145H197.477V137.508H198.611V145ZM197.381 135.478C197.381 135.218 197.445 135.029 197.572 134.91C197.7 134.787 197.859 134.726 198.051 134.726C198.233 134.726 198.39 134.787 198.522 134.91C198.655 135.033 198.721 135.222 198.721 135.478C198.721 135.733 198.655 135.924 198.522 136.052C198.39 136.175 198.233 136.236 198.051 136.236C197.859 136.236 197.7 136.175 197.572 136.052C197.445 135.924 197.381 135.733 197.381 135.478ZM206.145 145V140.153C206.145 139.543 206.006 139.087 205.728 138.786C205.45 138.485 205.014 138.335 204.422 138.335C203.638 138.335 203.064 138.547 202.699 138.971C202.335 139.395 202.152 140.094 202.152 141.069V145H201.018V137.508H201.94L202.125 138.533H202.18C202.412 138.164 202.738 137.879 203.157 137.679C203.576 137.474 204.044 137.371 204.559 137.371C205.461 137.371 206.14 137.59 206.596 138.027C207.051 138.46 207.279 139.155 207.279 140.112V145H206.145ZM210.738 141.165C210.934 140.887 211.233 140.522 211.634 140.071L214.054 137.508H215.4L212.365 140.7L215.612 145H214.238L211.593 141.459L210.738 142.197V145H209.617V134.363H210.738V140.003C210.738 140.254 210.72 140.641 210.684 141.165H210.738ZM221.942 145H220.78V135.006H226.352V136.038H221.942V139.695H226.085V140.728H221.942V145ZM234.309 141.247C234.309 142.468 234.001 143.423 233.386 144.111C232.771 144.795 231.921 145.137 230.836 145.137C230.166 145.137 229.571 144.979 229.052 144.665C228.532 144.351 228.131 143.899 227.849 143.312C227.566 142.724 227.425 142.035 227.425 141.247C227.425 140.026 227.73 139.076 228.341 138.396C228.951 137.713 229.799 137.371 230.884 137.371C231.932 137.371 232.764 137.72 233.379 138.417C233.999 139.114 234.309 140.058 234.309 141.247ZM228.601 141.247C228.601 142.204 228.792 142.933 229.175 143.435C229.558 143.936 230.12 144.187 230.863 144.187C231.606 144.187 232.169 143.938 232.552 143.441C232.939 142.94 233.133 142.209 233.133 141.247C233.133 140.295 232.939 139.572 232.552 139.08C232.169 138.583 231.602 138.335 230.85 138.335C230.107 138.335 229.546 138.579 229.168 139.066C228.79 139.554 228.601 140.281 228.601 141.247ZM237.371 137.508V142.368C237.371 142.979 237.51 143.435 237.788 143.735C238.066 144.036 238.501 144.187 239.094 144.187C239.878 144.187 240.45 143.972 240.81 143.544C241.174 143.116 241.356 142.416 241.356 141.445V137.508H242.491V145H241.555L241.391 143.995H241.329C241.097 144.364 240.773 144.647 240.358 144.843C239.948 145.039 239.479 145.137 238.95 145.137C238.039 145.137 237.355 144.92 236.899 144.487C236.448 144.054 236.223 143.362 236.223 142.409V137.508H237.371ZM248.322 137.371C248.655 137.371 248.953 137.398 249.218 137.453L249.061 138.506C248.751 138.438 248.477 138.403 248.24 138.403C247.634 138.403 247.115 138.649 246.682 139.142C246.253 139.634 246.039 140.247 246.039 140.98V145H244.904V137.508H245.841L245.971 138.896H246.025C246.303 138.408 246.638 138.032 247.03 137.768C247.422 137.503 247.853 137.371 248.322 137.371Z" fill="#807E7E"/>
<path d="M383.113 17H380.994V8.76953H378.28V7.00586H385.827V8.76953H383.113V17ZM394.256 17H392.171V12.5361C392.171 11.4333 391.761 10.8818 390.94 10.8818C390.357 10.8818 389.936 11.0801 389.676 11.4766C389.416 11.873 389.286 12.5156 389.286 13.4043V17H387.201V6.36328H389.286V8.53027C389.286 8.69889 389.27 9.09538 389.238 9.71973L389.19 10.335H389.3C389.765 9.58757 390.503 9.21387 391.515 9.21387C392.412 9.21387 393.094 9.4554 393.559 9.93848C394.023 10.4215 394.256 11.1143 394.256 12.0166V17ZM396.313 7.38184C396.313 6.7028 396.692 6.36328 397.448 6.36328C398.205 6.36328 398.583 6.7028 398.583 7.38184C398.583 7.7054 398.487 7.95833 398.296 8.14062C398.109 8.31836 397.826 8.40723 397.448 8.40723C396.692 8.40723 396.313 8.06543 396.313 7.38184ZM398.487 17H396.402V9.35742H398.487V17ZM404.947 9.21387C405.23 9.21387 405.465 9.23438 405.651 9.27539L405.494 11.2305C405.326 11.1849 405.12 11.1621 404.879 11.1621C404.214 11.1621 403.694 11.333 403.32 11.6748C402.951 12.0166 402.767 12.4951 402.767 13.1104V17H400.682V9.35742H402.261L402.568 10.6426H402.671C402.908 10.2142 403.227 9.87012 403.628 9.61035C404.034 9.34603 404.473 9.21387 404.947 9.21387ZM409.459 17.1367C408.561 17.1367 407.855 16.7881 407.34 16.0908C406.829 15.3936 406.574 14.4274 406.574 13.1924C406.574 11.9391 406.834 10.9639 407.354 10.2666C407.878 9.56478 408.598 9.21387 409.514 9.21387C410.475 9.21387 411.209 9.58757 411.715 10.335H411.783C411.678 9.7653 411.626 9.25716 411.626 8.81055V6.36328H413.718V17H412.118L411.715 16.0088H411.626C411.152 16.7607 410.43 17.1367 409.459 17.1367ZM410.19 15.4756C410.724 15.4756 411.113 15.3206 411.359 15.0107C411.61 14.7008 411.747 14.1745 411.77 13.4316V13.2061C411.77 12.3857 411.642 11.7979 411.387 11.4424C411.136 11.0869 410.726 10.9092 410.156 10.9092C409.691 10.9092 409.329 11.1074 409.069 11.5039C408.814 11.8958 408.687 12.4678 408.687 13.2197C408.687 13.9717 408.816 14.5368 409.076 14.915C409.336 15.2887 409.707 15.4756 410.19 15.4756ZM423.944 8.62598C423.147 8.62598 422.529 8.92676 422.092 9.52832C421.654 10.1253 421.436 10.9593 421.436 12.0303C421.436 14.2588 422.272 15.373 423.944 15.373C424.646 15.373 425.496 15.1976 426.494 14.8467V16.624C425.674 16.9658 424.758 17.1367 423.746 17.1367C422.292 17.1367 421.18 16.6969 420.41 15.8174C419.64 14.9333 419.255 13.6663 419.255 12.0166C419.255 10.9775 419.444 10.0684 419.822 9.28906C420.201 8.50521 420.743 7.90592 421.449 7.49121C422.16 7.07194 422.992 6.8623 423.944 6.8623C424.915 6.8623 425.89 7.09701 426.87 7.56641L426.187 9.28906C425.813 9.11133 425.437 8.95638 425.059 8.82422C424.68 8.69206 424.309 8.62598 423.944 8.62598ZM430.124 13.165C430.124 13.9215 430.247 14.4935 430.493 14.8809C430.744 15.2682 431.149 15.4619 431.71 15.4619C432.266 15.4619 432.665 15.2705 432.906 14.8877C433.152 14.5003 433.275 13.9261 433.275 13.165C433.275 12.4085 433.152 11.8411 432.906 11.4629C432.66 11.0846 432.257 10.8955 431.696 10.8955C431.14 10.8955 430.739 11.0846 430.493 11.4629C430.247 11.8366 430.124 12.404 430.124 13.165ZM435.408 13.165C435.408 14.4092 435.08 15.3822 434.424 16.084C433.768 16.7858 432.854 17.1367 431.683 17.1367C430.949 17.1367 430.302 16.9772 429.741 16.6582C429.181 16.3346 428.75 15.8721 428.449 15.2705C428.148 14.6689 427.998 13.9671 427.998 13.165C427.998 11.9163 428.324 10.9456 428.976 10.2529C429.627 9.56022 430.543 9.21387 431.724 9.21387C432.457 9.21387 433.104 9.37337 433.665 9.69238C434.226 10.0114 434.656 10.4694 434.957 11.0664C435.258 11.6634 435.408 12.363 435.408 13.165ZM439.216 17H437.131V6.36328H439.216V17ZM446.824 17L446.544 16.0225H446.435C446.211 16.3779 445.895 16.6536 445.484 16.8496C445.074 17.041 444.607 17.1367 444.083 17.1367C443.185 17.1367 442.508 16.8975 442.053 16.4189C441.597 15.9359 441.369 15.2432 441.369 14.3408V9.35742H443.454V13.8213C443.454 14.3727 443.552 14.7874 443.748 15.0654C443.944 15.3389 444.256 15.4756 444.685 15.4756C445.268 15.4756 445.689 15.2819 445.949 14.8945C446.209 14.5026 446.339 13.8555 446.339 12.9531V9.35742H448.424V17H446.824ZM457.454 17H455.369V12.5361C455.369 11.9847 455.276 11.5723 455.089 11.2988C454.907 11.0208 454.617 10.8818 454.221 10.8818C453.688 10.8818 453.3 11.0778 453.059 11.4697C452.817 11.8617 452.696 12.5065 452.696 13.4043V17H450.611V9.35742H452.204L452.484 10.335H452.601C452.806 9.98405 453.102 9.71061 453.489 9.51465C453.877 9.31413 454.321 9.21387 454.822 9.21387C455.966 9.21387 456.741 9.58757 457.146 10.335H457.331C457.536 9.97949 457.837 9.70378 458.233 9.50781C458.634 9.31185 459.086 9.21387 459.587 9.21387C460.453 9.21387 461.107 9.43717 461.549 9.88379C461.995 10.3258 462.219 11.0368 462.219 12.0166V17H460.127V12.5361C460.127 11.9847 460.034 11.5723 459.847 11.2988C459.664 11.0208 459.375 10.8818 458.979 10.8818C458.468 10.8818 458.085 11.0641 457.83 11.4287C457.579 11.7933 457.454 12.3721 457.454 13.165V17ZM471.42 17H469.335V12.5361C469.335 11.9847 469.237 11.5723 469.041 11.2988C468.845 11.0208 468.533 10.8818 468.104 10.8818C467.521 10.8818 467.1 11.0778 466.84 11.4697C466.58 11.8571 466.45 12.502 466.45 13.4043V17H464.365V9.35742H465.958L466.238 10.335H466.354C466.587 9.96582 466.906 9.68783 467.312 9.50098C467.722 9.30957 468.187 9.21387 468.706 9.21387C469.595 9.21387 470.269 9.4554 470.729 9.93848C471.19 10.417 471.42 11.1097 471.42 12.0166V17Z" fill="#212121"/>
<path d="M379.374 49V39.0059H380.536V47.9473H384.945V49H379.374ZM387.611 49H386.477V41.5078H387.611V49ZM386.381 39.4775C386.381 39.2178 386.445 39.0286 386.572 38.9102C386.7 38.7871 386.859 38.7256 387.051 38.7256C387.233 38.7256 387.39 38.7871 387.522 38.9102C387.655 39.0332 387.721 39.2223 387.721 39.4775C387.721 39.7327 387.655 39.9242 387.522 40.0518C387.39 40.1748 387.233 40.2363 387.051 40.2363C386.859 40.2363 386.7 40.1748 386.572 40.0518C386.445 39.9242 386.381 39.7327 386.381 39.4775ZM395.145 49V44.1533C395.145 43.5426 395.006 43.0869 394.728 42.7861C394.45 42.4854 394.014 42.335 393.422 42.335C392.638 42.335 392.064 42.5469 391.699 42.9707C391.335 43.3945 391.152 44.0941 391.152 45.0693V49H390.018V41.5078H390.94L391.125 42.5332H391.18C391.412 42.1641 391.738 41.8792 392.157 41.6787C392.576 41.4736 393.044 41.3711 393.559 41.3711C394.461 41.3711 395.14 41.5898 395.596 42.0273C396.051 42.4603 396.279 43.1553 396.279 44.1123V49H395.145ZM399.738 45.165C399.934 44.887 400.233 44.5225 400.634 44.0713L403.054 41.5078H404.4L401.365 44.7002L404.612 49H403.238L400.593 45.459L399.738 46.1973V49H398.617V38.3633H399.738V44.0029C399.738 44.2536 399.72 44.641 399.684 45.165H399.738ZM418.455 43.9893C418.455 45.5889 418.049 46.8467 417.238 47.7627C416.432 48.6787 415.308 49.1367 413.868 49.1367C412.396 49.1367 411.259 48.6878 410.457 47.79C409.66 46.8877 409.261 45.6162 409.261 43.9756C409.261 42.3486 409.662 41.0885 410.464 40.1953C411.266 39.2975 412.405 38.8486 413.882 38.8486C415.317 38.8486 416.438 39.3044 417.245 40.2158C418.052 41.1273 418.455 42.3851 418.455 43.9893ZM410.491 43.9893C410.491 45.3428 410.778 46.3704 411.353 47.0723C411.931 47.7695 412.77 48.1182 413.868 48.1182C414.976 48.1182 415.812 47.7695 416.377 47.0723C416.942 46.375 417.225 45.3473 417.225 43.9893C417.225 42.6449 416.942 41.6263 416.377 40.9336C415.816 40.2363 414.985 39.8877 413.882 39.8877C412.774 39.8877 411.931 40.2386 411.353 40.9404C410.778 41.6377 410.491 42.654 410.491 43.9893ZM425.646 49V44.1533C425.646 43.5426 425.507 43.0869 425.229 42.7861C424.951 42.4854 424.516 42.335 423.924 42.335C423.14 42.335 422.566 42.5469 422.201 42.9707C421.837 43.3945 421.654 44.0941 421.654 45.0693V49H420.52V41.5078H421.442L421.627 42.5332H421.682C421.914 42.1641 422.24 41.8792 422.659 41.6787C423.078 41.4736 423.546 41.3711 424.061 41.3711C424.963 41.3711 425.642 41.5898 426.098 42.0273C426.553 42.4603 426.781 43.1553 426.781 44.1123V49H425.646ZM432.284 49.1367C431.177 49.1367 430.302 48.7995 429.659 48.125C429.021 47.4505 428.702 46.514 428.702 45.3154C428.702 44.1077 428.998 43.1484 429.591 42.4375C430.188 41.7266 430.988 41.3711 431.99 41.3711C432.929 41.3711 433.672 41.681 434.219 42.3008C434.766 42.916 435.039 43.7295 435.039 44.7412V45.459H429.878C429.901 46.3385 430.122 47.0062 430.541 47.4619C430.965 47.9176 431.56 48.1455 432.325 48.1455C433.132 48.1455 433.929 47.9769 434.718 47.6396V48.6514C434.317 48.8245 433.936 48.9476 433.576 49.0205C433.221 49.098 432.79 49.1367 432.284 49.1367ZM431.977 42.3213C431.375 42.3213 430.894 42.5173 430.534 42.9092C430.179 43.3011 429.969 43.8434 429.905 44.5361H433.822C433.822 43.8206 433.663 43.2738 433.344 42.8955C433.025 42.5127 432.569 42.3213 431.977 42.3213Z" fill="#807E7E"/>
<path d="M379.374 81V71.0059H380.536V79.9473H384.945V81H379.374ZM387.611 81H386.477V73.5078H387.611V81ZM386.381 71.4775C386.381 71.2178 386.445 71.0286 386.572 70.9102C386.7 70.7871 386.859 70.7256 387.051 70.7256C387.233 70.7256 387.39 70.7871 387.522 70.9102C387.655 71.0332 387.721 71.2223 387.721 71.4775C387.721 71.7327 387.655 71.9242 387.522 72.0518C387.39 72.1748 387.233 72.2363 387.051 72.2363C386.859 72.2363 386.7 72.1748 386.572 72.0518C386.445 71.9242 386.381 71.7327 386.381 71.4775ZM395.145 81V76.1533C395.145 75.5426 395.006 75.0869 394.728 74.7861C394.45 74.4854 394.014 74.335 393.422 74.335C392.638 74.335 392.064 74.5469 391.699 74.9707C391.335 75.3945 391.152 76.0941 391.152 77.0693V81H390.018V73.5078H390.94L391.125 74.5332H391.18C391.412 74.1641 391.738 73.8792 392.157 73.6787C392.576 73.4736 393.044 73.3711 393.559 73.3711C394.461 73.3711 395.14 73.5898 395.596 74.0273C396.051 74.4603 396.279 75.1553 396.279 76.1123V81H395.145ZM399.738 77.165C399.934 76.887 400.233 76.5225 400.634 76.0713L403.054 73.5078H404.4L401.365 76.7002L404.612 81H403.238L400.593 77.459L399.738 78.1973V81H398.617V70.3633H399.738V76.0029C399.738 76.2536 399.72 76.641 399.684 77.165H399.738ZM412.856 81H411.694V72.0381H408.529V71.0059H416.021V72.0381H412.856V81ZM423.479 81L422.105 76.6045C422.019 76.3356 421.857 75.7249 421.62 74.7725H421.565C421.383 75.57 421.224 76.1852 421.087 76.6182L419.672 81H418.359L416.315 73.5078H417.505C417.988 75.39 418.355 76.8232 418.605 77.8076C418.861 78.792 419.007 79.4551 419.043 79.7969H419.098C419.148 79.5371 419.228 79.2021 419.337 78.792C419.451 78.3773 419.549 78.0492 419.631 77.8076L421.005 73.5078H422.235L423.575 77.8076C423.83 78.5915 424.004 79.25 424.095 79.7832H424.149C424.168 79.6191 424.215 79.3662 424.293 79.0244C424.375 78.6826 424.851 76.8438 425.722 73.5078H426.897L424.826 81H423.479ZM434.725 77.2471C434.725 78.4684 434.417 79.4232 433.802 80.1113C433.187 80.7949 432.337 81.1367 431.252 81.1367C430.582 81.1367 429.987 80.9795 429.468 80.665C428.948 80.3506 428.547 79.8994 428.265 79.3115C427.982 78.7236 427.841 78.0355 427.841 77.2471C427.841 76.0257 428.146 75.0755 428.757 74.3965C429.368 73.7129 430.215 73.3711 431.3 73.3711C432.348 73.3711 433.18 73.7197 433.795 74.417C434.415 75.1143 434.725 76.0576 434.725 77.2471ZM429.017 77.2471C429.017 78.2041 429.208 78.9333 429.591 79.4346C429.974 79.9359 430.536 80.1865 431.279 80.1865C432.022 80.1865 432.585 79.9382 432.968 79.4414C433.355 78.9401 433.549 78.2087 433.549 77.2471C433.549 76.2946 433.355 75.5723 432.968 75.0801C432.585 74.5833 432.018 74.335 431.266 74.335C430.523 74.335 429.962 74.5788 429.584 75.0664C429.206 75.554 429.017 76.2809 429.017 77.2471Z" fill="#807E7E"/>
<path d="M379.374 113V103.006H380.536V111.947H384.945V113H379.374ZM387.611 113H386.477V105.508H387.611V113ZM386.381 103.478C386.381 103.218 386.445 103.029 386.572 102.91C386.7 102.787 386.859 102.726 387.051 102.726C387.233 102.726 387.39 102.787 387.522 102.91C387.655 103.033 387.721 103.222 387.721 103.478C387.721 103.733 387.655 103.924 387.522 104.052C387.39 104.175 387.233 104.236 387.051 104.236C386.859 104.236 386.7 104.175 386.572 104.052C386.445 103.924 386.381 103.733 386.381 103.478ZM395.145 113V108.153C395.145 107.543 395.006 107.087 394.728 106.786C394.45 106.485 394.014 106.335 393.422 106.335C392.638 106.335 392.064 106.547 391.699 106.971C391.335 107.395 391.152 108.094 391.152 109.069V113H390.018V105.508H390.94L391.125 106.533H391.18C391.412 106.164 391.738 105.879 392.157 105.679C392.576 105.474 393.044 105.371 393.559 105.371C394.461 105.371 395.14 105.59 395.596 106.027C396.051 106.46 396.279 107.155 396.279 108.112V113H395.145ZM399.738 109.165C399.934 108.887 400.233 108.522 400.634 108.071L403.054 105.508H404.4L401.365 108.7L404.612 113H403.238L400.593 109.459L399.738 110.197V113H398.617V102.363H399.738V108.003C399.738 108.254 399.72 108.641 399.684 109.165H399.738ZM412.856 113H411.694V104.038H408.529V103.006H416.021V104.038H412.856V113ZM422.488 113V108.153C422.488 107.543 422.349 107.087 422.071 106.786C421.793 106.485 421.358 106.335 420.766 106.335C419.977 106.335 419.401 106.549 419.036 106.978C418.676 107.406 418.496 108.108 418.496 109.083V113H417.361V102.363H418.496V105.583C418.496 105.97 418.478 106.292 418.441 106.547H418.51C418.733 106.187 419.05 105.904 419.46 105.699C419.875 105.49 420.346 105.385 420.875 105.385C421.791 105.385 422.477 105.604 422.933 106.041C423.393 106.474 423.623 107.164 423.623 108.112V113H422.488ZM429.379 105.371C429.712 105.371 430.01 105.398 430.274 105.453L430.117 106.506C429.807 106.438 429.534 106.403 429.297 106.403C428.691 106.403 428.171 106.649 427.738 107.142C427.31 107.634 427.096 108.247 427.096 108.98V113H425.961V105.508H426.897L427.027 106.896H427.082C427.36 106.408 427.695 106.032 428.087 105.768C428.479 105.503 428.91 105.371 429.379 105.371ZM434.841 113.137C433.733 113.137 432.858 112.799 432.216 112.125C431.578 111.451 431.259 110.514 431.259 109.315C431.259 108.108 431.555 107.148 432.147 106.438C432.744 105.727 433.544 105.371 434.547 105.371C435.486 105.371 436.229 105.681 436.775 106.301C437.322 106.916 437.596 107.729 437.596 108.741V109.459H432.435C432.457 110.339 432.678 111.006 433.098 111.462C433.521 111.918 434.116 112.146 434.882 112.146C435.688 112.146 436.486 111.977 437.274 111.64V112.651C436.873 112.825 436.493 112.948 436.133 113.021C435.777 113.098 435.347 113.137 434.841 113.137ZM434.533 106.321C433.932 106.321 433.451 106.517 433.091 106.909C432.735 107.301 432.526 107.843 432.462 108.536H436.379C436.379 107.821 436.219 107.274 435.9 106.896C435.581 106.513 435.126 106.321 434.533 106.321ZM442.702 113.137C441.595 113.137 440.72 112.799 440.077 112.125C439.439 111.451 439.12 110.514 439.12 109.315C439.12 108.108 439.416 107.148 440.009 106.438C440.606 105.727 441.406 105.371 442.408 105.371C443.347 105.371 444.09 105.681 444.637 106.301C445.184 106.916 445.457 107.729 445.457 108.741V109.459H440.296C440.319 110.339 440.54 111.006 440.959 111.462C441.383 111.918 441.978 112.146 442.743 112.146C443.55 112.146 444.347 111.977 445.136 111.64V112.651C444.735 112.825 444.354 112.948 443.994 113.021C443.639 113.098 443.208 113.137 442.702 113.137ZM442.395 106.321C441.793 106.321 441.312 106.517 440.952 106.909C440.597 107.301 440.387 107.843 440.323 108.536H444.24C444.24 107.821 444.081 107.274 443.762 106.896C443.443 106.513 442.987 106.321 442.395 106.321Z" fill="#807E7E"/>
<path d="M379.374 145V135.006H380.536V143.947H384.945V145H379.374ZM387.611 145H386.477V137.508H387.611V145ZM386.381 135.478C386.381 135.218 386.445 135.029 386.572 134.91C386.7 134.787 386.859 134.726 387.051 134.726C387.233 134.726 387.39 134.787 387.522 134.91C387.655 135.033 387.721 135.222 387.721 135.478C387.721 135.733 387.655 135.924 387.522 136.052C387.39 136.175 387.233 136.236 387.051 136.236C386.859 136.236 386.7 136.175 386.572 136.052C386.445 135.924 386.381 135.733 386.381 135.478ZM395.145 145V140.153C395.145 139.543 395.006 139.087 394.728 138.786C394.45 138.485 394.014 138.335 393.422 138.335C392.638 138.335 392.064 138.547 391.699 138.971C391.335 139.395 391.152 140.094 391.152 141.069V145H390.018V137.508H390.94L391.125 138.533H391.18C391.412 138.164 391.738 137.879 392.157 137.679C392.576 137.474 393.044 137.371 393.559 137.371C394.461 137.371 395.14 137.59 395.596 138.027C396.051 138.46 396.279 139.155 396.279 140.112V145H395.145ZM399.738 141.165C399.934 140.887 400.233 140.522 400.634 140.071L403.054 137.508H404.4L401.365 140.7L404.612 145H403.238L400.593 141.459L399.738 142.197V145H398.617V134.363H399.738V140.003C399.738 140.254 399.72 140.641 399.684 141.165H399.738ZM410.942 145H409.78V135.006H415.352V136.038H410.942V139.695H415.085V140.728H410.942V145ZM423.309 141.247C423.309 142.468 423.001 143.423 422.386 144.111C421.771 144.795 420.921 145.137 419.836 145.137C419.166 145.137 418.571 144.979 418.052 144.665C417.532 144.351 417.131 143.899 416.849 143.312C416.566 142.724 416.425 142.035 416.425 141.247C416.425 140.026 416.73 139.076 417.341 138.396C417.951 137.713 418.799 137.371 419.884 137.371C420.932 137.371 421.764 137.72 422.379 138.417C422.999 139.114 423.309 140.058 423.309 141.247ZM417.601 141.247C417.601 142.204 417.792 142.933 418.175 143.435C418.558 143.936 419.12 144.187 419.863 144.187C420.606 144.187 421.169 143.938 421.552 143.441C421.939 142.94 422.133 142.209 422.133 141.247C422.133 140.295 421.939 139.572 421.552 139.08C421.169 138.583 420.602 138.335 419.85 138.335C419.107 138.335 418.546 138.579 418.168 139.066C417.79 139.554 417.601 140.281 417.601 141.247ZM426.371 137.508V142.368C426.371 142.979 426.51 143.435 426.788 143.735C427.066 144.036 427.501 144.187 428.094 144.187C428.878 144.187 429.45 143.972 429.81 143.544C430.174 143.116 430.356 142.416 430.356 141.445V137.508H431.491V145H430.555L430.391 143.995H430.329C430.097 144.364 429.773 144.647 429.358 144.843C428.948 145.039 428.479 145.137 427.95 145.137C427.039 145.137 426.355 144.92 425.899 144.487C425.448 144.054 425.223 143.362 425.223 142.409V137.508H426.371ZM437.322 137.371C437.655 137.371 437.953 137.398 438.218 137.453L438.061 138.506C437.751 138.438 437.477 138.403 437.24 138.403C436.634 138.403 436.115 138.649 435.682 139.142C435.253 139.634 435.039 140.247 435.039 140.98V145H433.904V137.508H434.841L434.971 138.896H435.025C435.303 138.408 435.638 138.032 436.03 137.768C436.422 137.503 436.853 137.371 437.322 137.371Z" fill="#807E7E"/>
<path d="M570.343 17H568.258V7.00586H573.986V8.74219H570.343V11.3193H573.733V13.0488H570.343V17ZM577.438 13.165C577.438 13.9215 577.562 14.4935 577.808 14.8809C578.058 15.2682 578.464 15.4619 579.024 15.4619C579.58 15.4619 579.979 15.2705 580.221 14.8877C580.467 14.5003 580.59 13.9261 580.59 13.165C580.59 12.4085 580.467 11.8411 580.221 11.4629C579.975 11.0846 579.571 10.8955 579.011 10.8955C578.455 10.8955 578.054 11.0846 577.808 11.4629C577.562 11.8366 577.438 12.404 577.438 13.165ZM582.723 13.165C582.723 14.4092 582.395 15.3822 581.738 16.084C581.082 16.7858 580.168 17.1367 578.997 17.1367C578.263 17.1367 577.616 16.9772 577.056 16.6582C576.495 16.3346 576.064 15.8721 575.764 15.2705C575.463 14.6689 575.312 13.9671 575.312 13.165C575.312 11.9163 575.638 10.9456 576.29 10.2529C576.942 9.56022 577.858 9.21387 579.038 9.21387C579.772 9.21387 580.419 9.37337 580.979 9.69238C581.54 10.0114 581.971 10.4694 582.271 11.0664C582.572 11.6634 582.723 12.363 582.723 13.165ZM589.859 17L589.579 16.0225H589.47C589.246 16.3779 588.93 16.6536 588.52 16.8496C588.109 17.041 587.642 17.1367 587.118 17.1367C586.22 17.1367 585.544 16.8975 585.088 16.4189C584.632 15.9359 584.404 15.2432 584.404 14.3408V9.35742H586.489V13.8213C586.489 14.3727 586.587 14.7874 586.783 15.0654C586.979 15.3389 587.291 15.4756 587.72 15.4756C588.303 15.4756 588.725 15.2819 588.984 14.8945C589.244 14.5026 589.374 13.8555 589.374 12.9531V9.35742H591.459V17H589.859ZM597.912 9.21387C598.195 9.21387 598.429 9.23438 598.616 9.27539L598.459 11.2305C598.29 11.1849 598.085 11.1621 597.844 11.1621C597.178 11.1621 596.659 11.333 596.285 11.6748C595.916 12.0166 595.731 12.4951 595.731 13.1104V17H593.646V9.35742H595.226L595.533 10.6426H595.636C595.873 10.2142 596.192 9.87012 596.593 9.61035C596.998 9.34603 597.438 9.21387 597.912 9.21387ZM603.224 15.4756C603.588 15.4756 604.026 15.3958 604.536 15.2363V16.7881C604.017 17.0205 603.379 17.1367 602.622 17.1367C601.788 17.1367 601.18 16.9271 600.797 16.5078C600.419 16.084 600.229 15.4505 600.229 14.6074V10.9229H599.231V10.041L600.38 9.34375L600.981 7.73047H602.314V9.35742H604.454V10.9229H602.314V14.6074C602.314 14.9036 602.396 15.1224 602.561 15.2637C602.729 15.4049 602.95 15.4756 603.224 15.4756ZM613.143 17H611.058V12.5361C611.058 11.4333 610.647 10.8818 609.827 10.8818C609.244 10.8818 608.822 11.0801 608.562 11.4766C608.303 11.873 608.173 12.5156 608.173 13.4043V17H606.088V6.36328H608.173V8.53027C608.173 8.69889 608.157 9.09538 608.125 9.71973L608.077 10.335H608.187C608.651 9.58757 609.39 9.21387 610.401 9.21387C611.299 9.21387 611.98 9.4554 612.445 9.93848C612.91 10.4215 613.143 11.1143 613.143 12.0166V17ZM623.335 8.62598C622.537 8.62598 621.92 8.92676 621.482 9.52832C621.045 10.1253 620.826 10.9593 620.826 12.0303C620.826 14.2588 621.662 15.373 623.335 15.373C624.037 15.373 624.887 15.1976 625.885 14.8467V16.624C625.064 16.9658 624.148 17.1367 623.137 17.1367C621.683 17.1367 620.571 16.6969 619.801 15.8174C619.031 14.9333 618.646 13.6663 618.646 12.0166C618.646 10.9775 618.835 10.0684 619.213 9.28906C619.591 8.50521 620.133 7.90592 620.84 7.49121C621.551 7.07194 622.382 6.8623 623.335 6.8623C624.306 6.8623 625.281 7.09701 626.261 7.56641L625.577 9.28906C625.203 9.11133 624.827 8.95638 624.449 8.82422C624.071 8.69206 623.7 8.62598 623.335 8.62598ZM629.515 13.165C629.515 13.9215 629.638 14.4935 629.884 14.8809C630.134 15.2682 630.54 15.4619 631.101 15.4619C631.657 15.4619 632.055 15.2705 632.297 14.8877C632.543 14.5003 632.666 13.9261 632.666 13.165C632.666 12.4085 632.543 11.8411 632.297 11.4629C632.051 11.0846 631.647 10.8955 631.087 10.8955C630.531 10.8955 630.13 11.0846 629.884 11.4629C629.638 11.8366 629.515 12.404 629.515 13.165ZM634.799 13.165C634.799 14.4092 634.471 15.3822 633.814 16.084C633.158 16.7858 632.244 17.1367 631.073 17.1367C630.34 17.1367 629.692 16.9772 629.132 16.6582C628.571 16.3346 628.141 15.8721 627.84 15.2705C627.539 14.6689 627.389 13.9671 627.389 13.165C627.389 11.9163 627.715 10.9456 628.366 10.2529C629.018 9.56022 629.934 9.21387 631.114 9.21387C631.848 9.21387 632.495 9.37337 633.056 9.69238C633.616 10.0114 634.047 10.4694 634.348 11.0664C634.648 11.6634 634.799 12.363 634.799 13.165ZM638.606 17H636.521V6.36328H638.606V17ZM646.215 17L645.935 16.0225H645.825C645.602 16.3779 645.285 16.6536 644.875 16.8496C644.465 17.041 643.998 17.1367 643.474 17.1367C642.576 17.1367 641.899 16.8975 641.443 16.4189C640.988 15.9359 640.76 15.2432 640.76 14.3408V9.35742H642.845V13.8213C642.845 14.3727 642.943 14.7874 643.139 15.0654C643.335 15.3389 643.647 15.4756 644.075 15.4756C644.659 15.4756 645.08 15.2819 645.34 14.8945C645.6 14.5026 645.729 13.8555 645.729 12.9531V9.35742H647.814V17H646.215ZM656.845 17H654.76V12.5361C654.76 11.9847 654.666 11.5723 654.479 11.2988C654.297 11.0208 654.008 10.8818 653.611 10.8818C653.078 10.8818 652.691 11.0778 652.449 11.4697C652.208 11.8617 652.087 12.5065 652.087 13.4043V17H650.002V9.35742H651.595L651.875 10.335H651.991C652.196 9.98405 652.493 9.71061 652.88 9.51465C653.267 9.31413 653.712 9.21387 654.213 9.21387C655.357 9.21387 656.132 9.58757 656.537 10.335H656.722C656.927 9.97949 657.228 9.70378 657.624 9.50781C658.025 9.31185 658.476 9.21387 658.978 9.21387C659.843 9.21387 660.497 9.43717 660.939 9.88379C661.386 10.3258 661.609 11.0368 661.609 12.0166V17H659.518V12.5361C659.518 11.9847 659.424 11.5723 659.237 11.2988C659.055 11.0208 658.766 10.8818 658.369 10.8818C657.859 10.8818 657.476 11.0641 657.221 11.4287C656.97 11.7933 656.845 12.3721 656.845 13.165V17ZM670.811 17H668.726V12.5361C668.726 11.9847 668.628 11.5723 668.432 11.2988C668.236 11.0208 667.924 10.8818 667.495 10.8818C666.912 10.8818 666.49 11.0778 666.23 11.4697C665.971 11.8571 665.841 12.502 665.841 13.4043V17H663.756V9.35742H665.349L665.629 10.335H665.745C665.978 9.96582 666.297 9.68783 666.702 9.50098C667.112 9.30957 667.577 9.21387 668.097 9.21387C668.985 9.21387 669.66 9.4554 670.12 9.93848C670.58 10.417 670.811 11.1097 670.811 12.0166V17Z" fill="#212121"/>
<path d="M568.374 49V39.0059H569.536V47.9473H573.945V49H568.374ZM576.611 49H575.477V41.5078H576.611V49ZM575.381 39.4775C575.381 39.2178 575.445 39.0286 575.572 38.9102C575.7 38.7871 575.859 38.7256 576.051 38.7256C576.233 38.7256 576.39 38.7871 576.522 38.9102C576.655 39.0332 576.721 39.2223 576.721 39.4775C576.721 39.7327 576.655 39.9242 576.522 40.0518C576.39 40.1748 576.233 40.2363 576.051 40.2363C575.859 40.2363 575.7 40.1748 575.572 40.0518C575.445 39.9242 575.381 39.7327 575.381 39.4775ZM584.145 49V44.1533C584.145 43.5426 584.006 43.0869 583.728 42.7861C583.45 42.4854 583.014 42.335 582.422 42.335C581.638 42.335 581.064 42.5469 580.699 42.9707C580.335 43.3945 580.152 44.0941 580.152 45.0693V49H579.018V41.5078H579.94L580.125 42.5332H580.18C580.412 42.1641 580.738 41.8792 581.157 41.6787C581.576 41.4736 582.044 41.3711 582.559 41.3711C583.461 41.3711 584.14 41.5898 584.596 42.0273C585.051 42.4603 585.279 43.1553 585.279 44.1123V49H584.145ZM588.738 45.165C588.934 44.887 589.233 44.5225 589.634 44.0713L592.054 41.5078H593.4L590.365 44.7002L593.612 49H592.238L589.593 45.459L588.738 46.1973V49H587.617V38.3633H588.738V44.0029C588.738 44.2536 588.72 44.641 588.684 45.165H588.738ZM607.455 43.9893C607.455 45.5889 607.049 46.8467 606.238 47.7627C605.432 48.6787 604.308 49.1367 602.868 49.1367C601.396 49.1367 600.259 48.6878 599.457 47.79C598.66 46.8877 598.261 45.6162 598.261 43.9756C598.261 42.3486 598.662 41.0885 599.464 40.1953C600.266 39.2975 601.405 38.8486 602.882 38.8486C604.317 38.8486 605.438 39.3044 606.245 40.2158C607.052 41.1273 607.455 42.3851 607.455 43.9893ZM599.491 43.9893C599.491 45.3428 599.778 46.3704 600.353 47.0723C600.931 47.7695 601.77 48.1182 602.868 48.1182C603.976 48.1182 604.812 47.7695 605.377 47.0723C605.942 46.375 606.225 45.3473 606.225 43.9893C606.225 42.6449 605.942 41.6263 605.377 40.9336C604.816 40.2363 603.985 39.8877 602.882 39.8877C601.774 39.8877 600.931 40.2386 600.353 40.9404C599.778 41.6377 599.491 42.654 599.491 43.9893ZM614.646 49V44.1533C614.646 43.5426 614.507 43.0869 614.229 42.7861C613.951 42.4854 613.516 42.335 612.924 42.335C612.14 42.335 611.566 42.5469 611.201 42.9707C610.837 43.3945 610.654 44.0941 610.654 45.0693V49H609.52V41.5078H610.442L610.627 42.5332H610.682C610.914 42.1641 611.24 41.8792 611.659 41.6787C612.078 41.4736 612.546 41.3711 613.061 41.3711C613.963 41.3711 614.642 41.5898 615.098 42.0273C615.553 42.4603 615.781 43.1553 615.781 44.1123V49H614.646ZM621.284 49.1367C620.177 49.1367 619.302 48.7995 618.659 48.125C618.021 47.4505 617.702 46.514 617.702 45.3154C617.702 44.1077 617.998 43.1484 618.591 42.4375C619.188 41.7266 619.988 41.3711 620.99 41.3711C621.929 41.3711 622.672 41.681 623.219 42.3008C623.766 42.916 624.039 43.7295 624.039 44.7412V45.459H618.878C618.901 46.3385 619.122 47.0062 619.541 47.4619C619.965 47.9176 620.56 48.1455 621.325 48.1455C622.132 48.1455 622.929 47.9769 623.718 47.6396V48.6514C623.317 48.8245 622.936 48.9476 622.576 49.0205C622.221 49.098 621.79 49.1367 621.284 49.1367ZM620.977 42.3213C620.375 42.3213 619.894 42.5173 619.534 42.9092C619.179 43.3011 618.969 43.8434 618.905 44.5361H622.822C622.822 43.8206 622.663 43.2738 622.344 42.8955C622.025 42.5127 621.569 42.3213 620.977 42.3213Z" fill="#807E7E"/>
<path d="M568.374 81V71.0059H569.536V79.9473H573.945V81H568.374ZM576.611 81H575.477V73.5078H576.611V81ZM575.381 71.4775C575.381 71.2178 575.445 71.0286 575.572 70.9102C575.7 70.7871 575.859 70.7256 576.051 70.7256C576.233 70.7256 576.39 70.7871 576.522 70.9102C576.655 71.0332 576.721 71.2223 576.721 71.4775C576.721 71.7327 576.655 71.9242 576.522 72.0518C576.39 72.1748 576.233 72.2363 576.051 72.2363C575.859 72.2363 575.7 72.1748 575.572 72.0518C575.445 71.9242 575.381 71.7327 575.381 71.4775ZM584.145 81V76.1533C584.145 75.5426 584.006 75.0869 583.728 74.7861C583.45 74.4854 583.014 74.335 582.422 74.335C581.638 74.335 581.064 74.5469 580.699 74.9707C580.335 75.3945 580.152 76.0941 580.152 77.0693V81H579.018V73.5078H579.94L580.125 74.5332H580.18C580.412 74.1641 580.738 73.8792 581.157 73.6787C581.576 73.4736 582.044 73.3711 582.559 73.3711C583.461 73.3711 584.14 73.5898 584.596 74.0273C585.051 74.4603 585.279 75.1553 585.279 76.1123V81H584.145ZM588.738 77.165C588.934 76.887 589.233 76.5225 589.634 76.0713L592.054 73.5078H593.4L590.365 76.7002L593.612 81H592.238L589.593 77.459L588.738 78.1973V81H587.617V70.3633H588.738V76.0029C588.738 76.2536 588.72 76.641 588.684 77.165H588.738ZM601.856 81H600.694V72.0381H597.529V71.0059H605.021V72.0381H601.856V81ZM612.479 81L611.105 76.6045C611.019 76.3356 610.857 75.7249 610.62 74.7725H610.565C610.383 75.57 610.224 76.1852 610.087 76.6182L608.672 81H607.359L605.315 73.5078H606.505C606.988 75.39 607.355 76.8232 607.605 77.8076C607.861 78.792 608.007 79.4551 608.043 79.7969H608.098C608.148 79.5371 608.228 79.2021 608.337 78.792C608.451 78.3773 608.549 78.0492 608.631 77.8076L610.005 73.5078H611.235L612.575 77.8076C612.83 78.5915 613.004 79.25 613.095 79.7832H613.149C613.168 79.6191 613.215 79.3662 613.293 79.0244C613.375 78.6826 613.851 76.8438 614.722 73.5078H615.897L613.826 81H612.479ZM623.725 77.2471C623.725 78.4684 623.417 79.4232 622.802 80.1113C622.187 80.7949 621.337 81.1367 620.252 81.1367C619.582 81.1367 618.987 80.9795 618.468 80.665C617.948 80.3506 617.547 79.8994 617.265 79.3115C616.982 78.7236 616.841 78.0355 616.841 77.2471C616.841 76.0257 617.146 75.0755 617.757 74.3965C618.368 73.7129 619.215 73.3711 620.3 73.3711C621.348 73.3711 622.18 73.7197 622.795 74.417C623.415 75.1143 623.725 76.0576 623.725 77.2471ZM618.017 77.2471C618.017 78.2041 618.208 78.9333 618.591 79.4346C618.974 79.9359 619.536 80.1865 620.279 80.1865C621.022 80.1865 621.585 79.9382 621.968 79.4414C622.355 78.9401 622.549 78.2087 622.549 77.2471C622.549 76.2946 622.355 75.5723 621.968 75.0801C621.585 74.5833 621.018 74.335 620.266 74.335C619.523 74.335 618.962 74.5788 618.584 75.0664C618.206 75.554 618.017 76.2809 618.017 77.2471Z" fill="#807E7E"/>
<path d="M568.374 113V103.006H569.536V111.947H573.945V113H568.374ZM576.611 113H575.477V105.508H576.611V113ZM575.381 103.478C575.381 103.218 575.445 103.029 575.572 102.91C575.7 102.787 575.859 102.726 576.051 102.726C576.233 102.726 576.39 102.787 576.522 102.91C576.655 103.033 576.721 103.222 576.721 103.478C576.721 103.733 576.655 103.924 576.522 104.052C576.39 104.175 576.233 104.236 576.051 104.236C575.859 104.236 575.7 104.175 575.572 104.052C575.445 103.924 575.381 103.733 575.381 103.478ZM584.145 113V108.153C584.145 107.543 584.006 107.087 583.728 106.786C583.45 106.485 583.014 106.335 582.422 106.335C581.638 106.335 581.064 106.547 580.699 106.971C580.335 107.395 580.152 108.094 580.152 109.069V113H579.018V105.508H579.94L580.125 106.533H580.18C580.412 106.164 580.738 105.879 581.157 105.679C581.576 105.474 582.044 105.371 582.559 105.371C583.461 105.371 584.14 105.59 584.596 106.027C585.051 106.46 585.279 107.155 585.279 108.112V113H584.145ZM588.738 109.165C588.934 108.887 589.233 108.522 589.634 108.071L592.054 105.508H593.4L590.365 108.7L593.612 113H592.238L589.593 109.459L588.738 110.197V113H587.617V102.363H588.738V108.003C588.738 108.254 588.72 108.641 588.684 109.165H588.738ZM601.856 113H600.694V104.038H597.529V103.006H605.021V104.038H601.856V113ZM611.488 113V108.153C611.488 107.543 611.349 107.087 611.071 106.786C610.793 106.485 610.358 106.335 609.766 106.335C608.977 106.335 608.401 106.549 608.036 106.978C607.676 107.406 607.496 108.108 607.496 109.083V113H606.361V102.363H607.496V105.583C607.496 105.97 607.478 106.292 607.441 106.547H607.51C607.733 106.187 608.05 105.904 608.46 105.699C608.875 105.49 609.346 105.385 609.875 105.385C610.791 105.385 611.477 105.604 611.933 106.041C612.393 106.474 612.623 107.164 612.623 108.112V113H611.488ZM618.379 105.371C618.712 105.371 619.01 105.398 619.274 105.453L619.117 106.506C618.807 106.438 618.534 106.403 618.297 106.403C617.691 106.403 617.171 106.649 616.738 107.142C616.31 107.634 616.096 108.247 616.096 108.98V113H614.961V105.508H615.897L616.027 106.896H616.082C616.36 106.408 616.695 106.032 617.087 105.768C617.479 105.503 617.91 105.371 618.379 105.371ZM623.841 113.137C622.733 113.137 621.858 112.799 621.216 112.125C620.578 111.451 620.259 110.514 620.259 109.315C620.259 108.108 620.555 107.148 621.147 106.438C621.744 105.727 622.544 105.371 623.547 105.371C624.486 105.371 625.229 105.681 625.775 106.301C626.322 106.916 626.596 107.729 626.596 108.741V109.459H621.435C621.457 110.339 621.678 111.006 622.098 111.462C622.521 111.918 623.116 112.146 623.882 112.146C624.688 112.146 625.486 111.977 626.274 111.64V112.651C625.873 112.825 625.493 112.948 625.133 113.021C624.777 113.098 624.347 113.137 623.841 113.137ZM623.533 106.321C622.932 106.321 622.451 106.517 622.091 106.909C621.735 107.301 621.526 107.843 621.462 108.536H625.379C625.379 107.821 625.219 107.274 624.9 106.896C624.581 106.513 624.126 106.321 623.533 106.321ZM631.702 113.137C630.595 113.137 629.72 112.799 629.077 112.125C628.439 111.451 628.12 110.514 628.12 109.315C628.12 108.108 628.416 107.148 629.009 106.438C629.606 105.727 630.406 105.371 631.408 105.371C632.347 105.371 633.09 105.681 633.637 106.301C634.184 106.916 634.457 107.729 634.457 108.741V109.459H629.296C629.319 110.339 629.54 111.006 629.959 111.462C630.383 111.918 630.978 112.146 631.743 112.146C632.55 112.146 633.347 111.977 634.136 111.64V112.651C633.735 112.825 633.354 112.948 632.994 113.021C632.639 113.098 632.208 113.137 631.702 113.137ZM631.395 106.321C630.793 106.321 630.312 106.517 629.952 106.909C629.597 107.301 629.387 107.843 629.323 108.536H633.24C633.24 107.821 633.081 107.274 632.762 106.896C632.443 106.513 631.987 106.321 631.395 106.321Z" fill="#807E7E"/>
<path d="M568.374 145V135.006H569.536V143.947H573.945V145H568.374ZM576.611 145H575.477V137.508H576.611V145ZM575.381 135.478C575.381 135.218 575.445 135.029 575.572 134.91C575.7 134.787 575.859 134.726 576.051 134.726C576.233 134.726 576.39 134.787 576.522 134.91C576.655 135.033 576.721 135.222 576.721 135.478C576.721 135.733 576.655 135.924 576.522 136.052C576.39 136.175 576.233 136.236 576.051 136.236C575.859 136.236 575.7 136.175 575.572 136.052C575.445 135.924 575.381 135.733 575.381 135.478ZM584.145 145V140.153C584.145 139.543 584.006 139.087 583.728 138.786C583.45 138.485 583.014 138.335 582.422 138.335C581.638 138.335 581.064 138.547 580.699 138.971C580.335 139.395 580.152 140.094 580.152 141.069V145H579.018V137.508H579.94L580.125 138.533H580.18C580.412 138.164 580.738 137.879 581.157 137.679C581.576 137.474 582.044 137.371 582.559 137.371C583.461 137.371 584.14 137.59 584.596 138.027C585.051 138.46 585.279 139.155 585.279 140.112V145H584.145ZM588.738 141.165C588.934 140.887 589.233 140.522 589.634 140.071L592.054 137.508H593.4L590.365 140.7L593.612 145H592.238L589.593 141.459L588.738 142.197V145H587.617V134.363H588.738V140.003C588.738 140.254 588.72 140.641 588.684 141.165H588.738ZM599.942 145H598.78V135.006H604.352V136.038H599.942V139.695H604.085V140.728H599.942V145ZM612.309 141.247C612.309 142.468 612.001 143.423 611.386 144.111C610.771 144.795 609.921 145.137 608.836 145.137C608.166 145.137 607.571 144.979 607.052 144.665C606.532 144.351 606.131 143.899 605.849 143.312C605.566 142.724 605.425 142.035 605.425 141.247C605.425 140.026 605.73 139.076 606.341 138.396C606.951 137.713 607.799 137.371 608.884 137.371C609.932 137.371 610.764 137.72 611.379 138.417C611.999 139.114 612.309 140.058 612.309 141.247ZM606.601 141.247C606.601 142.204 606.792 142.933 607.175 143.435C607.558 143.936 608.12 144.187 608.863 144.187C609.606 144.187 610.169 143.938 610.552 143.441C610.939 142.94 611.133 142.209 611.133 141.247C611.133 140.295 610.939 139.572 610.552 139.08C610.169 138.583 609.602 138.335 608.85 138.335C608.107 138.335 607.546 138.579 607.168 139.066C606.79 139.554 606.601 140.281 606.601 141.247ZM615.371 137.508V142.368C615.371 142.979 615.51 143.435 615.788 143.735C616.066 144.036 616.501 144.187 617.094 144.187C617.878 144.187 618.45 143.972 618.81 143.544C619.174 143.116 619.356 142.416 619.356 141.445V137.508H620.491V145H619.555L619.391 143.995H619.329C619.097 144.364 618.773 144.647 618.358 144.843C617.948 145.039 617.479 145.137 616.95 145.137C616.039 145.137 615.355 144.92 614.899 144.487C614.448 144.054 614.223 143.362 614.223 142.409V137.508H615.371ZM626.322 137.371C626.655 137.371 626.953 137.398 627.218 137.453L627.061 138.506C626.751 138.438 626.477 138.403 626.24 138.403C625.634 138.403 625.115 138.649 624.682 139.142C624.253 139.634 624.039 140.247 624.039 140.98V145H622.904V137.508H623.841L623.971 138.896H624.025C624.303 138.408 624.638 138.032 625.03 137.768C625.422 137.503 625.853 137.371 626.322 137.371Z" fill="#807E7E"/>
<path d="M957.492 20H955.977L949.734 10.4141H949.672C949.755 11.5391 949.797 12.5703 949.797 13.5078V20H948.57V8.57812H950.07L956.297 18.125H956.359C956.349 17.9844 956.326 17.5339 956.289 16.7734C956.253 16.0078 956.24 15.4609 956.25 15.1328V8.57812H957.492V20ZM964.055 20.1562C962.789 20.1562 961.789 19.7708 961.055 19C960.326 18.2292 959.961 17.1589 959.961 15.7891C959.961 14.4089 960.299 13.3125 960.977 12.5C961.659 11.6875 962.573 11.2812 963.719 11.2812C964.792 11.2812 965.641 11.6354 966.266 12.3438C966.891 13.0469 967.203 13.9766 967.203 15.1328V15.9531H961.305C961.331 16.9583 961.583 17.7214 962.062 18.2422C962.547 18.763 963.227 19.0234 964.102 19.0234C965.023 19.0234 965.935 18.8307 966.836 18.4453V19.6016C966.378 19.7995 965.943 19.9401 965.531 20.0234C965.125 20.112 964.633 20.1562 964.055 20.1562ZM963.703 12.3672C963.016 12.3672 962.466 12.5911 962.055 13.0391C961.648 13.487 961.409 14.1068 961.336 14.8984H965.812C965.812 14.0807 965.63 13.4557 965.266 13.0234C964.901 12.5859 964.38 12.3672 963.703 12.3672ZM971.297 20L968.047 11.4375H969.438L971.281 16.5156C971.698 17.7031 971.943 18.474 972.016 18.8281H972.078C972.135 18.5521 972.315 17.9818 972.617 17.1172C972.924 16.2474 973.609 14.3542 974.672 11.4375H976.062L972.812 20H971.297ZM981.055 20.1562C979.789 20.1562 978.789 19.7708 978.055 19C977.326 18.2292 976.961 17.1589 976.961 15.7891C976.961 14.4089 977.299 13.3125 977.977 12.5C978.659 11.6875 979.573 11.2812 980.719 11.2812C981.792 11.2812 982.641 11.6354 983.266 12.3438C983.891 13.0469 984.203 13.9766 984.203 15.1328V15.9531H978.305C978.331 16.9583 978.583 17.7214 979.062 18.2422C979.547 18.763 980.227 19.0234 981.102 19.0234C982.023 19.0234 982.935 18.8307 983.836 18.4453V19.6016C983.378 19.7995 982.943 19.9401 982.531 20.0234C982.125 20.112 981.633 20.1562 981.055 20.1562ZM980.703 12.3672C980.016 12.3672 979.466 12.5911 979.055 13.0391C978.648 13.487 978.409 14.1068 978.336 14.8984H982.812C982.812 14.0807 982.63 13.4557 982.266 13.0234C981.901 12.5859 981.38 12.3672 980.703 12.3672ZM990.328 11.2812C990.708 11.2812 991.049 11.3125 991.352 11.375L991.172 12.5781C990.818 12.5 990.505 12.4609 990.234 12.4609C989.542 12.4609 988.948 12.7422 988.453 13.3047C987.964 13.8672 987.719 14.5677 987.719 15.4062V20H986.422V11.4375H987.492L987.641 13.0234H987.703C988.021 12.4661 988.404 12.0365 988.852 11.7344C989.299 11.4323 989.792 11.2812 990.328 11.2812ZM1008.02 20V14.4297C1008.02 13.7474 1007.88 13.237 1007.59 12.8984C1007.29 12.5547 1006.84 12.3828 1006.23 12.3828C1005.42 12.3828 1004.82 12.6146 1004.44 13.0781C1004.05 13.5417 1003.86 14.2552 1003.86 15.2188V20H1002.56V14.4297C1002.56 13.7474 1002.42 13.237 1002.12 12.8984C1001.83 12.5547 1001.38 12.3828 1000.76 12.3828C999.945 12.3828 999.349 12.6276 998.969 13.1172C998.594 13.6016 998.406 14.3984 998.406 15.5078V20H997.109V11.4375H998.164L998.375 12.6094H998.438C998.682 12.1927 999.026 11.8672 999.469 11.6328C999.917 11.3984 1000.42 11.2812 1000.97 11.2812C1002.31 11.2812 1003.18 11.7656 1003.59 12.7344H1003.66C1003.91 12.2865 1004.28 11.9323 1004.77 11.6719C1005.25 11.4115 1005.8 11.2812 1006.42 11.2812C1007.39 11.2812 1008.11 11.5312 1008.59 12.0312C1009.08 12.526 1009.32 13.3203 1009.32 14.4141V20H1008.02ZM1013.3 20H1012V11.4375H1013.3V20ZM1011.89 9.11719C1011.89 8.82031 1011.96 8.60417 1012.11 8.46875C1012.26 8.32812 1012.44 8.25781 1012.66 8.25781C1012.86 8.25781 1013.04 8.32812 1013.2 8.46875C1013.35 8.60938 1013.42 8.82552 1013.42 9.11719C1013.42 9.40885 1013.35 9.6276 1013.2 9.77344C1013.04 9.91406 1012.86 9.98438 1012.66 9.98438C1012.44 9.98438 1012.26 9.91406 1012.11 9.77344C1011.96 9.6276 1011.89 9.40885 1011.89 9.11719ZM1021.57 17.6641C1021.57 18.4609 1021.27 19.0755 1020.68 19.5078C1020.09 19.9401 1019.25 20.1562 1018.18 20.1562C1017.04 20.1562 1016.16 19.9766 1015.52 19.6172V18.4141C1015.93 18.6224 1016.38 18.7865 1016.84 18.9062C1017.32 19.026 1017.77 19.0859 1018.21 19.0859C1018.89 19.0859 1019.41 18.9792 1019.77 18.7656C1020.14 18.5469 1020.32 18.2161 1020.32 17.7734C1020.32 17.4401 1020.17 17.1562 1019.88 16.9219C1019.6 16.6823 1019.03 16.401 1018.2 16.0781C1017.4 15.7812 1016.83 15.5234 1016.49 15.3047C1016.16 15.0807 1015.91 14.8281 1015.74 14.5469C1015.58 14.2656 1015.5 13.9297 1015.5 13.5391C1015.5 12.8411 1015.78 12.2917 1016.35 11.8906C1016.92 11.4844 1017.7 11.2812 1018.69 11.2812C1019.61 11.2812 1020.51 11.4688 1021.39 11.8438L1020.93 12.8984C1020.07 12.5443 1019.29 12.3672 1018.59 12.3672C1017.98 12.3672 1017.52 12.4635 1017.2 12.6562C1016.89 12.849 1016.73 13.1146 1016.73 13.4531C1016.73 13.6823 1016.79 13.8776 1016.91 14.0391C1017.03 14.2005 1017.22 14.3542 1017.48 14.5C1017.74 14.6458 1018.24 14.8568 1018.98 15.1328C1019.99 15.5026 1020.68 15.875 1021.03 16.25C1021.39 16.625 1021.57 17.0964 1021.57 17.6641ZM1029.21 17.6641C1029.21 18.4609 1028.91 19.0755 1028.32 19.5078C1027.73 19.9401 1026.89 20.1562 1025.82 20.1562C1024.68 20.1562 1023.8 19.9766 1023.16 19.6172V18.4141C1023.58 18.6224 1024.02 18.7865 1024.48 18.9062C1024.96 19.026 1025.41 19.0859 1025.85 19.0859C1026.53 19.0859 1027.05 18.9792 1027.41 18.7656C1027.78 18.5469 1027.96 18.2161 1027.96 17.7734C1027.96 17.4401 1027.82 17.1562 1027.52 16.9219C1027.24 16.6823 1026.67 16.401 1025.84 16.0781C1025.04 15.7812 1024.47 15.5234 1024.13 15.3047C1023.8 15.0807 1023.55 14.8281 1023.38 14.5469C1023.22 14.2656 1023.14 13.9297 1023.14 13.5391C1023.14 12.8411 1023.42 12.2917 1023.99 11.8906C1024.56 11.4844 1025.34 11.2812 1026.33 11.2812C1027.25 11.2812 1028.15 11.4688 1029.03 11.8438L1028.57 12.8984C1027.71 12.5443 1026.93 12.3672 1026.23 12.3672C1025.62 12.3672 1025.16 12.4635 1024.84 12.6562C1024.53 12.849 1024.38 13.1146 1024.38 13.4531C1024.38 13.6823 1024.43 13.8776 1024.55 14.0391C1024.67 14.2005 1024.86 14.3542 1025.12 14.5C1025.38 14.6458 1025.88 14.8568 1026.62 15.1328C1027.63 15.5026 1028.32 15.875 1028.67 16.25C1029.03 16.625 1029.21 17.0964 1029.21 17.6641ZM1040.75 20L1040.49 18.7812H1040.43C1040 19.3177 1039.58 19.6823 1039.15 19.875C1038.73 20.0625 1038.2 20.1562 1037.56 20.1562C1036.71 20.1562 1036.05 19.9375 1035.56 19.5C1035.08 19.0625 1034.84 18.4401 1034.84 17.6328C1034.84 15.9036 1036.23 14.9974 1038.99 14.9141L1040.45 14.8672V14.3359C1040.45 13.6641 1040.3 13.1693 1040.01 12.8516C1039.72 12.5286 1039.26 12.3672 1038.62 12.3672C1037.91 12.3672 1037.1 12.5859 1036.2 13.0234L1035.8 12.0312C1036.23 11.8021 1036.69 11.6224 1037.19 11.4922C1037.69 11.362 1038.2 11.2969 1038.7 11.2969C1039.72 11.2969 1040.48 11.5234 1040.97 11.9766C1041.46 12.4297 1041.71 13.1562 1041.71 14.1562V20H1040.75ZM1037.82 19.0859C1038.63 19.0859 1039.26 18.8646 1039.72 18.4219C1040.18 17.9792 1040.41 17.3594 1040.41 16.5625V15.7891L1039.12 15.8438C1038.09 15.8802 1037.34 16.0417 1036.88 16.3281C1036.43 16.6094 1036.2 17.0495 1036.2 17.6484C1036.2 18.1172 1036.34 18.474 1036.62 18.7188C1036.91 18.9635 1037.31 19.0859 1037.82 19.0859ZM1050.25 20V14.4609C1050.25 13.763 1050.09 13.2422 1049.77 12.8984C1049.46 12.5547 1048.96 12.3828 1048.28 12.3828C1047.39 12.3828 1046.73 12.625 1046.31 13.1094C1045.9 13.5938 1045.69 14.3932 1045.69 15.5078V20H1044.39V11.4375H1045.45L1045.66 12.6094H1045.72C1045.98 12.1875 1046.36 11.862 1046.84 11.6328C1047.32 11.3984 1047.85 11.2812 1048.44 11.2812C1049.47 11.2812 1050.24 11.5312 1050.77 12.0312C1051.29 12.526 1051.55 13.3203 1051.55 14.4141V20H1050.25ZM1059.59 11.4375V16.9922C1059.59 17.6901 1059.75 18.2109 1060.07 18.5547C1060.39 18.8984 1060.89 19.0703 1061.56 19.0703C1062.46 19.0703 1063.11 18.8255 1063.52 18.3359C1063.94 17.8464 1064.15 17.0469 1064.15 15.9375V11.4375H1065.45V20H1064.38L1064.19 18.8516H1064.12C1063.85 19.2734 1063.48 19.5964 1063.01 19.8203C1062.54 20.0443 1062 20.1562 1061.4 20.1562C1060.36 20.1562 1059.58 19.9089 1059.05 19.4141C1058.54 18.9193 1058.28 18.1276 1058.28 17.0391V11.4375H1059.59ZM1072.19 20.1562C1071.63 20.1562 1071.12 20.0547 1070.66 19.8516C1070.2 19.6432 1069.81 19.3255 1069.5 18.8984H1069.41C1069.47 19.3984 1069.5 19.8724 1069.5 20.3203V23.8438H1068.2V11.4375H1069.26L1069.44 12.6094H1069.5C1069.83 12.1406 1070.22 11.8021 1070.66 11.5938C1071.11 11.3854 1071.61 11.2812 1072.19 11.2812C1073.32 11.2812 1074.2 11.6693 1074.81 12.4453C1075.43 13.2214 1075.74 14.3099 1075.74 15.7109C1075.74 17.1172 1075.43 18.2109 1074.8 18.9922C1074.17 19.7682 1073.3 20.1562 1072.19 20.1562ZM1072 12.3828C1071.12 12.3828 1070.49 12.625 1070.1 13.1094C1069.71 13.5938 1069.51 14.3646 1069.5 15.4219V15.7109C1069.5 16.9141 1069.7 17.776 1070.1 18.2969C1070.5 18.8125 1071.15 19.0703 1072.03 19.0703C1072.77 19.0703 1073.35 18.7708 1073.77 18.1719C1074.19 17.5729 1074.4 16.7474 1074.4 15.6953C1074.4 14.6276 1074.19 13.8099 1073.77 13.2422C1073.35 12.6693 1072.76 12.3828 1072 12.3828ZM1083.84 18.8516H1083.77C1083.17 19.7214 1082.28 20.1562 1081.09 20.1562C1079.97 20.1562 1079.09 19.7734 1078.47 19.0078C1077.85 18.2422 1077.54 17.1536 1077.54 15.7422C1077.54 14.3307 1077.85 13.2344 1078.48 12.4531C1079.1 11.6719 1079.97 11.2812 1081.09 11.2812C1082.25 11.2812 1083.14 11.7031 1083.76 12.5469H1083.86L1083.8 11.9297L1083.77 11.3281V7.84375H1085.07V20H1084.02L1083.84 18.8516ZM1081.25 19.0703C1082.14 19.0703 1082.78 18.8307 1083.17 18.3516C1083.57 17.8672 1083.77 17.0885 1083.77 16.0156V15.7422C1083.77 14.5286 1083.57 13.6641 1083.16 13.1484C1082.76 12.6276 1082.12 12.3672 1081.23 12.3672C1080.47 12.3672 1079.89 12.6641 1079.48 13.2578C1079.08 13.8464 1078.88 14.6797 1078.88 15.7578C1078.88 16.8516 1079.08 17.6771 1079.48 18.2344C1079.89 18.7917 1080.47 19.0703 1081.25 19.0703ZM1093.09 20L1092.84 18.7812H1092.77C1092.35 19.3177 1091.92 19.6823 1091.49 19.875C1091.07 20.0625 1090.54 20.1562 1089.91 20.1562C1089.06 20.1562 1088.39 19.9375 1087.91 19.5C1087.43 19.0625 1087.19 18.4401 1087.19 17.6328C1087.19 15.9036 1088.57 14.9974 1091.34 14.9141L1092.79 14.8672V14.3359C1092.79 13.6641 1092.64 13.1693 1092.35 12.8516C1092.07 12.5286 1091.6 12.3672 1090.97 12.3672C1090.26 12.3672 1089.45 12.5859 1088.55 13.0234L1088.15 12.0312C1088.57 11.8021 1089.03 11.6224 1089.53 11.4922C1090.04 11.362 1090.54 11.2969 1091.05 11.2969C1092.07 11.2969 1092.82 11.5234 1093.31 11.9766C1093.81 12.4297 1094.05 13.1562 1094.05 14.1562V20H1093.09ZM1090.16 19.0859C1090.97 19.0859 1091.6 18.8646 1092.06 18.4219C1092.53 17.9792 1092.76 17.3594 1092.76 16.5625V15.7891L1091.46 15.8438C1090.43 15.8802 1089.68 16.0417 1089.23 16.3281C1088.77 16.6094 1088.55 17.0495 1088.55 17.6484C1088.55 18.1172 1088.69 18.474 1088.97 18.7188C1089.26 18.9635 1089.65 19.0859 1090.16 19.0859ZM1099.5 19.0859C1099.73 19.0859 1099.95 19.0703 1100.16 19.0391C1100.38 19.0026 1100.55 18.9661 1100.67 18.9297V19.9219C1100.53 19.9896 1100.32 20.0443 1100.05 20.0859C1099.78 20.1328 1099.53 20.1562 1099.31 20.1562C1097.66 20.1562 1096.83 19.2839 1096.83 17.5391V12.4453H1095.6V11.8203L1096.83 11.2812L1097.38 9.45312H1098.12V11.4375H1100.61V12.4453H1098.12V17.4844C1098.12 18 1098.25 18.3958 1098.49 18.6719C1098.74 18.9479 1099.07 19.0859 1099.5 19.0859ZM1106.01 20.1562C1104.74 20.1562 1103.74 19.7708 1103.01 19C1102.28 18.2292 1101.91 17.1589 1101.91 15.7891C1101.91 14.4089 1102.25 13.3125 1102.93 12.5C1103.61 11.6875 1104.53 11.2812 1105.67 11.2812C1106.74 11.2812 1107.59 11.6354 1108.22 12.3438C1108.84 13.0469 1109.16 13.9766 1109.16 15.1328V15.9531H1103.26C1103.28 16.9583 1103.54 17.7214 1104.02 18.2422C1104.5 18.763 1105.18 19.0234 1106.05 19.0234C1106.98 19.0234 1107.89 18.8307 1108.79 18.4453V19.6016C1108.33 19.7995 1107.9 19.9401 1107.48 20.0234C1107.08 20.112 1106.59 20.1562 1106.01 20.1562ZM1105.66 12.3672C1104.97 12.3672 1104.42 12.5911 1104.01 13.0391C1103.6 13.487 1103.36 14.1068 1103.29 14.8984H1107.77C1107.77 14.0807 1107.58 13.4557 1107.22 13.0234C1106.85 12.5859 1106.33 12.3672 1105.66 12.3672Z" fill="#212121"/>
<g clip-path="url(#clip0_1739_4131)">
<path d="M1046 53H1107C1108.1 53 1109 53.8954 1109 55V96.913C1109 98.0176 1108.1 98.913 1107 98.913H1046V53Z" fill="#0D6EFD"/>
<path fill-rule="evenodd" clip-rule="evenodd" d="M1071.55 73.8944C1071.26 73.5925 1071.26 73.1031 1071.55 72.8012C1071.81 72.5268 1072.22 72.5019 1072.51 72.7264L1072.6 72.8012L1078 78.4379L1083.4 72.8012C1083.67 72.5268 1084.08 72.5019 1084.37 72.7264L1084.45 72.8012C1084.71 73.0757 1084.74 73.5051 1084.52 73.8077L1084.45 73.8944L1078.52 80.0779C1078.26 80.3523 1077.85 80.3773 1077.56 80.1528L1077.48 80.0779L1071.55 73.8944Z" fill="white"/>
</g>
<path d="M779.711 73.918C779.711 74.9297 779.365 75.709 778.672 76.2559C777.984 76.7982 776.997 77.0693 775.712 77.0693H774.536V81H773.374V71.0059H775.965C778.462 71.0059 779.711 71.9766 779.711 73.918ZM774.536 76.0713H775.582C776.612 76.0713 777.357 75.9049 777.817 75.5723C778.278 75.2396 778.508 74.7064 778.508 73.9727C778.508 73.3118 778.291 72.8197 777.858 72.4961C777.425 72.1725 776.751 72.0107 775.835 72.0107H774.536V76.0713ZM782.773 81H781.639V70.3633H782.773V81ZM789.787 81L789.562 79.9336H789.507C789.133 80.403 788.759 80.722 788.386 80.8906C788.017 81.0547 787.554 81.1367 786.998 81.1367C786.255 81.1367 785.672 80.9453 785.248 80.5625C784.829 80.1797 784.619 79.6351 784.619 78.9287C784.619 77.4157 785.829 76.6227 788.249 76.5498L789.521 76.5088V76.0439C789.521 75.4561 789.393 75.0231 789.138 74.7451C788.887 74.4626 788.484 74.3213 787.928 74.3213C787.303 74.3213 786.597 74.5127 785.809 74.8955L785.46 74.0273C785.829 73.8268 786.232 73.6696 786.67 73.5557C787.112 73.4417 787.554 73.3848 787.996 73.3848C788.889 73.3848 789.55 73.583 789.979 73.9795C790.411 74.376 790.628 75.0117 790.628 75.8867V81H789.787ZM787.224 80.2002C787.93 80.2002 788.484 80.0065 788.885 79.6191C789.29 79.2318 789.493 78.6895 789.493 77.9922V77.3154L788.358 77.3633C787.456 77.3952 786.804 77.5365 786.403 77.7871C786.007 78.0332 785.809 78.4183 785.809 78.9424C785.809 79.3525 785.932 79.6647 786.178 79.8789C786.428 80.0931 786.777 80.2002 787.224 80.2002ZM795.967 81.1367C794.882 81.1367 794.041 80.804 793.444 80.1387C792.852 79.4688 792.556 78.5231 792.556 77.3018C792.556 76.0485 792.856 75.0801 793.458 74.3965C794.064 73.7129 794.925 73.3711 796.042 73.3711C796.402 73.3711 796.762 73.4098 797.122 73.4873C797.482 73.5648 797.765 73.6559 797.97 73.7607L797.621 74.7246C797.37 74.6243 797.097 74.5423 796.801 74.4785C796.505 74.4102 796.243 74.376 796.015 74.376C794.493 74.376 793.731 75.3467 793.731 77.2881C793.731 78.2087 793.916 78.915 794.285 79.4072C794.659 79.8994 795.21 80.1455 795.939 80.1455C796.564 80.1455 797.204 80.0111 797.86 79.7422V80.7471C797.359 81.0068 796.728 81.1367 795.967 81.1367ZM802.81 81.1367C801.702 81.1367 800.827 80.7995 800.185 80.125C799.547 79.4505 799.228 78.514 799.228 77.3154C799.228 76.1077 799.524 75.1484 800.116 74.4375C800.713 73.7266 801.513 73.3711 802.516 73.3711C803.454 73.3711 804.197 73.681 804.744 74.3008C805.291 74.916 805.564 75.7295 805.564 76.7412V77.459H800.403C800.426 78.3385 800.647 79.0062 801.066 79.4619C801.49 79.9176 802.085 80.1455 802.851 80.1455C803.657 80.1455 804.455 79.9769 805.243 79.6396V80.6514C804.842 80.8245 804.462 80.9476 804.102 81.0205C803.746 81.098 803.315 81.1367 802.81 81.1367ZM802.502 74.3213C801.9 74.3213 801.42 74.5173 801.06 74.9092C800.704 75.3011 800.494 75.8434 800.431 76.5361H804.348C804.348 75.8206 804.188 75.2738 803.869 74.8955C803.55 74.5127 803.094 74.3213 802.502 74.3213ZM812.633 81V76.1533C812.633 75.5426 812.494 75.0869 812.216 74.7861C811.938 74.4854 811.503 74.335 810.91 74.335C810.122 74.335 809.545 74.5492 809.181 74.9775C808.821 75.4059 808.641 76.1077 808.641 77.083V81H807.506V70.3633H808.641V73.583C808.641 73.9704 808.622 74.2917 808.586 74.5469H808.654C808.878 74.1868 809.194 73.9043 809.604 73.6992C810.019 73.4896 810.491 73.3848 811.02 73.3848C811.936 73.3848 812.621 73.6035 813.077 74.041C813.537 74.474 813.768 75.1644 813.768 76.1123V81H812.633ZM822.572 77.2471C822.572 78.4684 822.265 79.4232 821.649 80.1113C821.034 80.7949 820.184 81.1367 819.1 81.1367C818.43 81.1367 817.835 80.9795 817.315 80.665C816.796 80.3506 816.395 79.8994 816.112 79.3115C815.83 78.7236 815.688 78.0355 815.688 77.2471C815.688 76.0257 815.994 75.0755 816.604 74.3965C817.215 73.7129 818.063 73.3711 819.147 73.3711C820.196 73.3711 821.027 73.7197 821.643 74.417C822.262 75.1143 822.572 76.0576 822.572 77.2471ZM816.864 77.2471C816.864 78.2041 817.056 78.9333 817.438 79.4346C817.821 79.9359 818.384 80.1865 819.127 80.1865C819.87 80.1865 820.433 79.9382 820.815 79.4414C821.203 78.9401 821.396 78.2087 821.396 77.2471C821.396 76.2946 821.203 75.5723 820.815 75.0801C820.433 74.5833 819.865 74.335 819.113 74.335C818.37 74.335 817.81 74.5788 817.432 75.0664C817.053 75.554 816.864 76.2809 816.864 77.2471ZM825.703 81H824.568V70.3633H825.703V81ZM833.209 79.9951H833.147C832.623 80.7562 831.84 81.1367 830.796 81.1367C829.816 81.1367 829.053 80.8018 828.506 80.1318C827.964 79.4619 827.692 78.5094 827.692 77.2744C827.692 76.0394 827.966 75.0801 828.513 74.3965C829.06 73.7129 829.821 73.3711 830.796 73.3711C831.812 73.3711 832.591 73.7402 833.134 74.4785H833.223L833.175 73.9385L833.147 73.4121V70.3633H834.282V81H833.359L833.209 79.9951ZM830.939 80.1865C831.714 80.1865 832.275 79.9769 832.621 79.5576C832.972 79.1338 833.147 78.4525 833.147 77.5137V77.2744C833.147 76.2126 832.97 75.4561 832.614 75.0049C832.263 74.5492 831.701 74.3213 830.926 74.3213C830.26 74.3213 829.75 74.5811 829.395 75.1006C829.044 75.6156 828.868 76.3447 828.868 77.2881C828.868 78.2451 829.044 78.9674 829.395 79.4551C829.745 79.9427 830.26 80.1865 830.939 80.1865ZM839.86 81.1367C838.753 81.1367 837.878 80.7995 837.235 80.125C836.597 79.4505 836.278 78.514 836.278 77.3154C836.278 76.1077 836.575 75.1484 837.167 74.4375C837.764 73.7266 838.564 73.3711 839.566 73.3711C840.505 73.3711 841.248 73.681 841.795 74.3008C842.342 74.916 842.615 75.7295 842.615 76.7412V77.459H837.454C837.477 78.3385 837.698 79.0062 838.117 79.4619C838.541 79.9176 839.136 80.1455 839.901 80.1455C840.708 80.1455 841.506 79.9769 842.294 79.6396V80.6514C841.893 80.8245 841.512 80.9476 841.152 81.0205C840.797 81.098 840.366 81.1367 839.86 81.1367ZM839.553 74.3213C838.951 74.3213 838.47 74.5173 838.11 74.9092C837.755 75.3011 837.545 75.8434 837.481 76.5361H841.398C841.398 75.8206 841.239 75.2738 840.92 74.8955C840.601 74.5127 840.145 74.3213 839.553 74.3213ZM847.975 73.3711C848.307 73.3711 848.606 73.3984 848.87 73.4531L848.713 74.5059C848.403 74.4375 848.13 74.4033 847.893 74.4033C847.286 74.4033 846.767 74.6494 846.334 75.1416C845.906 75.6338 845.691 76.2467 845.691 76.9805V81H844.557V73.5078H845.493L845.623 74.8955H845.678C845.956 74.4079 846.291 74.0319 846.683 73.7676C847.075 73.5033 847.505 73.3711 847.975 73.3711Z" fill="#807E7E"/>
<rect x="756.5" y="52.5" width="353" height="47" rx="2.5" stroke="#EAEAEA"/>
<defs>
<clipPath id="clip0_1739_4131">
<rect width="63" height="45.913" fill="white" transform="translate(1046 53)"/>
</clipPath>
</defs>
</svg>
