<svg width="216" height="24" viewBox="0 0 216 24" fill="none" xmlns="http://www.w3.org/2000/svg">
<path fill-rule="evenodd" clip-rule="evenodd" d="M17.75 1.99988C18.1297 1.99988 18.4435 2.28203 18.4932 2.64811L18.5 2.74988V6.74988C18.5 7.12957 18.2178 7.44337 17.8518 7.49303L17.75 7.49988H14.75C14.6317 7.49988 14.5325 7.58211 14.5066 7.69256L14.5 7.74988V8.99988H17.75C18.2054 8.99988 18.5476 9.39932 18.495 9.83744L18.4776 9.93178L17.4776 13.9318C17.4034 14.2286 17.1581 14.4466 16.8628 14.4914L16.75 14.4999H14.5V20.7499C14.5 21.1296 14.2178 21.4434 13.8518 21.493L13.75 21.4999H9.75C9.3703 21.4999 9.05651 21.2177 9.00685 20.8516L9 20.7499V14.4999H6.75C6.3703 14.4999 6.05651 14.2177 6.00685 13.8516L6 13.7499V9.74988C6 9.37018 6.28215 9.05639 6.64823 9.00672L6.75 8.99988H9V7.74988C9 4.64809 11.456 2.11994 14.5294 2.00403L14.75 1.99988H17.75ZM17 3.49988H14.75C12.4718 3.49988 10.6123 5.29238 10.5049 7.54396L10.5 7.74988V9.74988C10.5 10.1296 10.2178 10.4434 9.85177 10.493L9.75 10.4999H7.5V12.9999H9.75C10.1297 12.9999 10.4435 13.282 10.4932 13.6481L10.5 13.7499V19.9999H13V13.7499C13 13.3702 13.2822 13.0564 13.6482 13.0067L13.75 12.9999H16.164L16.789 10.4999H13.75C13.3703 10.4999 13.0565 10.2177 13.0068 9.85165L13 9.74988V7.74988C13 6.8317 13.7071 6.07869 14.6065 6.00568L14.75 5.99988H17V3.49988Z" fill="#212121"/>
<path fill-rule="evenodd" clip-rule="evenodd" d="M71.75 2.99988H79.75C82.3734 2.99988 84.5 5.12653 84.5 7.74988V15.7499C84.5 18.3732 82.3734 20.4999 79.75 20.4999H71.75C69.1266 20.4999 67 18.3732 67 15.7499V7.74988C67 5.12653 69.1266 2.99988 71.75 2.99988ZM79.75 4.49988H71.75C69.9551 4.49988 68.5 5.95495 68.5 7.74988V15.7499C68.5 17.5448 69.9551 18.9999 71.75 18.9999H79.75C81.5449 18.9999 83 17.5448 83 15.7499V7.74988C83 5.95495 81.5449 4.49988 79.75 4.49988ZM72 11.7499C72 9.67881 73.6789 7.99988 75.75 7.99988C77.8211 7.99988 79.5 9.67881 79.5 11.7499C79.5 13.8209 77.8211 15.4999 75.75 15.4999C73.6789 15.4999 72 13.8209 72 11.7499ZM78 11.7499C78 10.5072 76.9926 9.49988 75.75 9.49988C74.5074 9.49988 73.5 10.5072 73.5 11.7499C73.5 12.9925 74.5074 13.9999 75.75 13.9999C76.9926 13.9999 78 12.9925 78 11.7499ZM80.9932 7.14811C80.9435 6.78203 80.6297 6.49988 80.25 6.49988C79.8358 6.49988 79.5 6.83566 79.5 7.25088L79.5068 7.35265C79.5565 7.71872 79.8703 8.00088 80.25 8.00088C80.6642 8.00088 81 7.66509 81 7.24988L80.9932 7.14811Z" fill="#212121"/>
<path fill-rule="evenodd" clip-rule="evenodd" d="M148.678 8.37122L148.682 7.88048L148.687 7.94648C148.689 7.95926 148.692 7.96177 148.694 7.96104L149.049 7.25338L149.502 6.36804L149.785 5.79294L149.91 5.52795C150.15 5.01258 150.323 4.58394 150.43 4.22383L150.452 4.13848L150.459 4.12476C150.619 3.68045 150.329 3.11248 149.75 3.11248L149.639 3.12073L149.532 3.1448L149.421 3.18898C149.233 3.28143 149.038 3.36562 148.832 3.44485L148.394 3.60057L148.019 3.71759L147.54 3.85353L146.968 4.01048L146.846 3.90376C145.594 2.86988 143.889 2.74651 142.108 3.4131L141.9 3.49637C140.188 4.22528 139.064 5.81989 139.004 7.64294L139.001 8.09048L138.82 8.08122C136.219 7.88988 133.916 6.58792 132.361 4.41588C132.042 3.96963 131.367 4.0064 131.098 4.48472L131.005 4.66069L130.958 4.75755C130.258 6.20407 129.797 7.96884 129.966 9.8281L129.994 10.0926C130.279 12.3722 131.542 14.3242 133.941 15.766L134.206 15.9205L134.034 16.0173C132.563 16.8102 131.237 17.1597 129.781 17.103C128.988 17.0722 128.696 18.1316 129.393 18.511C132.936 20.4421 136.732 21.0369 139.995 20.0897C143.973 18.9339 147 15.9555 148.159 11.8303C148.47 10.6997 148.644 9.53909 148.678 8.37122ZM146.19 5.34989C146.383 5.56767 146.685 5.65416 146.964 5.57181L148.134 5.2452L148.423 5.16148L148.246 5.52632L147.417 7.15154L147.316 7.36071C147.219 7.57203 147.189 7.68133 147.184 7.81925L147.184 7.8805C147.19 9.07778 147.032 10.2722 146.713 11.4283C145.698 15.044 143.064 17.6361 139.576 18.6493L139.268 18.7329C137.323 19.2249 135.146 19.1042 132.955 18.4134L132.514 18.2665L132.767 18.192C133.871 17.8419 134.975 17.271 136.167 16.4767C136.661 16.1476 136.595 15.4022 136.051 15.165C133.051 13.8569 131.668 11.9778 131.46 9.69204L131.438 9.36241C131.396 8.37519 131.566 7.40556 131.856 6.52688L131.942 6.27748L131.978 6.31945C133.979 8.49347 136.747 9.67957 139.771 9.60223C140.177 9.59183 140.501 9.25922 140.501 8.85248V7.85248C140.483 6.49672 141.32 5.31021 142.634 4.81785C144.115 4.26336 145.377 4.43183 146.19 5.34989Z" fill="#212121"/>
<path fill-rule="evenodd" clip-rule="evenodd" d="M199.25 4.99988C201.321 4.99988 203 6.67881 203 8.74988C203 9.95243 202.434 11.0228 201.554 11.709L201.498 11.7499L201.554 11.7907C202.385 12.4389 202.936 13.4296 202.995 14.5507L203 14.7499C203 16.7541 201.428 18.3912 199.449 18.4947L199.25 18.4999H194.75C194.37 18.4999 194.057 18.2177 194.007 17.8516L194 17.7499V11.7499V5.74988C194 5.37018 194.282 5.05639 194.648 5.00672L194.75 4.99988H199.25ZM195.5 12.4999V16.9999H199.25C200.441 16.9999 201.416 16.0747 201.495 14.9039L201.5 14.7499C201.5 13.559 200.575 12.5842 199.404 12.5051L199.25 12.4999H195.5ZM199.28 11.0005C199.27 11.0001 199.26 10.9999 199.25 10.9999H195.5V6.49988H199.25L199.404 6.50507C200.575 6.58423 201.5 7.55901 201.5 8.74988C201.5 9.94074 200.575 10.9155 199.404 10.9947L199.28 11.0005ZM213.5 12.7499C213.5 10.4027 211.597 8.49988 209.25 8.49988C206.903 8.49988 205 10.4027 205 12.7499V14.7499L205.007 14.8522L205.04 15.0581C205.373 16.827 206.79 18.2045 208.584 18.4748C210.448 18.7555 212.274 17.7751 213.07 16.0665C213.245 15.691 213.082 15.2449 212.707 15.07C212.331 14.8951 211.885 15.0577 211.71 15.4332C211.195 16.5388 210.014 17.1731 208.808 16.9915L208.629 16.9585C207.568 16.7267 206.742 15.8901 206.524 14.8268L206.5 14.6929V13.4999H212.75L212.852 13.493C213.218 13.4434 213.5 13.1296 213.5 12.7499ZM206.621 11.9417C206.966 10.8173 208.012 9.99988 209.25 9.99988L209.418 10.0049C210.581 10.0748 211.55 10.8684 211.879 11.9417L211.895 11.9999H206.604L206.621 11.9417ZM211.5 5.74988C211.5 5.33566 211.164 4.99988 210.75 4.99988H207.75L207.648 5.00672C207.282 5.05639 207 5.37018 207 5.74988C207 6.16409 207.336 6.49988 207.75 6.49988H210.75L210.852 6.49303C211.218 6.44337 211.5 6.12957 211.5 5.74988Z" fill="#212121"/>
</svg>
