<svg width="193" height="25" viewBox="0 0 193 25" fill="none" xmlns="http://www.w3.org/2000/svg">
<path d="M34.23 3L27.36 24H22.14L17.52 9.78L12.75 24H7.56L0.66 3H5.7L10.44 17.76L15.39 3H19.89L24.69 17.88L29.58 3H34.23ZM41.572 7.62C44.072 7.62 45.992 8.22 47.332 9.42C48.672 10.6 49.342 12.39 49.342 14.79V24H44.962V21.99C44.082 23.49 42.442 24.24 40.042 24.24C38.802 24.24 37.722 24.03 36.802 23.61C35.902 23.19 35.212 22.61 34.732 21.87C34.252 21.13 34.012 20.29 34.012 19.35C34.012 17.85 34.572 16.67 35.692 15.81C36.832 14.95 38.582 14.52 40.942 14.52H44.662C44.662 13.5 44.352 12.72 43.732 12.18C43.112 11.62 42.182 11.34 40.942 11.34C40.082 11.34 39.232 11.48 38.392 11.76C37.572 12.02 36.872 12.38 36.292 12.84L34.612 9.57C35.492 8.95 36.542 8.47 37.762 8.13C39.002 7.79 40.272 7.62 41.572 7.62ZM41.212 21.09C42.012 21.09 42.722 20.91 43.342 20.55C43.962 20.17 44.402 19.62 44.662 18.9V17.25H41.452C39.532 17.25 38.572 17.88 38.572 19.14C38.572 19.74 38.802 20.22 39.262 20.58C39.742 20.92 40.392 21.09 41.212 21.09ZM63.6376 23.22C63.1776 23.56 62.6076 23.82 61.9276 24C61.2676 24.16 60.5676 24.24 59.8276 24.24C57.9076 24.24 56.4176 23.75 55.3576 22.77C54.3176 21.79 53.7976 20.35 53.7976 18.45V11.82H51.3076V8.22H53.7976V4.29H58.4776V8.22H62.4976V11.82H58.4776V18.39C58.4776 19.07 58.6476 19.6 58.9876 19.98C59.3476 20.34 59.8476 20.52 60.4876 20.52C61.2276 20.52 61.8576 20.32 62.3776 19.92L63.6376 23.22ZM73.2166 24.24C71.4966 24.24 69.9466 23.89 68.5666 23.19C67.2066 22.47 66.1366 21.48 65.3566 20.22C64.5966 18.96 64.2166 17.53 64.2166 15.93C64.2166 14.33 64.5966 12.9 65.3566 11.64C66.1366 10.38 67.2066 9.4 68.5666 8.7C69.9466 7.98 71.4966 7.62 73.2166 7.62C74.9166 7.62 76.3966 7.98 77.6566 8.7C78.9366 9.4 79.8666 10.41 80.4466 11.73L76.8166 13.68C75.9766 12.2 74.7666 11.46 73.1866 11.46C71.9666 11.46 70.9566 11.86 70.1566 12.66C69.3566 13.46 68.9566 14.55 68.9566 15.93C68.9566 17.31 69.3566 18.4 70.1566 19.2C70.9566 20 71.9666 20.4 73.1866 20.4C74.7866 20.4 75.9966 19.66 76.8166 18.18L80.4466 20.16C79.8666 21.44 78.9366 22.44 77.6566 23.16C76.3966 23.88 74.9166 24.24 73.2166 24.24ZM92.4841 7.62C94.4841 7.62 96.0941 8.22 97.3141 9.42C98.5541 10.62 99.1741 12.4 99.1741 14.76V24H94.4941V15.48C94.4941 14.2 94.2141 13.25 93.6541 12.63C93.0941 11.99 92.2841 11.67 91.2241 11.67C90.0441 11.67 89.1041 12.04 88.4041 12.78C87.7041 13.5 87.3541 14.58 87.3541 16.02V24H82.6741V1.74H87.3541V9.54C87.9741 8.92 88.7241 8.45 89.6041 8.13C90.4841 7.79 91.4441 7.62 92.4841 7.62ZM127.232 7.86L120.422 24H115.592L108.812 7.86H113.642L118.112 18.84L122.732 7.86H127.232ZM128.792 7.86H133.472V24H128.792V7.86ZM131.132 5.61C130.272 5.61 129.572 5.36 129.032 4.86C128.492 4.36 128.222 3.74 128.222 3C128.222 2.26 128.492 1.64 129.032 1.14C129.572 0.639999 130.272 0.389998 131.132 0.389998C131.992 0.389998 132.692 0.629999 133.232 1.11C133.772 1.59 134.042 2.19 134.042 2.91C134.042 3.69 133.772 4.34 133.232 4.86C132.692 5.36 131.992 5.61 131.132 5.61ZM153.905 1.74V24H149.435V22.14C148.275 23.54 146.595 24.24 144.395 24.24C142.875 24.24 141.495 23.9 140.255 23.22C139.035 22.54 138.075 21.57 137.375 20.31C136.675 19.05 136.325 17.59 136.325 15.93C136.325 14.27 136.675 12.81 137.375 11.55C138.075 10.29 139.035 9.32 140.255 8.64C141.495 7.96 142.875 7.62 144.395 7.62C146.455 7.62 148.065 8.27 149.225 9.57V1.74H153.905ZM145.205 20.4C146.385 20.4 147.365 20 148.145 19.2C148.925 18.38 149.315 17.29 149.315 15.93C149.315 14.57 148.925 13.49 148.145 12.69C147.365 11.87 146.385 11.46 145.205 11.46C144.005 11.46 143.015 11.87 142.235 12.69C141.455 13.49 141.065 14.57 141.065 15.93C141.065 17.29 141.455 18.38 142.235 19.2C143.015 20 144.005 20.4 145.205 20.4ZM173.697 15.99C173.697 16.05 173.667 16.47 173.607 17.25H161.397C161.617 18.25 162.137 19.04 162.957 19.62C163.777 20.2 164.797 20.49 166.017 20.49C166.857 20.49 167.597 20.37 168.237 20.13C168.897 19.87 169.507 19.47 170.067 18.93L172.557 21.63C171.037 23.37 168.817 24.24 165.897 24.24C164.077 24.24 162.467 23.89 161.067 23.19C159.667 22.47 158.587 21.48 157.827 20.22C157.067 18.96 156.687 17.53 156.687 15.93C156.687 14.35 157.057 12.93 157.797 11.67C158.557 10.39 159.587 9.4 160.887 8.7C162.207 7.98 163.677 7.62 165.297 7.62C166.877 7.62 168.307 7.96 169.587 8.64C170.867 9.32 171.867 10.3 172.587 11.58C173.327 12.84 173.697 14.31 173.697 15.99ZM165.327 11.16C164.267 11.16 163.377 11.46 162.657 12.06C161.937 12.66 161.497 13.48 161.337 14.52H169.287C169.127 13.5 168.687 12.69 167.967 12.09C167.247 11.47 166.367 11.16 165.327 11.16ZM184.143 24.24C182.443 24.24 180.913 23.89 179.553 23.19C178.213 22.47 177.163 21.48 176.403 20.22C175.643 18.96 175.263 17.53 175.263 15.93C175.263 14.33 175.643 12.9 176.403 11.64C177.163 10.38 178.213 9.4 179.553 8.7C180.913 7.98 182.443 7.62 184.143 7.62C185.843 7.62 187.363 7.98 188.703 8.7C190.043 9.4 191.093 10.38 191.853 11.64C192.613 12.9 192.993 14.33 192.993 15.93C192.993 17.53 192.613 18.96 191.853 20.22C191.093 21.48 190.043 22.47 188.703 23.19C187.363 23.89 185.843 24.24 184.143 24.24ZM184.143 20.4C185.343 20.4 186.323 20 187.083 19.2C187.863 18.38 188.253 17.29 188.253 15.93C188.253 14.57 187.863 13.49 187.083 12.69C186.323 11.87 185.343 11.46 184.143 11.46C182.943 11.46 181.953 11.87 181.173 12.69C180.393 13.49 180.003 14.57 180.003 15.93C180.003 17.29 180.393 18.38 181.173 19.2C181.953 20 182.943 20.4 184.143 20.4Z" fill="#212121"/>
</svg>
