<svg width="290" height="33" viewBox="0 0 290 33" fill="none" xmlns="http://www.w3.org/2000/svg">
<path d="M14.408 18.064V26H9.224V18L0.552 3.6H6.056L12.04 13.552L18.024 3.6H23.112L14.408 18.064ZM31.2148 26.256C29.4014 26.256 27.7694 25.8827 26.3188 25.136C24.8894 24.368 23.7694 23.312 22.9588 21.968C22.1481 20.624 21.7428 19.0987 21.7428 17.392C21.7428 15.6853 22.1481 14.16 22.9588 12.816C23.7694 11.472 24.8894 10.4267 26.3188 9.68C27.7694 8.912 29.4014 8.528 31.2148 8.528C33.0281 8.528 34.6494 8.912 36.0788 9.68C37.5081 10.4267 38.6281 11.472 39.4388 12.816C40.2494 14.16 40.6548 15.6853 40.6548 17.392C40.6548 19.0987 40.2494 20.624 39.4388 21.968C38.6281 23.312 37.5081 24.368 36.0788 25.136C34.6494 25.8827 33.0281 26.256 31.2148 26.256ZM31.2148 22.16C32.4948 22.16 33.5401 21.7333 34.3508 20.88C35.1828 20.0053 35.5988 18.8427 35.5988 17.392C35.5988 15.9413 35.1828 14.7893 34.3508 13.936C33.5401 13.0613 32.4948 12.624 31.2148 12.624C29.9348 12.624 28.8788 13.0613 28.0468 13.936C27.2148 14.7893 26.7988 15.9413 26.7988 17.392C26.7988 18.8427 27.2148 20.0053 28.0468 20.88C28.8788 21.7333 29.9348 22.16 31.2148 22.16ZM61.3355 8.784V26H56.5995V23.952C55.9382 24.6987 55.1488 25.2747 54.2315 25.68C53.3142 26.064 52.3222 26.256 51.2555 26.256C48.9942 26.256 47.2022 25.6053 45.8795 24.304C44.5568 23.0027 43.8955 21.072 43.8955 18.512V8.784H48.8875V17.776C48.8875 20.5493 50.0502 21.936 52.3755 21.936C53.5702 21.936 54.5302 21.552 55.2555 20.784C55.9808 19.9947 56.3435 18.832 56.3435 17.296V8.784H61.3355ZM97.0708 8.528C99.2254 8.528 100.932 9.168 102.191 10.448C103.471 11.7067 104.111 13.6053 104.111 16.144V26H99.1188V16.912C99.1188 15.5467 98.8308 14.5333 98.2548 13.872C97.7001 13.1893 96.9001 12.848 95.8548 12.848C94.6814 12.848 93.7534 13.232 93.0708 14C92.3881 14.7467 92.0468 15.8667 92.0468 17.36V26H87.0548V16.912C87.0548 14.2027 85.9668 12.848 83.7908 12.848C82.6388 12.848 81.7214 13.232 81.0388 14C80.3561 14.7467 80.0148 15.8667 80.0148 17.36V26H75.0228V8.784H79.7908V10.768C80.4308 10.0427 81.2094 9.488 82.1267 9.104C83.0654 8.72 84.0894 8.528 85.1988 8.528C86.4148 8.528 87.5134 8.77333 88.4948 9.264C89.4761 9.73333 90.2654 10.4267 90.8628 11.344C91.5668 10.448 92.4521 9.75467 93.5188 9.264C94.6068 8.77333 95.7908 8.528 97.0708 8.528ZM115.529 8.528C118.196 8.528 120.244 9.168 121.673 10.448C123.103 11.7067 123.817 13.616 123.817 16.176V26H119.145V23.856C118.207 25.456 116.457 26.256 113.897 26.256C112.575 26.256 111.423 26.032 110.441 25.584C109.481 25.136 108.745 24.5173 108.233 23.728C107.721 22.9387 107.465 22.0427 107.465 21.04C107.465 19.44 108.063 18.1813 109.257 17.264C110.473 16.3467 112.34 15.888 114.857 15.888H118.825C118.825 14.8 118.495 13.968 117.833 13.392C117.172 12.7947 116.18 12.496 114.857 12.496C113.94 12.496 113.033 12.6453 112.137 12.944C111.263 13.2213 110.516 13.6053 109.897 14.096L108.105 10.608C109.044 9.94667 110.164 9.43467 111.465 9.072C112.788 8.70933 114.143 8.528 115.529 8.528ZM115.145 22.896C115.999 22.896 116.756 22.704 117.417 22.32C118.079 21.9147 118.548 21.328 118.825 20.56V18.8H115.401C113.353 18.8 112.329 19.472 112.329 20.816C112.329 21.456 112.575 21.968 113.065 22.352C113.577 22.7147 114.271 22.896 115.145 22.896ZM145.111 8.784L137.335 27.056C136.545 29.04 135.564 30.4373 134.391 31.248C133.239 32.0587 131.841 32.464 130.199 32.464C129.303 32.464 128.417 32.3253 127.543 32.048C126.668 31.7707 125.953 31.3867 125.399 30.896L127.223 27.344C127.607 27.6853 128.044 27.952 128.535 28.144C129.047 28.336 129.548 28.432 130.039 28.432C130.721 28.432 131.276 28.2613 131.703 27.92C132.129 27.6 132.513 27.056 132.855 26.288L132.919 26.128L125.463 8.784H130.615L135.447 20.464L140.311 8.784H145.111ZM163.154 8.528C165.821 8.528 167.869 9.168 169.298 10.448C170.728 11.7067 171.442 13.616 171.442 16.176V26H166.77V23.856C165.832 25.456 164.082 26.256 161.522 26.256C160.2 26.256 159.048 26.032 158.066 25.584C157.106 25.136 156.37 24.5173 155.858 23.728C155.346 22.9387 155.09 22.0427 155.09 21.04C155.09 19.44 155.688 18.1813 156.882 17.264C158.098 16.3467 159.965 15.888 162.482 15.888H166.45C166.45 14.8 166.12 13.968 165.458 13.392C164.797 12.7947 163.805 12.496 162.482 12.496C161.565 12.496 160.658 12.6453 159.762 12.944C158.888 13.2213 158.141 13.6053 157.522 14.096L155.73 10.608C156.669 9.94667 157.789 9.43467 159.09 9.072C160.413 8.70933 161.768 8.528 163.154 8.528ZM162.77 22.896C163.624 22.896 164.381 22.704 165.042 22.32C165.704 21.9147 166.173 21.328 166.45 20.56V18.8H163.026C160.978 18.8 159.954 19.472 159.954 20.816C159.954 21.456 160.2 21.968 160.69 22.352C161.202 22.7147 161.896 22.896 162.77 22.896ZM175.96 2.256H180.952V26H175.96V2.256ZM191.377 26.256C189.948 26.256 188.551 26.0853 187.185 25.744C185.82 25.3813 184.732 24.9333 183.921 24.4L185.585 20.816C186.353 21.3067 187.281 21.712 188.369 22.032C189.457 22.3307 190.524 22.48 191.569 22.48C193.681 22.48 194.737 21.9573 194.737 20.912C194.737 20.4213 194.449 20.0693 193.873 19.856C193.297 19.6427 192.412 19.4613 191.217 19.312C189.809 19.0987 188.647 18.8533 187.729 18.576C186.812 18.2987 186.012 17.808 185.329 17.104C184.668 16.4 184.337 15.3973 184.337 14.096C184.337 13.008 184.647 12.048 185.265 11.216C185.905 10.3627 186.823 9.70133 188.017 9.232C189.233 8.76267 190.663 8.528 192.305 8.528C193.521 8.528 194.727 8.66667 195.921 8.944C197.137 9.2 198.14 9.56267 198.929 10.032L197.265 13.584C195.751 12.7307 194.097 12.304 192.305 12.304C191.239 12.304 190.439 12.4533 189.905 12.752C189.372 13.0507 189.105 13.4347 189.105 13.904C189.105 14.4373 189.393 14.8107 189.969 15.024C190.545 15.2373 191.463 15.44 192.721 15.632C194.129 15.8667 195.281 16.1227 196.177 16.4C197.073 16.656 197.852 17.136 198.513 17.84C199.175 18.544 199.505 19.5253 199.505 20.784C199.505 21.8507 199.185 22.8 198.545 23.632C197.905 24.464 196.967 25.1147 195.729 25.584C194.513 26.032 193.063 26.256 191.377 26.256ZM210.777 26.256C208.964 26.256 207.332 25.8827 205.881 25.136C204.452 24.368 203.332 23.312 202.521 21.968C201.711 20.624 201.305 19.0987 201.305 17.392C201.305 15.6853 201.711 14.16 202.521 12.816C203.332 11.472 204.452 10.4267 205.881 9.68C207.332 8.912 208.964 8.528 210.777 8.528C212.591 8.528 214.212 8.912 215.641 9.68C217.071 10.4267 218.191 11.472 219.001 12.816C219.812 14.16 220.217 15.6853 220.217 17.392C220.217 19.0987 219.812 20.624 219.001 21.968C218.191 23.312 217.071 24.368 215.641 25.136C214.212 25.8827 212.591 26.256 210.777 26.256ZM210.777 22.16C212.057 22.16 213.103 21.7333 213.913 20.88C214.745 20.0053 215.161 18.8427 215.161 17.392C215.161 15.9413 214.745 14.7893 213.913 13.936C213.103 13.0613 212.057 12.624 210.777 12.624C209.497 12.624 208.441 13.0613 207.609 13.936C206.777 14.7893 206.361 15.9413 206.361 17.392C206.361 18.8427 206.777 20.0053 207.609 20.88C208.441 21.7333 209.497 22.16 210.777 22.16ZM232.617 2.256H237.609V26H232.617V2.256ZM242.242 8.784H247.234V26H242.242V8.784ZM244.738 6.384C243.82 6.384 243.074 6.11733 242.498 5.584C241.922 5.05067 241.634 4.38933 241.634 3.6C241.634 2.81067 241.922 2.14933 242.498 1.616C243.074 1.08267 243.82 0.815998 244.738 0.815998C245.655 0.815998 246.402 1.072 246.978 1.584C247.554 2.096 247.842 2.736 247.842 3.504C247.842 4.336 247.554 5.02933 246.978 5.584C246.402 6.11733 245.655 6.384 244.738 6.384ZM259.259 19.248L256.859 21.616V26H251.867V2.256H256.859V15.696L264.155 8.784H270.107L262.939 16.08L270.747 26H264.699L259.259 19.248ZM289.106 17.456C289.106 17.52 289.074 17.968 289.01 18.8H275.986C276.22 19.8667 276.775 20.7093 277.65 21.328C278.524 21.9467 279.612 22.256 280.914 22.256C281.81 22.256 282.599 22.128 283.282 21.872C283.986 21.5947 284.636 21.168 285.234 20.592L287.89 23.472C286.268 25.328 283.9 26.256 280.786 26.256C278.844 26.256 277.127 25.8827 275.634 25.136C274.14 24.368 272.988 23.312 272.178 21.968C271.367 20.624 270.962 19.0987 270.962 17.392C270.962 15.7067 271.356 14.192 272.146 12.848C272.956 11.4827 274.055 10.4267 275.442 9.68C276.85 8.912 278.418 8.528 280.146 8.528C281.831 8.528 283.356 8.89067 284.722 9.616C286.087 10.3413 287.154 11.3867 287.922 12.752C288.711 14.096 289.106 15.664 289.106 17.456ZM280.178 12.304C279.047 12.304 278.098 12.624 277.33 13.264C276.562 13.904 276.092 14.7787 275.922 15.888H284.402C284.231 14.8 283.762 13.936 282.994 13.296C282.226 12.6347 281.287 12.304 280.178 12.304Z" fill="#1E1E1E"/>
</svg>
